<svg width="267" height="211" viewBox="0 0 267 211" fill="none" xmlns="http://www.w3.org/2000/svg">
    <g filter="url(#filter0_d_2_130)">
        <path d="M49.6676 59.3324C48.7689 59.3324 47.9534 59.1631 47.2209 58.8246C46.4884 58.4799 45.9067 57.9844 45.4759 57.3381C45.045 56.6856 44.8295 55.8977 44.8295 54.9744C44.8295 54.1619 44.9896 53.5033 45.3097 52.9986C45.6297 52.4877 46.0575 52.0876 46.593 51.7983C47.1286 51.509 47.7195 51.2936 48.3658 51.152C49.0182 51.0043 49.6738 50.8873 50.3324 50.8011C51.1941 50.6903 51.8928 50.6072 52.4283 50.5518C52.9699 50.4903 53.3639 50.3887 53.6101 50.2472C53.8625 50.1056 53.9886 49.8594 53.9886 49.5085V49.4347C53.9886 48.5237 53.7393 47.8158 53.2408 47.3111C52.7483 46.8063 52.0005 46.554 50.9972 46.554C49.9569 46.554 49.1413 46.7817 48.5504 47.2372C47.9595 47.6927 47.544 48.179 47.304 48.696L45.2358 47.9574C45.6051 47.0956 46.0975 46.4247 46.7131 45.9446C47.3348 45.4583 48.0118 45.1198 48.7443 44.929C49.483 44.732 50.2093 44.6335 50.9233 44.6335C51.3788 44.6335 51.902 44.6889 52.4929 44.7997C53.09 44.9044 53.6655 45.1229 54.2195 45.4553C54.7796 45.7876 55.2443 46.2893 55.6136 46.9602C55.983 47.6312 56.1676 48.5298 56.1676 49.6562V59H53.9886V57.0795H53.8778C53.7301 57.3873 53.4839 57.7166 53.1392 58.0675C52.7945 58.4183 52.3359 58.7169 51.7635 58.9631C51.1911 59.2093 50.4924 59.3324 49.6676 59.3324ZM50 57.375C50.8617 57.375 51.5881 57.2057 52.179 56.8672C52.776 56.5286 53.2254 56.0916 53.527 55.5561C53.8348 55.0206 53.9886 54.4574 53.9886 53.8665V51.8722C53.8963 51.983 53.6932 52.0845 53.3793 52.1768C53.0715 52.263 52.7145 52.34 52.3082 52.4077C51.9081 52.4692 51.5173 52.5246 51.1357 52.5739C50.7602 52.617 50.4555 52.6539 50.2216 52.6847C49.6553 52.7585 49.1259 52.8786 48.6335 53.0447C48.1473 53.2048 47.7533 53.4479 47.4517 53.7741C47.1563 54.0942 47.0085 54.5312 47.0085 55.0852C47.0085 55.8423 47.2886 56.4148 47.8487 56.8026C48.415 57.1842 49.1321 57.375 50 57.375ZM62.3237 50.4688V59H60.1447V44.8182H62.2498V47.0341H62.4345C62.7669 46.3139 63.2716 45.7353 63.9487 45.2983C64.6258 44.8551 65.4998 44.6335 66.5708 44.6335C67.5311 44.6335 68.3713 44.8305 69.0914 45.2244C69.8116 45.6122 70.3717 46.2031 70.7718 46.9972C71.1719 47.785 71.372 48.7822 71.372 49.9886V59H69.193V50.1364C69.193 49.0223 68.9037 48.1544 68.3251 47.5327C67.7465 46.9048 66.9525 46.5909 65.943 46.5909C65.2475 46.5909 64.6258 46.7417 64.0779 47.0433C63.5363 47.3449 63.1085 47.785 62.7946 48.3636C62.4806 48.9422 62.3237 49.6439 62.3237 50.4688ZM80.7088 59.2955C79.527 59.2955 78.4837 58.9969 77.5788 58.3999C76.674 57.7966 75.9661 56.9472 75.4553 55.8516C74.9444 54.7498 74.6889 53.4479 74.6889 51.946C74.6889 50.4564 74.9444 49.1638 75.4553 48.0682C75.9661 46.9725 76.6771 46.1262 77.5881 45.5291C78.4991 44.9321 79.5516 44.6335 80.7457 44.6335C81.669 44.6335 82.3984 44.7874 82.9339 45.0952C83.4756 45.3968 83.888 45.7415 84.1712 46.1293C84.4605 46.5109 84.6851 46.8248 84.8452 47.071H85.0298V40.0909H87.2088V59H85.1037V56.821H84.8452C84.6851 57.0795 84.4574 57.4058 84.1619 57.7997C83.8665 58.1875 83.4448 58.5353 82.897 58.843C82.3492 59.1446 81.6198 59.2955 80.7088 59.2955ZM81.0043 57.3381C81.8783 57.3381 82.617 57.1103 83.2202 56.6548C83.8234 56.1932 84.282 55.5561 84.5959 54.7436C84.9098 53.925 85.0668 52.9801 85.0668 51.9091C85.0668 50.8504 84.9129 49.924 84.6051 49.13C84.2973 48.3298 83.8419 47.7081 83.2386 47.2649C82.6354 46.8156 81.8906 46.5909 81.0043 46.5909C80.081 46.5909 79.3116 46.8279 78.696 47.3018C78.0866 47.7696 77.6281 48.4067 77.3203 49.2131C77.0187 50.0133 76.8679 50.9119 76.8679 51.9091C76.8679 52.9186 77.0218 53.8357 77.3295 54.6605C77.6435 55.4792 78.1051 56.1316 78.7145 56.6179C79.33 57.098 80.0933 57.3381 81.0043 57.3381ZM98.8146 59V44.8182H100.92V47.0341H101.104C101.4 46.277 101.877 45.6892 102.536 45.2706C103.194 44.8459 103.985 44.6335 104.908 44.6335C105.844 44.6335 106.623 44.8459 107.244 45.2706C107.872 45.6892 108.362 46.277 108.712 47.0341H108.86C109.223 46.3016 109.768 45.7199 110.494 45.2891C111.221 44.852 112.092 44.6335 113.107 44.6335C114.375 44.6335 115.412 45.0305 116.219 45.8246C117.025 46.6125 117.428 47.8404 117.428 49.5085V59H115.249V49.5085C115.249 48.4621 114.963 47.7143 114.391 47.2649C113.818 46.8156 113.144 46.5909 112.369 46.5909C111.371 46.5909 110.599 46.8925 110.051 47.4957C109.503 48.0928 109.229 48.8499 109.229 49.767V59H107.013V49.2869C107.013 48.4806 106.752 47.8312 106.229 47.3388C105.705 46.8402 105.031 46.5909 104.207 46.5909C103.64 46.5909 103.111 46.7417 102.619 47.0433C102.132 47.3449 101.738 47.7635 101.437 48.299C101.141 48.8284 100.994 49.4408 100.994 50.1364V59H98.8146ZM127.174 59.2955C125.893 59.2955 124.77 58.9908 123.804 58.3814C122.843 57.772 122.092 56.9195 121.551 55.8239C121.015 54.7282 120.748 53.4479 120.748 51.983C120.748 50.5057 121.015 49.2161 121.551 48.1143C122.092 47.0125 122.843 46.157 123.804 45.5476C124.77 44.9382 125.893 44.6335 127.174 44.6335C128.454 44.6335 129.574 44.9382 130.534 45.5476C131.501 46.157 132.252 47.0125 132.787 48.1143C133.329 49.2161 133.6 50.5057 133.6 51.983C133.6 53.4479 133.329 54.7282 132.787 55.8239C132.252 56.9195 131.501 57.772 130.534 58.3814C129.574 58.9908 128.454 59.2955 127.174 59.2955ZM127.174 57.3381C128.146 57.3381 128.946 57.0888 129.574 56.5902C130.202 56.0916 130.667 55.4361 130.968 54.6236C131.27 53.8111 131.421 52.9309 131.421 51.983C131.421 51.035 131.27 50.1518 130.968 49.3331C130.667 48.5144 130.202 47.8527 129.574 47.348C128.946 46.8433 128.146 46.5909 127.174 46.5909C126.201 46.5909 125.401 46.8433 124.773 47.348C124.145 47.8527 123.681 48.5144 123.379 49.3331C123.077 50.1518 122.926 51.035 122.926 51.983C122.926 52.9309 123.077 53.8111 123.379 54.6236C123.681 55.4361 124.145 56.0916 124.773 56.5902C125.401 57.0888 126.201 57.3381 127.174 57.3381ZM136.926 59V44.8182H139.031V46.9602H139.179C139.437 46.2585 139.905 45.6892 140.582 45.2521C141.259 44.8151 142.023 44.5966 142.872 44.5966C143.032 44.5966 143.232 44.5997 143.472 44.6058C143.712 44.612 143.894 44.6212 144.017 44.6335V46.8494C143.943 46.831 143.774 46.8033 143.509 46.7663C143.251 46.7232 142.977 46.7017 142.687 46.7017C141.998 46.7017 141.382 46.8464 140.841 47.1357C140.305 47.4188 139.881 47.8127 139.567 48.3175C139.259 48.8161 139.105 49.3854 139.105 50.0256V59H136.926ZM152.114 59.2955C150.748 59.2955 149.569 58.9938 148.578 58.3906C147.593 57.7812 146.833 56.9318 146.297 55.8423C145.768 54.7467 145.503 53.4725 145.503 52.0199C145.503 50.5672 145.768 49.2869 146.297 48.179C146.833 47.0649 147.578 46.197 148.532 45.5753C149.492 44.9474 150.612 44.6335 151.893 44.6335C152.631 44.6335 153.361 44.7566 154.081 45.0028C154.801 45.2491 155.456 45.6491 156.047 46.2031C156.638 46.7509 157.109 47.4773 157.46 48.3821C157.811 49.2869 157.986 50.401 157.986 51.7244V52.6477H147.055V50.7642H155.77C155.77 49.964 155.61 49.25 155.29 48.6222C154.976 47.9943 154.527 47.4988 153.942 47.1357C153.364 46.7725 152.68 46.5909 151.893 46.5909C151.025 46.5909 150.274 46.8063 149.64 47.2372C149.012 47.6619 148.529 48.2159 148.19 48.8991C147.852 49.5824 147.682 50.3149 147.682 51.0966V52.3523C147.682 53.4233 147.867 54.3312 148.236 55.076C148.612 55.8146 149.132 56.3778 149.797 56.7656C150.461 57.1473 151.234 57.3381 152.114 57.3381C152.687 57.3381 153.204 57.258 153.665 57.098C154.133 56.9318 154.536 56.6856 154.875 56.3594C155.213 56.027 155.475 55.6146 155.66 55.1222L157.765 55.7131C157.543 56.4271 157.171 57.0549 156.648 57.5966C156.124 58.1321 155.478 58.5507 154.709 58.8523C153.939 59.1477 153.074 59.2955 152.114 59.2955Z" fill="white"/>
    </g>
    <g filter="url(#filter1_d_2_130)">
        <path d="M48.6761 109.159C47.9602 109.159 47.3438 108.99 46.8267 108.652C46.3097 108.314 45.9119 107.848 45.6335 107.255C45.3551 106.662 45.2159 105.984 45.2159 105.222C45.2159 104.446 45.3584 103.762 45.6435 103.168C45.9318 102.572 46.3329 102.106 46.8466 101.771C47.3636 101.433 47.9669 101.264 48.6562 101.264C49.1932 101.264 49.6771 101.364 50.108 101.562C50.5388 101.761 50.8918 102.04 51.1669 102.398C51.442 102.756 51.6127 103.173 51.679 103.651H50.5057C50.4162 103.303 50.2173 102.994 49.9091 102.726C49.6042 102.454 49.1932 102.318 48.6761 102.318C48.2188 102.318 47.8177 102.437 47.473 102.676C47.1316 102.911 46.8648 103.245 46.6726 103.675C46.4837 104.103 46.3892 104.605 46.3892 105.182C46.3892 105.772 46.482 106.286 46.6676 106.723C46.8565 107.161 47.1217 107.5 47.4631 107.742C47.8078 107.984 48.2121 108.105 48.6761 108.105C48.9811 108.105 49.2578 108.052 49.5064 107.946C49.755 107.84 49.9654 107.688 50.1378 107.489C50.3101 107.29 50.4328 107.051 50.5057 106.773H51.679C51.6127 107.223 51.4486 107.629 51.1868 107.991C50.9283 108.349 50.5852 108.634 50.1577 108.846C49.7334 109.055 49.2396 109.159 48.6761 109.159ZM56.4964 109.159C55.8071 109.159 55.2022 108.995 54.6818 108.667C54.1648 108.339 53.7604 107.88 53.4688 107.29C53.1804 106.7 53.0362 106.01 53.0362 105.222C53.0362 104.426 53.1804 103.732 53.4688 103.138C53.7604 102.545 54.1648 102.085 54.6818 101.756C55.2022 101.428 55.8071 101.264 56.4964 101.264C57.1858 101.264 57.7891 101.428 58.3061 101.756C58.8265 102.085 59.2308 102.545 59.5192 103.138C59.8108 103.732 59.9567 104.426 59.9567 105.222C59.9567 106.01 59.8108 106.7 59.5192 107.29C59.2308 107.88 58.8265 108.339 58.3061 108.667C57.7891 108.995 57.1858 109.159 56.4964 109.159ZM56.4964 108.105C57.0201 108.105 57.451 107.971 57.7891 107.702C58.1271 107.434 58.3774 107.081 58.5398 106.643C58.7022 106.206 58.7834 105.732 58.7834 105.222C58.7834 104.711 58.7022 104.236 58.5398 103.795C58.3774 103.354 58.1271 102.998 57.7891 102.726C57.451 102.454 57.0201 102.318 56.4964 102.318C55.9728 102.318 55.5419 102.454 55.2038 102.726C54.8658 102.998 54.6155 103.354 54.4531 103.795C54.2907 104.236 54.2095 104.711 54.2095 105.222C54.2095 105.732 54.2907 106.206 54.4531 106.643C54.6155 107.081 54.8658 107.434 55.2038 107.702C55.5419 107.971 55.9728 108.105 56.4964 108.105ZM61.7477 109V101.364H62.8812V102.557H62.9806C63.1397 102.149 63.3966 101.833 63.7512 101.607C64.1059 101.379 64.5318 101.264 65.0289 101.264C65.5327 101.264 65.952 101.379 66.2868 101.607C66.6248 101.833 66.8883 102.149 67.0772 102.557H67.1568C67.3523 102.162 67.6457 101.849 68.0368 101.617C68.4279 101.382 68.8968 101.264 69.4437 101.264C70.1265 101.264 70.685 101.478 71.1191 101.906C71.5533 102.33 71.7704 102.991 71.7704 103.889V109H70.5971V103.889C70.5971 103.326 70.443 102.923 70.1348 102.681C69.8265 102.439 69.4636 102.318 69.046 102.318C68.5091 102.318 68.0931 102.481 67.7981 102.805C67.5031 103.127 67.3556 103.535 67.3556 104.028V109H66.1625V103.77C66.1625 103.336 66.0216 102.986 65.7399 102.721C65.4582 102.452 65.0952 102.318 64.6511 102.318C64.3462 102.318 64.0611 102.399 63.796 102.562C63.5342 102.724 63.322 102.95 63.1596 103.238C63.0005 103.523 62.921 103.853 62.921 104.227V109H61.7477ZM73.9157 109V101.364H75.089V109H73.9157ZM74.5123 100.091C74.2836 100.091 74.0864 100.013 73.9206 99.8572C73.7582 99.7015 73.677 99.5142 73.677 99.2955C73.677 99.0767 73.7582 98.8894 73.9206 98.7337C74.0864 98.5779 74.2836 98.5 74.5123 98.5C74.7409 98.5 74.9365 98.5779 75.0989 98.7337C75.2646 98.8894 75.3475 99.0767 75.3475 99.2955C75.3475 99.5142 75.2646 99.7015 75.0989 99.8572C74.9365 100.013 74.7409 100.091 74.5123 100.091ZM78.4112 104.406V109H77.2379V101.364H78.3714V102.557H78.4709C78.6499 102.169 78.9216 101.857 79.2862 101.622C79.6508 101.384 80.1214 101.264 80.6982 101.264C81.2152 101.264 81.6676 101.37 82.0554 101.582C82.4432 101.791 82.7448 102.109 82.9602 102.537C83.1757 102.961 83.2834 103.498 83.2834 104.148V109H82.1101V104.227C82.1101 103.627 81.9543 103.16 81.6428 102.825C81.3312 102.487 80.9036 102.318 80.3601 102.318C79.9856 102.318 79.6508 102.399 79.3558 102.562C79.0642 102.724 78.8338 102.961 78.6648 103.273C78.4957 103.584 78.4112 103.962 78.4112 104.406ZM88.5098 112.023C87.943 112.023 87.4558 111.95 87.0481 111.804C86.6404 111.661 86.3007 111.473 86.0289 111.237C85.7605 111.005 85.5467 110.757 85.3876 110.491L86.3223 109.835C86.4283 109.974 86.5626 110.134 86.725 110.312C86.8874 110.495 87.1094 110.652 87.3912 110.785C87.6762 110.921 88.0491 110.989 88.5098 110.989C89.1262 110.989 89.635 110.839 90.036 110.541C90.4371 110.243 90.6376 109.776 90.6376 109.139V107.588H90.5382C90.452 107.727 90.3294 107.9 90.1703 108.105C90.0145 108.307 89.7891 108.488 89.4941 108.647C89.2025 108.803 88.8081 108.881 88.3109 108.881C87.6944 108.881 87.1409 108.735 86.6504 108.443C86.1632 108.152 85.777 107.727 85.492 107.17C85.2103 106.614 85.0694 105.937 85.0694 105.142C85.0694 104.36 85.207 103.679 85.4821 103.099C85.7572 102.515 86.14 102.065 86.6305 101.746C87.121 101.425 87.6878 101.264 88.3308 101.264C88.8279 101.264 89.2224 101.347 89.514 101.513C89.809 101.675 90.0344 101.861 90.1902 102.07C90.3493 102.275 90.4719 102.444 90.5581 102.577H90.6774V101.364H91.8109V109.219C91.8109 109.875 91.6618 110.409 91.3635 110.82C91.0685 111.234 90.6708 111.537 90.1703 111.729C89.6731 111.925 89.1196 112.023 88.5098 112.023ZM88.47 107.827C88.9406 107.827 89.3384 107.719 89.6632 107.504C89.988 107.288 90.2349 106.978 90.4039 106.574C90.573 106.17 90.6575 105.686 90.6575 105.122C90.6575 104.572 90.5746 104.086 90.4089 103.665C90.2432 103.245 89.9979 102.915 89.6731 102.676C89.3483 102.437 88.9473 102.318 88.47 102.318C87.9728 102.318 87.5585 102.444 87.2271 102.696C86.899 102.948 86.652 103.286 86.4863 103.71C86.3239 104.134 86.2427 104.605 86.2427 105.122C86.2427 105.652 86.3256 106.121 86.4913 106.529C86.6603 106.933 86.9089 107.252 87.237 107.484C87.5685 107.712 87.9795 107.827 88.47 107.827ZM103.305 103.074L102.251 103.372C102.185 103.196 102.087 103.026 101.958 102.86C101.832 102.691 101.66 102.552 101.441 102.442C101.222 102.333 100.942 102.278 100.601 102.278C100.133 102.278 99.7439 102.386 99.4324 102.602C99.1241 102.814 98.97 103.084 98.97 103.412C98.97 103.704 99.0761 103.934 99.2882 104.103C99.5003 104.272 99.8317 104.413 100.282 104.526L101.416 104.804C102.099 104.97 102.608 105.223 102.942 105.565C103.277 105.903 103.444 106.339 103.444 106.872C103.444 107.31 103.318 107.701 103.067 108.045C102.818 108.39 102.47 108.662 102.023 108.861C101.575 109.06 101.055 109.159 100.461 109.159C99.6826 109.159 99.0379 108.99 98.5275 108.652C98.0171 108.314 97.694 107.82 97.5581 107.17L98.6717 106.892C98.7778 107.303 98.9783 107.611 99.2733 107.817C99.5716 108.022 99.961 108.125 100.442 108.125C100.988 108.125 101.423 108.009 101.744 107.777C102.069 107.542 102.231 107.26 102.231 106.932C102.231 106.667 102.139 106.445 101.953 106.266C101.767 106.083 101.482 105.947 101.098 105.858L99.8251 105.56C99.1258 105.394 98.612 105.137 98.2839 104.789C97.9591 104.438 97.7967 103.999 97.7967 103.472C97.7967 103.041 97.9177 102.66 98.1596 102.328C98.4049 101.997 98.738 101.737 99.1589 101.548C99.5832 101.359 100.064 101.264 100.601 101.264C101.356 101.264 101.95 101.43 102.381 101.761C102.815 102.093 103.123 102.53 103.305 103.074ZM108.313 109.159C107.623 109.159 107.019 108.995 106.498 108.667C105.981 108.339 105.577 107.88 105.285 107.29C104.997 106.7 104.853 106.01 104.853 105.222C104.853 104.426 104.997 103.732 105.285 103.138C105.577 102.545 105.981 102.085 106.498 101.756C107.019 101.428 107.623 101.264 108.313 101.264C109.002 101.264 109.605 101.428 110.123 101.756C110.643 102.085 111.047 102.545 111.336 103.138C111.627 103.732 111.773 104.426 111.773 105.222C111.773 106.01 111.627 106.7 111.336 107.29C111.047 107.88 110.643 108.339 110.123 108.667C109.605 108.995 109.002 109.159 108.313 109.159ZM108.313 108.105C108.837 108.105 109.267 107.971 109.605 107.702C109.944 107.434 110.194 107.081 110.356 106.643C110.519 106.206 110.6 105.732 110.6 105.222C110.6 104.711 110.519 104.236 110.356 103.795C110.194 103.354 109.944 102.998 109.605 102.726C109.267 102.454 108.837 102.318 108.313 102.318C107.789 102.318 107.358 102.454 107.02 102.726C106.682 102.998 106.432 103.354 106.27 103.795C106.107 104.236 106.026 104.711 106.026 105.222C106.026 105.732 106.107 106.206 106.27 106.643C106.432 107.081 106.682 107.434 107.02 107.702C107.358 107.971 107.789 108.105 108.313 108.105ZM116.666 109.159C115.977 109.159 115.372 108.995 114.852 108.667C114.335 108.339 113.93 107.88 113.639 107.29C113.35 106.7 113.206 106.01 113.206 105.222C113.206 104.426 113.35 103.732 113.639 103.138C113.93 102.545 114.335 102.085 114.852 101.756C115.372 101.428 115.977 101.264 116.666 101.264C117.356 101.264 117.959 101.428 118.476 101.756C118.996 102.085 119.401 102.545 119.689 103.138C119.981 103.732 120.127 104.426 120.127 105.222C120.127 106.01 119.981 106.7 119.689 107.29C119.401 107.88 118.996 108.339 118.476 108.667C117.959 108.995 117.356 109.159 116.666 109.159ZM116.666 108.105C117.19 108.105 117.621 107.971 117.959 107.702C118.297 107.434 118.547 107.081 118.71 106.643C118.872 106.206 118.953 105.732 118.953 105.222C118.953 104.711 118.872 104.236 118.71 103.795C118.547 103.354 118.297 102.998 117.959 102.726C117.621 102.454 117.19 102.318 116.666 102.318C116.143 102.318 115.712 102.454 115.374 102.726C115.036 102.998 114.785 103.354 114.623 103.795C114.461 104.236 114.379 104.711 114.379 105.222C114.379 105.732 114.461 106.206 114.623 106.643C114.785 107.081 115.036 107.434 115.374 107.702C115.712 107.971 116.143 108.105 116.666 108.105ZM123.091 104.406V109H121.918V101.364H123.051V102.557H123.151C123.33 102.169 123.601 101.857 123.966 101.622C124.33 101.384 124.801 101.264 125.378 101.264C125.895 101.264 126.347 101.37 126.735 101.582C127.123 101.791 127.424 102.109 127.64 102.537C127.855 102.961 127.963 103.498 127.963 104.148V109H126.79V104.227C126.79 103.627 126.634 103.16 126.322 102.825C126.011 102.487 125.583 102.318 125.04 102.318C124.665 102.318 124.33 102.399 124.036 102.562C123.744 102.724 123.513 102.961 123.344 103.273C123.175 103.584 123.091 103.962 123.091 104.406ZM130.962 109.08C130.717 109.08 130.506 108.992 130.331 108.816C130.155 108.64 130.067 108.43 130.067 108.185C130.067 107.939 130.155 107.729 130.331 107.553C130.506 107.378 130.717 107.29 130.962 107.29C131.207 107.29 131.418 107.378 131.594 107.553C131.769 107.729 131.857 107.939 131.857 108.185C131.857 108.347 131.816 108.496 131.733 108.632C131.653 108.768 131.546 108.877 131.41 108.96C131.277 109.04 131.128 109.08 130.962 109.08ZM134.78 109.08C134.535 109.08 134.325 108.992 134.149 108.816C133.973 108.64 133.885 108.43 133.885 108.185C133.885 107.939 133.973 107.729 134.149 107.553C134.325 107.378 134.535 107.29 134.78 107.29C135.026 107.29 135.236 107.378 135.412 107.553C135.587 107.729 135.675 107.939 135.675 108.185C135.675 108.347 135.634 108.496 135.551 108.632C135.471 108.768 135.364 108.877 135.228 108.96C135.095 109.04 134.946 109.08 134.78 109.08ZM138.599 109.08C138.353 109.08 138.143 108.992 137.967 108.816C137.791 108.64 137.704 108.43 137.704 108.185C137.704 107.939 137.791 107.729 137.967 107.553C138.143 107.378 138.353 107.29 138.599 107.29C138.844 107.29 139.054 107.378 139.23 107.553C139.406 107.729 139.493 107.939 139.493 108.185C139.493 108.347 139.452 108.496 139.369 108.632C139.29 108.768 139.182 108.877 139.046 108.96C138.913 109.04 138.764 109.08 138.599 109.08Z" fill="white"/>
    </g>
    <line y1="75.75" x2="267" y2="75.75" stroke="white" stroke-width="0.5"/>
    <line x1="23.75" y1="210.5" x2="23.75" y2="35" stroke="white" stroke-width="0.5"/>
    <defs>
        <filter id="filter0_d_2_130" x="41.8295" y="40.0909" width="119.157" height="25.2415" filterUnits="userSpaceOnUse" color-interpolation-filters="sRGB">
            <feFlood flood-opacity="0" result="BackgroundImageFix"/>
            <feColorMatrix in="SourceAlpha" type="matrix" values="0 0 0 0 0 0 0 0 0 0 0 0 0 0 0 0 0 0 127 0" result="hardAlpha"/>
            <feOffset dy="3"/>
            <feGaussianBlur stdDeviation="1.5"/>
            <feComposite in2="hardAlpha" operator="out"/>
            <feColorMatrix type="matrix" values="0 0 0 0 0 0 0 0 0 0 0 0 0 0 0 0 0 0 0.160784 0"/>
            <feBlend mode="normal" in2="BackgroundImageFix" result="effect1_dropShadow_2_130"/>
            <feBlend mode="normal" in="SourceGraphic" in2="effect1_dropShadow_2_130" result="shape"/>
        </filter>
        <filter id="filter1_d_2_130" x="42.2159" y="98.5" width="100.278" height="19.5227" filterUnits="userSpaceOnUse" color-interpolation-filters="sRGB">
            <feFlood flood-opacity="0" result="BackgroundImageFix"/>
            <feColorMatrix in="SourceAlpha" type="matrix" values="0 0 0 0 0 0 0 0 0 0 0 0 0 0 0 0 0 0 127 0" result="hardAlpha"/>
            <feOffset dy="3"/>
            <feGaussianBlur stdDeviation="1.5"/>
            <feComposite in2="hardAlpha" operator="out"/>
            <feColorMatrix type="matrix" values="0 0 0 0 0 0 0 0 0 0 0 0 0 0 0 0 0 0 0.160784 0"/>
            <feBlend mode="normal" in2="BackgroundImageFix" result="effect1_dropShadow_2_130"/>
            <feBlend mode="normal" in="SourceGraphic" in2="effect1_dropShadow_2_130" result="shape"/>
        </filter>
    </defs>
</svg>
