<svg width="267" height="211" viewBox="0 0 267 211" fill="none" xmlns="http://www.w3.org/2000/svg">
    <g filter="url(#filter0_d_2_126)">
        <path d="M50.8494 59.2955C49.6676 59.2955 48.6243 58.9969 47.7195 58.3999C46.8146 57.7966 46.1068 56.9472 45.5959 55.8516C45.085 54.7498 44.8295 53.4479 44.8295 51.946C44.8295 50.4564 45.085 49.1638 45.5959 48.0682C46.1068 46.9725 46.8177 46.1262 47.7287 45.5291C48.6397 44.9321 49.6922 44.6335 50.8864 44.6335C51.8097 44.6335 52.5391 44.7874 53.0746 45.0952C53.6162 45.3968 54.0286 45.7415 54.3118 46.1293C54.6011 46.5109 54.8258 46.8248 54.9858 47.071H55.1705V40.0909H57.3494V59H55.2443V56.821H54.9858C54.8258 57.0795 54.598 57.4058 54.3026 57.7997C54.0071 58.1875 53.5855 58.5353 53.0376 58.843C52.4898 59.1446 51.7604 59.2955 50.8494 59.2955ZM51.1449 57.3381C52.0189 57.3381 52.7576 57.1103 53.3608 56.6548C53.964 56.1932 54.4226 55.5561 54.7365 54.7436C55.0504 53.925 55.2074 52.9801 55.2074 51.9091C55.2074 50.8504 55.0535 49.924 54.7457 49.13C54.438 48.3298 53.9825 47.7081 53.3793 47.2649C52.776 46.8156 52.0313 46.5909 51.1449 46.5909C50.2216 46.5909 49.4522 46.8279 48.8366 47.3018C48.2273 47.7696 47.7687 48.4067 47.4609 49.2131C47.1593 50.0133 47.0085 50.9119 47.0085 51.9091C47.0085 52.9186 47.1624 53.8357 47.4702 54.6605C47.7841 55.4792 48.2457 56.1316 48.8551 56.6179C49.4706 57.098 50.2339 57.3381 51.1449 57.3381ZM67.5888 59.2955C66.2223 59.2955 65.0436 58.9938 64.0526 58.3906C63.0677 57.7812 62.3075 56.9318 61.772 55.8423C61.2427 54.7467 60.978 53.4725 60.978 52.0199C60.978 50.5672 61.2427 49.2869 61.772 48.179C62.3075 47.0649 63.0523 46.197 64.0064 45.5753C64.9666 44.9474 66.0869 44.6335 67.3672 44.6335C68.1058 44.6335 68.8352 44.7566 69.5554 45.0028C70.2756 45.2491 70.9311 45.6491 71.522 46.2031C72.1129 46.7509 72.5838 47.4773 72.9347 48.3821C73.2855 49.2869 73.4609 50.401 73.4609 51.7244V52.6477H62.5291V50.7642H71.245C71.245 49.964 71.085 49.25 70.7649 48.6222C70.451 47.9943 70.0017 47.4988 69.4169 47.1357C68.8383 46.7725 68.1551 46.5909 67.3672 46.5909C66.4993 46.5909 65.7483 46.8063 65.1143 47.2372C64.4865 47.6619 64.0033 48.2159 63.6648 48.8991C63.3262 49.5824 63.157 50.3149 63.157 51.0966V52.3523C63.157 53.4233 63.3416 54.3312 63.7109 55.076C64.0864 55.8146 64.6065 56.3778 65.2713 56.7656C65.9361 57.1473 66.7086 57.3381 67.5888 57.3381C68.1612 57.3381 68.6783 57.258 69.1399 57.098C69.6077 56.9318 70.0109 56.6856 70.3494 56.3594C70.688 56.027 70.9496 55.6146 71.1342 55.1222L73.2393 55.7131C73.0178 56.4271 72.6454 57.0549 72.1222 57.5966C71.599 58.1321 70.9527 58.5507 70.1832 58.8523C69.4138 59.1477 68.549 59.2955 67.5888 59.2955ZM86.821 47.9943L84.8636 48.5483C84.7405 48.2221 84.5589 47.9051 84.3189 47.5973C84.085 47.2834 83.7649 47.0249 83.3587 46.8217C82.9524 46.6186 82.4323 46.517 81.7983 46.517C80.9304 46.517 80.2071 46.7171 79.6286 47.1172C79.0561 47.5111 78.7699 48.0128 78.7699 48.6222C78.7699 49.1638 78.9669 49.5916 79.3608 49.9055C79.7547 50.2195 80.3703 50.4811 81.2074 50.6903L83.3125 51.2074C84.5805 51.5152 85.5253 51.986 86.147 52.62C86.7687 53.2479 87.0795 54.0573 87.0795 55.0483C87.0795 55.8608 86.8456 56.5871 86.3778 57.2273C85.9162 57.8674 85.2699 58.3722 84.4389 58.7415C83.608 59.1108 82.6416 59.2955 81.5398 59.2955C80.0933 59.2955 78.8961 58.9815 77.9482 58.3537C77.0002 57.7259 76.4001 56.8087 76.1477 55.6023L78.2159 55.0852C78.4129 55.8485 78.7853 56.4209 79.3331 56.8026C79.8871 57.1842 80.6103 57.375 81.5028 57.375C82.5185 57.375 83.3248 57.1596 83.9219 56.7287C84.5251 56.2917 84.8267 55.7685 84.8267 55.1591C84.8267 54.6667 84.6544 54.2543 84.3097 53.9219C83.965 53.5833 83.4356 53.331 82.7216 53.1648L80.358 52.6108C79.0592 52.303 78.1051 51.826 77.4957 51.1797C76.8925 50.5272 76.5909 49.7116 76.5909 48.733C76.5909 47.9328 76.8156 47.2249 77.2649 46.6094C77.7204 45.9938 78.339 45.5107 79.1207 45.1598C79.9086 44.8089 80.8011 44.6335 81.7983 44.6335C83.2017 44.6335 84.3035 44.9413 85.1037 45.5568C85.91 46.1723 86.4825 46.9848 86.821 47.9943ZM90.3596 59V44.8182H92.5385V59H90.3596ZM91.4675 42.4545C91.0428 42.4545 90.6766 42.3099 90.3688 42.0206C90.0672 41.7313 89.9164 41.3835 89.9164 40.9773C89.9164 40.571 90.0672 40.2232 90.3688 39.9339C90.6766 39.6446 91.0428 39.5 91.4675 39.5C91.8922 39.5 92.2554 39.6446 92.557 39.9339C92.8648 40.2232 93.0186 40.571 93.0186 40.9773C93.0186 41.3835 92.8648 41.7313 92.557 42.0206C92.2554 42.3099 91.8922 42.4545 91.4675 42.4545ZM102.254 64.6136C101.201 64.6136 100.297 64.4782 99.5394 64.2074C98.7823 63.9427 98.1514 63.5919 97.6467 63.1548C97.1481 62.724 96.7511 62.2623 96.4556 61.7699L98.1914 60.5511C98.3884 60.8097 98.6377 61.1051 98.9393 61.4375C99.2409 61.776 99.6533 62.0684 100.176 62.3146C100.706 62.567 101.398 62.6932 102.254 62.6932C103.399 62.6932 104.344 62.4162 105.088 61.8622C105.833 61.3082 106.206 60.4403 106.206 59.2585V56.3778H106.021C105.861 56.6364 105.633 56.9564 105.338 57.3381C105.048 57.7135 104.63 58.049 104.082 58.3445C103.54 58.6338 102.808 58.7784 101.885 58.7784C100.74 58.7784 99.7118 58.5076 98.8008 57.9659C97.896 57.4242 97.1789 56.6364 96.6495 55.6023C96.1263 54.5682 95.8647 53.3125 95.8647 51.8352C95.8647 50.3826 96.1201 49.1177 96.631 48.0405C97.1419 46.9571 97.8529 46.12 98.7638 45.5291C99.6748 44.9321 100.727 44.6335 101.922 44.6335C102.845 44.6335 103.577 44.7874 104.119 45.0952C104.667 45.3968 105.085 45.7415 105.375 46.1293C105.67 46.5109 105.898 46.8248 106.058 47.071H106.279V44.8182H108.385V59.4062C108.385 60.625 108.108 61.616 107.554 62.3793C107.006 63.1487 106.267 63.7119 105.338 64.0689C104.414 64.4321 103.386 64.6136 102.254 64.6136ZM102.18 56.821C103.054 56.821 103.793 56.621 104.396 56.2209C104.999 55.8208 105.458 55.2453 105.772 54.4943C106.086 53.7434 106.243 52.8447 106.243 51.7983C106.243 50.7765 106.089 49.8748 105.781 49.093C105.473 48.3113 105.018 47.6989 104.414 47.2557C103.811 46.8125 103.066 46.5909 102.18 46.5909C101.257 46.5909 100.487 46.8248 99.8718 47.2926C99.2624 47.7604 98.8039 48.3883 98.4961 49.1761C98.1945 49.964 98.0437 50.8381 98.0437 51.7983C98.0437 52.7831 98.1976 53.6541 98.5053 54.4112C98.8192 55.1622 99.2809 55.7531 99.8903 56.1839C100.506 56.6087 101.269 56.821 102.18 56.821ZM114.552 50.4688V59H112.373V44.8182H114.478V47.0341H114.663C114.995 46.3139 115.5 45.7353 116.177 45.2983C116.854 44.8551 117.728 44.6335 118.799 44.6335C119.76 44.6335 120.6 44.8305 121.32 45.2244C122.04 45.6122 122.6 46.2031 123 46.9972C123.4 47.785 123.6 48.7822 123.6 49.9886V59H121.422V50.1364C121.422 49.0223 121.132 48.1544 120.554 47.5327C119.975 46.9048 119.181 46.5909 118.172 46.5909C117.476 46.5909 116.854 46.7417 116.306 47.0433C115.765 47.3449 115.337 47.785 115.023 48.3636C114.709 48.9422 114.552 49.6439 114.552 50.4688Z" fill="white"/>
    </g>
    <g filter="url(#filter1_d_2_126)">
        <path d="M47.821 109.179C47.3371 109.179 46.898 109.088 46.5036 108.906C46.1091 108.72 45.7959 108.453 45.5639 108.105C45.3319 107.754 45.2159 107.33 45.2159 106.832C45.2159 106.395 45.3021 106.04 45.4744 105.768C45.6468 105.493 45.8771 105.278 46.1655 105.122C46.4538 104.966 46.772 104.85 47.12 104.774C47.4714 104.695 47.8243 104.632 48.179 104.585C48.643 104.526 49.0192 104.481 49.3075 104.451C49.5992 104.418 49.8113 104.363 49.9439 104.287C50.0798 104.211 50.1477 104.078 50.1477 103.889V103.849C50.1477 103.359 50.0135 102.978 49.745 102.706C49.4799 102.434 49.0772 102.298 48.5369 102.298C47.9768 102.298 47.5376 102.421 47.2195 102.666C46.9013 102.911 46.6776 103.173 46.5483 103.452L45.4347 103.054C45.6335 102.59 45.8987 102.229 46.2301 101.97C46.5649 101.708 46.9295 101.526 47.3239 101.423C47.7216 101.317 48.1127 101.264 48.4972 101.264C48.7424 101.264 49.0241 101.294 49.3423 101.354C49.6638 101.41 49.9737 101.528 50.272 101.707C50.5736 101.886 50.8239 102.156 51.0227 102.517C51.2216 102.878 51.321 103.362 51.321 103.969V109H50.1477V107.966H50.0881C50.0085 108.132 49.8759 108.309 49.6903 108.498C49.5047 108.687 49.2578 108.848 48.9496 108.98C48.6413 109.113 48.2652 109.179 47.821 109.179ZM48 108.125C48.464 108.125 48.8551 108.034 49.1733 107.852C49.4948 107.669 49.7367 107.434 49.8991 107.146C50.0649 106.857 50.1477 106.554 50.1477 106.236V105.162C50.098 105.222 49.9886 105.276 49.8196 105.326C49.6539 105.372 49.4616 105.414 49.2429 105.45C49.0275 105.483 48.817 105.513 48.6115 105.54C48.4093 105.563 48.2453 105.583 48.1193 105.599C47.8144 105.639 47.5294 105.704 47.2642 105.793C47.0024 105.879 46.7902 106.01 46.6278 106.186C46.4688 106.358 46.3892 106.594 46.3892 106.892C46.3892 107.3 46.54 107.608 46.8416 107.817C47.1465 108.022 47.5327 108.125 48 108.125ZM53.4625 109V101.364H54.5961V102.517H54.6756C54.8148 102.139 55.0667 101.833 55.4313 101.597C55.7959 101.362 56.2069 101.244 56.6642 101.244C56.7504 101.244 56.8581 101.246 56.9874 101.249C57.1167 101.253 57.2144 101.258 57.2807 101.264V102.457C57.2409 102.447 57.1498 102.433 57.0073 102.413C56.8681 102.389 56.7206 102.378 56.5648 102.378C56.1936 102.378 55.8622 102.456 55.5705 102.612C55.2821 102.764 55.0534 102.976 54.8844 103.248C54.7187 103.516 54.6358 103.823 54.6358 104.168V109H53.4625ZM62.4711 101.364V102.358H58.5137V101.364H62.4711ZM59.6671 99.5341H60.8404V106.812C60.8404 107.144 60.8884 107.393 60.9846 107.558C61.084 107.721 61.2099 107.83 61.3624 107.886C61.5182 107.939 61.6822 107.966 61.8546 107.966C61.9838 107.966 62.0899 107.959 62.1728 107.946C62.2556 107.929 62.3219 107.916 62.3716 107.906L62.6103 108.96C62.5307 108.99 62.4197 109.02 62.2772 109.05C62.1346 109.083 61.954 109.099 61.7353 109.099C61.4038 109.099 61.079 109.028 60.7608 108.886C60.446 108.743 60.1841 108.526 59.9753 108.234C59.7698 107.943 59.6671 107.575 59.6671 107.131V99.5341ZM71.057 109.159C70.4206 109.159 69.8588 108.998 69.3716 108.677C68.8844 108.352 68.5033 107.895 68.2282 107.305C67.9531 106.711 67.8155 106.01 67.8155 105.202C67.8155 104.4 67.9531 103.704 68.2282 103.114C68.5033 102.524 68.8861 102.068 69.3766 101.746C69.8671 101.425 70.4339 101.264 71.0769 101.264C71.574 101.264 71.9668 101.347 72.2551 101.513C72.5468 101.675 72.7689 101.861 72.9213 102.07C73.0771 102.275 73.1981 102.444 73.2843 102.577H73.3837V98.8182H74.557V109H73.4235V107.827H73.2843C73.1981 107.966 73.0755 108.142 72.9164 108.354C72.7573 108.562 72.5302 108.75 72.2353 108.915C71.9403 109.078 71.5475 109.159 71.057 109.159ZM71.2161 108.105C71.6867 108.105 72.0845 107.982 72.4093 107.737C72.7341 107.489 72.981 107.146 73.15 106.708C73.3191 106.267 73.4036 105.759 73.4036 105.182C73.4036 104.612 73.3207 104.113 73.155 103.685C72.9893 103.254 72.744 102.92 72.4192 102.681C72.0944 102.439 71.6934 102.318 71.2161 102.318C70.7189 102.318 70.3046 102.446 69.9732 102.701C69.6451 102.953 69.3981 103.296 69.2324 103.73C69.07 104.161 68.9888 104.645 68.9888 105.182C68.9888 105.725 69.0717 106.219 69.2374 106.663C69.4064 107.104 69.655 107.455 69.9831 107.717C70.3146 107.976 70.7256 108.105 71.2161 108.105ZM76.8688 109V101.364H78.0421V109H76.8688ZM77.4654 100.091C77.2367 100.091 77.0395 100.013 76.8738 99.8572C76.7114 99.7015 76.6301 99.5142 76.6301 99.2955C76.6301 99.0767 76.7114 98.8894 76.8738 98.7337C77.0395 98.5779 77.2367 98.5 77.4654 98.5C77.6941 98.5 77.8896 98.5779 78.052 98.7337C78.2177 98.8894 78.3006 99.0767 78.3006 99.2955C78.3006 99.5142 78.2177 99.7015 78.052 99.8572C77.8896 100.013 77.6941 100.091 77.4654 100.091ZM80.1911 109V101.364H81.3246V102.517H81.4041C81.5433 102.139 81.7952 101.833 82.1598 101.597C82.5244 101.362 82.9354 101.244 83.3928 101.244C83.4789 101.244 83.5866 101.246 83.7159 101.249C83.8452 101.253 83.9429 101.258 84.0092 101.264V102.457C83.9695 102.447 83.8783 102.433 83.7358 102.413C83.5966 102.389 83.4491 102.378 83.2933 102.378C82.9221 102.378 82.5907 102.456 82.299 102.612C82.0107 102.764 81.782 102.976 81.6129 103.248C81.4472 103.516 81.3643 103.823 81.3643 104.168V109H80.1911ZM88.3693 109.159C87.6335 109.159 86.9988 108.997 86.4652 108.672C85.9349 108.344 85.5256 107.886 85.2372 107.3C84.9522 106.71 84.8097 106.024 84.8097 105.241C84.8097 104.459 84.9522 103.77 85.2372 103.173C85.5256 102.573 85.9266 102.106 86.4403 101.771C86.9574 101.433 87.5606 101.264 88.25 101.264C88.6477 101.264 89.0405 101.33 89.4283 101.463C89.8161 101.596 90.169 101.811 90.4872 102.109C90.8054 102.404 91.0589 102.795 91.2479 103.283C91.4368 103.77 91.5312 104.37 91.5312 105.082V105.58H85.6449V104.565H90.3381C90.3381 104.134 90.2519 103.75 90.0795 103.412C89.9105 103.074 89.6686 102.807 89.3537 102.612C89.0421 102.416 88.6742 102.318 88.25 102.318C87.7827 102.318 87.3783 102.434 87.0369 102.666C86.6989 102.895 86.4387 103.193 86.2564 103.561C86.0741 103.929 85.983 104.323 85.983 104.744V105.42C85.983 105.997 86.0824 106.486 86.2812 106.887C86.4834 107.285 86.7635 107.588 87.1214 107.797C87.4794 108.002 87.8954 108.105 88.3693 108.105C88.6776 108.105 88.956 108.062 89.2045 107.976C89.4564 107.886 89.6735 107.754 89.8558 107.578C90.0381 107.399 90.179 107.177 90.2784 106.912L91.4119 107.23C91.2926 107.615 91.0921 107.953 90.8104 108.244C90.5286 108.533 90.1806 108.758 89.7663 108.92C89.352 109.08 88.8864 109.159 88.3693 109.159ZM96.4183 109.159C95.7024 109.159 95.0859 108.99 94.5689 108.652C94.0518 108.314 93.6541 107.848 93.3757 107.255C93.0973 106.662 92.9581 105.984 92.9581 105.222C92.9581 104.446 93.1006 103.762 93.3857 103.168C93.674 102.572 94.075 102.106 94.5888 101.771C95.1058 101.433 95.709 101.264 96.3984 101.264C96.9354 101.264 97.4193 101.364 97.8501 101.562C98.281 101.761 98.634 102.04 98.9091 102.398C99.1842 102.756 99.3549 103.173 99.4212 103.651H98.2479C98.1584 103.303 97.9595 102.994 97.6513 102.726C97.3464 102.454 96.9354 102.318 96.4183 102.318C95.9609 102.318 95.5599 102.437 95.2152 102.676C94.8738 102.911 94.607 103.245 94.4148 103.675C94.2259 104.103 94.1314 104.605 94.1314 105.182C94.1314 105.772 94.2242 106.286 94.4098 106.723C94.5987 107.161 94.8639 107.5 95.2053 107.742C95.55 107.984 95.9543 108.105 96.4183 108.105C96.7232 108.105 97 108.052 97.2486 107.946C97.4972 107.84 97.7076 107.688 97.88 107.489C98.0523 107.29 98.175 107.051 98.2479 106.773H99.4212C99.3549 107.223 99.1908 107.629 98.929 107.991C98.6705 108.349 98.3274 108.634 97.8999 108.846C97.4756 109.055 96.9818 109.159 96.4183 109.159ZM104.457 101.364V102.358H100.5V101.364H104.457ZM101.653 99.5341H102.827V106.812C102.827 107.144 102.875 107.393 102.971 107.558C103.07 107.721 103.196 107.83 103.349 107.886C103.504 107.939 103.669 107.966 103.841 107.966C103.97 107.966 104.076 107.959 104.159 107.946C104.242 107.929 104.308 107.916 104.358 107.906L104.597 108.96C104.517 108.99 104.406 109.02 104.263 109.05C104.121 109.083 103.94 109.099 103.722 109.099C103.39 109.099 103.065 109.028 102.747 108.886C102.432 108.743 102.17 108.526 101.962 108.234C101.756 107.943 101.653 107.575 101.653 107.131V99.5341ZM106.222 109V101.364H107.396V109H106.222ZM106.819 100.091C106.59 100.091 106.393 100.013 106.227 99.8572C106.065 99.7015 105.984 99.5142 105.984 99.2955C105.984 99.0767 106.065 98.8894 106.227 98.7337C106.393 98.5779 106.59 98.5 106.819 98.5C107.048 98.5 107.243 98.5779 107.406 98.7337C107.571 98.8894 107.654 99.0767 107.654 99.2955C107.654 99.5142 107.571 99.7015 107.406 99.8572C107.243 100.013 107.048 100.091 106.819 100.091ZM112.647 109.159C111.957 109.159 111.353 108.995 110.832 108.667C110.315 108.339 109.911 107.88 109.619 107.29C109.331 106.7 109.187 106.01 109.187 105.222C109.187 104.426 109.331 103.732 109.619 103.138C109.911 102.545 110.315 102.085 110.832 101.756C111.353 101.428 111.957 101.264 112.647 101.264C113.336 101.264 113.939 101.428 114.456 101.756C114.977 102.085 115.381 102.545 115.67 103.138C115.961 103.732 116.107 104.426 116.107 105.222C116.107 106.01 115.961 106.7 115.67 107.29C115.381 107.88 114.977 108.339 114.456 108.667C113.939 108.995 113.336 109.159 112.647 109.159ZM112.647 108.105C113.171 108.105 113.601 107.971 113.939 107.702C114.278 107.434 114.528 107.081 114.69 106.643C114.853 106.206 114.934 105.732 114.934 105.222C114.934 104.711 114.853 104.236 114.69 103.795C114.528 103.354 114.278 102.998 113.939 102.726C113.601 102.454 113.171 102.318 112.647 102.318C112.123 102.318 111.692 102.454 111.354 102.726C111.016 102.998 110.766 103.354 110.604 103.795C110.441 104.236 110.36 104.711 110.36 105.222C110.36 105.732 110.441 106.206 110.604 106.643C110.766 107.081 111.016 107.434 111.354 107.702C111.692 107.971 112.123 108.105 112.647 108.105ZM119.071 104.406V109H117.898V101.364H119.032V102.557H119.131C119.31 102.169 119.582 101.857 119.946 101.622C120.311 101.384 120.782 101.264 121.358 101.264C121.875 101.264 122.328 101.37 122.716 101.582C123.103 101.791 123.405 102.109 123.62 102.537C123.836 102.961 123.944 103.498 123.944 104.148V109H122.77V104.227C122.77 103.627 122.614 103.16 122.303 102.825C121.991 102.487 121.564 102.318 121.02 102.318C120.646 102.318 120.311 102.399 120.016 102.562C119.724 102.724 119.494 102.961 119.325 103.273C119.156 103.584 119.071 103.962 119.071 104.406ZM48.6562 132.023C48.0895 132.023 47.6023 131.95 47.1946 131.804C46.7869 131.661 46.4472 131.473 46.1754 131.237C45.907 131.005 45.6932 130.757 45.5341 130.491L46.4688 129.835C46.5748 129.974 46.709 130.134 46.8714 130.312C47.0339 130.495 47.2559 130.652 47.5376 130.785C47.8227 130.921 48.1955 130.989 48.6562 130.989C49.2727 130.989 49.7815 130.839 50.1825 130.541C50.5836 130.243 50.7841 129.776 50.7841 129.139V127.588H50.6847C50.5985 127.727 50.4759 127.9 50.3168 128.105C50.161 128.307 49.9356 128.488 49.6406 128.647C49.349 128.803 48.9545 128.881 48.4574 128.881C47.8409 128.881 47.2874 128.735 46.7969 128.443C46.3097 128.152 45.9235 127.727 45.6385 127.17C45.3568 126.614 45.2159 125.937 45.2159 125.142C45.2159 124.36 45.3535 123.679 45.6286 123.099C45.9036 122.515 46.2865 122.065 46.777 121.746C47.2675 121.425 47.8343 121.264 48.4773 121.264C48.9744 121.264 49.3688 121.347 49.6605 121.513C49.9555 121.675 50.1809 121.861 50.3366 122.07C50.4957 122.275 50.6184 122.444 50.7045 122.577H50.8239V121.364H51.9574V129.219C51.9574 129.875 51.8082 130.409 51.5099 130.82C51.215 131.234 50.8172 131.537 50.3168 131.729C49.8196 131.925 49.2661 132.023 48.6562 132.023ZM48.6165 127.827C49.0871 127.827 49.4848 127.719 49.8097 127.504C50.1345 127.288 50.3814 126.978 50.5504 126.574C50.7195 126.17 50.804 125.686 50.804 125.122C50.804 124.572 50.7211 124.086 50.5554 123.665C50.3897 123.245 50.1444 122.915 49.8196 122.676C49.4948 122.437 49.0938 122.318 48.6165 122.318C48.1193 122.318 47.705 122.444 47.3736 122.696C47.0455 122.948 46.7985 123.286 46.6328 123.71C46.4704 124.134 46.3892 124.605 46.3892 125.122C46.3892 125.652 46.4721 126.121 46.6378 126.529C46.8068 126.933 47.0554 127.252 47.3835 127.484C47.715 127.712 48.1259 127.827 48.6165 127.827ZM54.1051 129V121.364H55.2386V122.517H55.3182C55.4574 122.139 55.7093 121.833 56.0739 121.597C56.4384 121.362 56.8494 121.244 57.3068 121.244C57.393 121.244 57.5007 121.246 57.63 121.249C57.7592 121.253 57.857 121.258 57.9233 121.264V122.457C57.8835 122.447 57.7924 122.433 57.6499 122.413C57.5107 122.389 57.3632 122.378 57.2074 122.378C56.8362 122.378 56.5047 122.456 56.2131 122.612C55.9247 122.764 55.696 122.976 55.527 123.248C55.3613 123.516 55.2784 123.823 55.2784 124.168V129H54.1051ZM61.5613 129.179C61.0774 129.179 60.6382 129.088 60.2438 128.906C59.8494 128.72 59.5362 128.453 59.3042 128.105C59.0721 127.754 58.9561 127.33 58.9561 126.832C58.9561 126.395 59.0423 126.04 59.2147 125.768C59.387 125.493 59.6174 125.278 59.9057 125.122C60.1941 124.966 60.5123 124.85 60.8603 124.774C61.2116 124.695 61.5646 124.632 61.9192 124.585C62.3832 124.526 62.7594 124.481 63.0478 124.451C63.3394 124.418 63.5516 124.363 63.6841 124.287C63.82 124.211 63.888 124.078 63.888 123.889V123.849C63.888 123.359 63.7537 122.978 63.4853 122.706C63.2201 122.434 62.8174 122.298 62.2772 122.298C61.717 122.298 61.2779 122.421 60.9597 122.666C60.6415 122.911 60.4178 123.173 60.2885 123.452L59.1749 123.054C59.3738 122.59 59.6389 122.229 59.9703 121.97C60.3051 121.708 60.6697 121.526 61.0641 121.423C61.4618 121.317 61.8529 121.264 62.2374 121.264C62.4827 121.264 62.7644 121.294 63.0826 121.354C63.4041 121.41 63.714 121.528 64.0123 121.707C64.3139 121.886 64.5641 122.156 64.763 122.517C64.9618 122.878 65.0613 123.362 65.0613 123.969V129H63.888V127.966H63.8283C63.7488 128.132 63.6162 128.309 63.4306 128.498C63.245 128.687 62.998 128.848 62.6898 128.98C62.3816 129.113 62.0054 129.179 61.5613 129.179ZM61.7402 128.125C62.2042 128.125 62.5953 128.034 62.9135 127.852C63.235 127.669 63.477 127.434 63.6394 127.146C63.8051 126.857 63.888 126.554 63.888 126.236V125.162C63.8382 125.222 63.7289 125.276 63.5598 125.326C63.3941 125.372 63.2019 125.414 62.9831 125.45C62.7677 125.483 62.5572 125.513 62.3517 125.54C62.1496 125.563 61.9855 125.583 61.8596 125.599C61.5546 125.639 61.2696 125.704 61.0044 125.793C60.7426 125.879 60.5305 126.01 60.3681 126.186C60.209 126.358 60.1294 126.594 60.1294 126.892C60.1294 127.3 60.2802 127.608 60.5819 127.817C60.8868 128.022 61.2729 128.125 61.7402 128.125ZM67.2028 131.864V121.364H68.3363V122.577H68.4755C68.5617 122.444 68.681 122.275 68.8335 122.07C68.9892 121.861 69.2113 121.675 69.4996 121.513C69.7913 121.347 70.1857 121.264 70.6829 121.264C71.3259 121.264 71.8926 121.425 72.3832 121.746C72.8737 122.068 73.2565 122.524 73.5316 123.114C73.8067 123.704 73.9442 124.4 73.9442 125.202C73.9442 126.01 73.8067 126.711 73.5316 127.305C73.2565 127.895 72.8754 128.352 72.3881 128.677C71.9009 128.998 71.3391 129.159 70.7028 129.159C70.2122 129.159 69.8195 129.078 69.5245 128.915C69.2295 128.75 69.0025 128.562 68.8434 128.354C68.6843 128.142 68.5617 127.966 68.4755 127.827H68.3761V131.864H67.2028ZM68.3562 125.182C68.3562 125.759 68.4407 126.267 68.6097 126.708C68.7788 127.146 69.0257 127.489 69.3505 127.737C69.6753 127.982 70.073 128.105 70.5437 128.105C71.0342 128.105 71.4435 127.976 71.7717 127.717C72.1031 127.455 72.3517 127.104 72.5174 126.663C72.6864 126.219 72.771 125.725 72.771 125.182C72.771 124.645 72.6881 124.161 72.5224 123.73C72.36 123.296 72.113 122.953 71.7816 122.701C71.4535 122.446 71.0408 122.318 70.5437 122.318C70.0664 122.318 69.6654 122.439 69.3406 122.681C69.0157 122.92 68.7705 123.254 68.6048 123.685C68.439 124.113 68.3562 124.612 68.3562 125.182ZM76.9073 124.406V129H75.734V118.818H76.9073V122.557H77.0067C77.1857 122.162 77.4542 121.849 77.8121 121.617C78.1734 121.382 78.654 121.264 79.2539 121.264C79.7743 121.264 80.23 121.369 80.6211 121.577C81.0122 121.783 81.3155 122.099 81.5309 122.527C81.7496 122.951 81.859 123.491 81.859 124.148V129H80.6857V124.227C80.6857 123.621 80.5283 123.152 80.2134 122.82C79.9019 122.486 79.4693 122.318 78.9158 122.318C78.5314 122.318 78.1867 122.399 77.8817 122.562C77.5801 122.724 77.3415 122.961 77.1658 123.273C76.9935 123.584 76.9073 123.962 76.9073 124.406ZM84.0055 129V121.364H85.1788V129H84.0055ZM84.6021 120.091C84.3734 120.091 84.1762 120.013 84.0105 119.857C83.8481 119.701 83.7669 119.514 83.7669 119.295C83.7669 119.077 83.8481 118.889 84.0105 118.734C84.1762 118.578 84.3734 118.5 84.6021 118.5C84.8308 118.5 85.0263 118.578 85.1887 118.734C85.3545 118.889 85.4373 119.077 85.4373 119.295C85.4373 119.514 85.3545 119.701 85.1887 119.857C85.0263 120.013 84.8308 120.091 84.6021 120.091ZM90.43 129.159C89.7141 129.159 89.0977 128.99 88.5806 128.652C88.0636 128.314 87.6658 127.848 87.3874 127.255C87.109 126.662 86.9698 125.984 86.9698 125.222C86.9698 124.446 87.1123 123.762 87.3974 123.168C87.6857 122.572 88.0868 122.106 88.6005 121.771C89.1175 121.433 89.7208 121.264 90.4102 121.264C90.9471 121.264 91.431 121.364 91.8619 121.562C92.2927 121.761 92.6457 122.04 92.9208 122.398C93.1959 122.756 93.3666 123.173 93.4329 123.651H92.2596C92.1701 123.303 91.9712 122.994 91.663 122.726C91.3581 122.454 90.9471 122.318 90.43 122.318C89.9727 122.318 89.5716 122.437 89.2269 122.676C88.8855 122.911 88.6187 123.245 88.4265 123.675C88.2376 124.103 88.1431 124.605 88.1431 125.182C88.1431 125.772 88.2359 126.286 88.4215 126.723C88.6104 127.161 88.8756 127.5 89.217 127.742C89.5617 127.984 89.966 128.105 90.43 128.105C90.735 128.105 91.0117 128.052 91.2603 127.946C91.5089 127.84 91.7193 127.688 91.8917 127.489C92.064 127.29 92.1867 127.051 92.2596 126.773H93.4329C93.3666 127.223 93.2025 127.629 92.9407 127.991C92.6822 128.349 92.3391 128.634 91.9116 128.846C91.4873 129.055 90.9935 129.159 90.43 129.159ZM101.969 129.159C101.333 129.159 100.771 128.998 100.284 128.677C99.7965 128.352 99.4154 127.895 99.1403 127.305C98.8652 126.711 98.7276 126.01 98.7276 125.202C98.7276 124.4 98.8652 123.704 99.1403 123.114C99.4154 122.524 99.7982 122.068 100.289 121.746C100.779 121.425 101.346 121.264 101.989 121.264C102.486 121.264 102.879 121.347 103.167 121.513C103.459 121.675 103.681 121.861 103.833 122.07C103.989 122.275 104.11 122.444 104.196 122.577H104.296V118.818H105.469V129H104.336V127.827H104.196C104.11 127.966 103.988 128.142 103.828 128.354C103.669 128.562 103.442 128.75 103.147 128.915C102.852 129.078 102.46 129.159 101.969 129.159ZM102.128 128.105C102.599 128.105 102.997 127.982 103.321 127.737C103.646 127.489 103.893 127.146 104.062 126.708C104.231 126.267 104.316 125.759 104.316 125.182C104.316 124.612 104.233 124.113 104.067 123.685C103.901 123.254 103.656 122.92 103.331 122.681C103.007 122.439 102.605 122.318 102.128 122.318C101.631 122.318 101.217 122.446 100.885 122.701C100.557 122.953 100.31 123.296 100.145 123.73C99.9821 124.161 99.9009 124.645 99.9009 125.182C99.9009 125.725 99.9838 126.219 100.15 126.663C100.319 127.104 100.567 127.455 100.895 127.717C101.227 127.976 101.638 128.105 102.128 128.105ZM110.983 129.159C110.247 129.159 109.612 128.997 109.078 128.672C108.548 128.344 108.139 127.886 107.85 127.3C107.565 126.71 107.423 126.024 107.423 125.241C107.423 124.459 107.565 123.77 107.85 123.173C108.139 122.573 108.54 122.106 109.054 121.771C109.571 121.433 110.174 121.264 110.863 121.264C111.261 121.264 111.654 121.33 112.042 121.463C112.429 121.596 112.782 121.811 113.1 122.109C113.419 122.404 113.672 122.795 113.861 123.283C114.05 123.77 114.145 124.37 114.145 125.082V125.58H108.258V124.565H112.951C112.951 124.134 112.865 123.75 112.693 123.412C112.524 123.074 112.282 122.807 111.967 122.612C111.655 122.416 111.288 122.318 110.863 122.318C110.396 122.318 109.992 122.434 109.65 122.666C109.312 122.895 109.052 123.193 108.87 123.561C108.687 123.929 108.596 124.323 108.596 124.744V125.42C108.596 125.997 108.696 126.486 108.895 126.887C109.097 127.285 109.377 127.588 109.735 127.797C110.093 128.002 110.509 128.105 110.983 128.105C111.291 128.105 111.569 128.062 111.818 127.976C112.07 127.886 112.287 127.754 112.469 127.578C112.651 127.399 112.792 127.177 112.892 126.912L114.025 127.23C113.906 127.615 113.705 127.953 113.424 128.244C113.142 128.533 112.794 128.758 112.38 128.92C111.965 129.08 111.5 129.159 110.983 129.159ZM121.338 123.074L120.284 123.372C120.218 123.196 120.12 123.026 119.991 122.86C119.865 122.691 119.693 122.552 119.474 122.442C119.255 122.333 118.975 122.278 118.634 122.278C118.167 122.278 117.777 122.386 117.466 122.602C117.157 122.814 117.003 123.084 117.003 123.412C117.003 123.704 117.109 123.934 117.321 124.103C117.533 124.272 117.865 124.413 118.316 124.526L119.449 124.804C120.132 124.97 120.641 125.223 120.975 125.565C121.31 125.903 121.478 126.339 121.478 126.872C121.478 127.31 121.352 127.701 121.1 128.045C120.851 128.39 120.503 128.662 120.056 128.861C119.608 129.06 119.088 129.159 118.495 129.159C117.716 129.159 117.071 128.99 116.561 128.652C116.05 128.314 115.727 127.82 115.591 127.17L116.705 126.892C116.811 127.303 117.011 127.611 117.306 127.817C117.605 128.022 117.994 128.125 118.475 128.125C119.022 128.125 119.456 128.009 119.777 127.777C120.102 127.542 120.265 127.26 120.265 126.932C120.265 126.667 120.172 126.445 119.986 126.266C119.801 126.083 119.516 125.947 119.131 125.858L117.858 125.56C117.159 125.394 116.645 125.137 116.317 124.789C115.992 124.438 115.83 123.999 115.83 123.472C115.83 123.041 115.951 122.66 116.193 122.328C116.438 121.997 116.771 121.737 117.192 121.548C117.616 121.359 118.097 121.264 118.634 121.264C119.39 121.264 119.983 121.43 120.414 121.761C120.848 122.093 121.156 122.53 121.338 123.074ZM123.244 129V121.364H124.417V129H123.244ZM123.84 120.091C123.612 120.091 123.414 120.013 123.249 119.857C123.086 119.701 123.005 119.514 123.005 119.295C123.005 119.077 123.086 118.889 123.249 118.734C123.414 118.578 123.612 118.5 123.84 118.5C124.069 118.5 124.265 118.578 124.427 118.734C124.593 118.889 124.676 119.077 124.676 119.295C124.676 119.514 124.593 119.701 124.427 119.857C124.265 120.013 124.069 120.091 123.84 120.091ZM129.648 132.023C129.082 132.023 128.594 131.95 128.187 131.804C127.779 131.661 127.439 131.473 127.168 131.237C126.899 131.005 126.685 130.757 126.526 130.491L127.461 129.835C127.567 129.974 127.701 130.134 127.864 130.312C128.026 130.495 128.248 130.652 128.53 130.785C128.815 130.921 129.188 130.989 129.648 130.989C130.265 130.989 130.774 130.839 131.175 130.541C131.576 130.243 131.776 129.776 131.776 129.139V127.588H131.677C131.591 127.727 131.468 127.9 131.309 128.105C131.153 128.307 130.928 128.488 130.633 128.647C130.341 128.803 129.947 128.881 129.45 128.881C128.833 128.881 128.28 128.735 127.789 128.443C127.302 128.152 126.916 127.727 126.631 127.17C126.349 126.614 126.208 125.937 126.208 125.142C126.208 124.36 126.346 123.679 126.621 123.099C126.896 122.515 127.279 122.065 127.769 121.746C128.26 121.425 128.826 121.264 129.469 121.264C129.967 121.264 130.361 121.347 130.653 121.513C130.948 121.675 131.173 121.861 131.329 122.07C131.488 122.275 131.611 122.444 131.697 122.577H131.816V121.364H132.95V129.219C132.95 129.875 132.8 130.409 132.502 130.82C132.207 131.234 131.809 131.537 131.309 131.729C130.812 131.925 130.258 132.023 129.648 132.023ZM129.609 127.827C130.079 127.827 130.477 127.719 130.802 127.504C131.127 127.288 131.374 126.978 131.543 126.574C131.712 126.17 131.796 125.686 131.796 125.122C131.796 124.572 131.713 124.086 131.548 123.665C131.382 123.245 131.137 122.915 130.812 122.676C130.487 122.437 130.086 122.318 129.609 122.318C129.112 122.318 128.697 122.444 128.366 122.696C128.038 122.948 127.791 123.286 127.625 123.71C127.463 124.134 127.381 124.605 127.381 125.122C127.381 125.652 127.464 126.121 127.63 126.529C127.799 126.933 128.048 127.252 128.376 127.484C128.707 127.712 129.118 127.827 129.609 127.827ZM136.271 124.406V129H135.097V121.364H136.231V122.557H136.33C136.509 122.169 136.781 121.857 137.146 121.622C137.51 121.384 137.981 121.264 138.558 121.264C139.075 121.264 139.527 121.37 139.915 121.582C140.303 121.791 140.604 122.109 140.82 122.537C141.035 122.961 141.143 123.498 141.143 124.148V129H139.969V124.227C139.969 123.627 139.814 123.16 139.502 122.825C139.191 122.487 138.763 122.318 138.219 122.318C137.845 122.318 137.51 122.399 137.215 122.562C136.924 122.724 136.693 122.961 136.524 123.273C136.355 123.584 136.271 123.962 136.271 124.406ZM45.733 149V138.818H46.9062V142.577H47.0057C47.0919 142.444 47.2112 142.275 47.3636 142.07C47.5194 141.861 47.7415 141.675 48.0298 141.513C48.3215 141.347 48.7159 141.264 49.2131 141.264C49.8561 141.264 50.4228 141.425 50.9134 141.746C51.4039 142.068 51.7867 142.524 52.0618 143.114C52.3369 143.704 52.4744 144.4 52.4744 145.202C52.4744 146.01 52.3369 146.711 52.0618 147.305C51.7867 147.895 51.4055 148.352 50.9183 148.677C50.4311 148.998 49.8693 149.159 49.233 149.159C48.7424 149.159 48.3497 149.078 48.0547 148.915C47.7597 148.75 47.5327 148.562 47.3736 148.354C47.2145 148.142 47.0919 147.966 47.0057 147.827H46.8665V149H45.733ZM46.8864 145.182C46.8864 145.759 46.9709 146.267 47.1399 146.708C47.3089 147.146 47.5559 147.489 47.8807 147.737C48.2055 147.982 48.6032 148.105 49.0739 148.105C49.5644 148.105 49.9737 147.976 50.3018 147.717C50.6333 147.455 50.8819 147.104 51.0476 146.663C51.2166 146.219 51.3011 145.725 51.3011 145.182C51.3011 144.645 51.2183 144.161 51.0526 143.73C50.8902 143.296 50.6432 142.953 50.3118 142.701C49.9837 142.446 49.571 142.318 49.0739 142.318C48.5966 142.318 48.1955 142.439 47.8707 142.681C47.5459 142.92 47.3007 143.254 47.1349 143.685C46.9692 144.113 46.8864 144.612 46.8864 145.182ZM57.3714 149.159C56.6821 149.159 56.0772 148.995 55.5568 148.667C55.0398 148.339 54.6354 147.88 54.3438 147.29C54.0554 146.7 53.9112 146.01 53.9112 145.222C53.9112 144.426 54.0554 143.732 54.3438 143.138C54.6354 142.545 55.0398 142.085 55.5568 141.756C56.0772 141.428 56.6821 141.264 57.3714 141.264C58.0608 141.264 58.6641 141.428 59.1811 141.756C59.7015 142.085 60.1058 142.545 60.3942 143.138C60.6858 143.732 60.8317 144.426 60.8317 145.222C60.8317 146.01 60.6858 146.7 60.3942 147.29C60.1058 147.88 59.7015 148.339 59.1811 148.667C58.6641 148.995 58.0608 149.159 57.3714 149.159ZM57.3714 148.105C57.8951 148.105 58.326 147.971 58.6641 147.702C59.0021 147.434 59.2524 147.081 59.4148 146.643C59.5772 146.206 59.6584 145.732 59.6584 145.222C59.6584 144.711 59.5772 144.236 59.4148 143.795C59.2524 143.354 59.0021 142.998 58.6641 142.726C58.326 142.454 57.8951 142.318 57.3714 142.318C56.8478 142.318 56.4169 142.454 56.0788 142.726C55.7408 142.998 55.4905 143.354 55.3281 143.795C55.1657 144.236 55.0845 144.711 55.0845 145.222C55.0845 145.732 55.1657 146.206 55.3281 146.643C55.4905 147.081 55.7408 147.434 56.0788 147.702C56.4169 147.971 56.8478 148.105 57.3714 148.105ZM65.725 149.159C65.0356 149.159 64.4307 148.995 63.9103 148.667C63.3933 148.339 62.9889 147.88 62.6973 147.29C62.4089 146.7 62.2647 146.01 62.2647 145.222C62.2647 144.426 62.4089 143.732 62.6973 143.138C62.9889 142.545 63.3933 142.085 63.9103 141.756C64.4307 141.428 65.0356 141.264 65.725 141.264C66.4144 141.264 67.0176 141.428 67.5346 141.756C68.055 142.085 68.4593 142.545 68.7477 143.138C69.0394 143.732 69.1852 144.426 69.1852 145.222C69.1852 146.01 69.0394 146.7 68.7477 147.29C68.4593 147.88 68.055 148.339 67.5346 148.667C67.0176 148.995 66.4144 149.159 65.725 149.159ZM65.725 148.105C66.2486 148.105 66.6795 147.971 67.0176 147.702C67.3556 147.434 67.6059 147.081 67.7683 146.643C67.9307 146.206 68.0119 145.732 68.0119 145.222C68.0119 144.711 67.9307 144.236 67.7683 143.795C67.6059 143.354 67.3556 142.998 67.0176 142.726C66.6795 142.454 66.2486 142.318 65.725 142.318C65.2013 142.318 64.7704 142.454 64.4324 142.726C64.0943 142.998 63.844 143.354 63.6816 143.795C63.5192 144.236 63.438 144.711 63.438 145.222C63.438 145.732 63.5192 146.206 63.6816 146.643C63.844 147.081 64.0943 147.434 64.4324 147.702C64.7704 147.971 65.2013 148.105 65.725 148.105ZM74.2972 141.364V142.358H70.3398V141.364H74.2972ZM71.4933 139.534H72.6665V146.812C72.6665 147.144 72.7146 147.393 72.8107 147.558C72.9102 147.721 73.0361 147.83 73.1886 147.886C73.3443 147.939 73.5084 147.966 73.6808 147.966C73.81 147.966 73.9161 147.959 73.9989 147.946C74.0818 147.929 74.1481 147.916 74.1978 147.906L74.4364 148.96C74.3569 148.99 74.2459 149.02 74.1033 149.05C73.9608 149.083 73.7802 149.099 73.5614 149.099C73.23 149.099 72.9052 149.028 72.587 148.886C72.2721 148.743 72.0103 148.526 71.8015 148.234C71.596 147.943 71.4933 147.575 71.4933 147.131V139.534ZM77.3995 144.406V149H76.2262V138.818H77.3995V142.557H77.4989C77.6779 142.162 77.9464 141.849 78.3043 141.617C78.6656 141.382 79.1462 141.264 79.7461 141.264C80.2665 141.264 80.7222 141.369 81.1133 141.577C81.5044 141.783 81.8076 142.099 82.0231 142.527C82.2418 142.951 82.3512 143.491 82.3512 144.148V149H81.1779V144.227C81.1779 143.621 81.0205 143.152 80.7056 142.82C80.3941 142.486 79.9615 142.318 79.408 142.318C79.0236 142.318 78.6789 142.399 78.3739 142.562C78.0723 142.724 77.8337 142.961 77.658 143.273C77.4857 143.584 77.3995 143.962 77.3995 144.406ZM91.3187 149.159C90.6824 149.159 90.1206 148.998 89.6333 148.677C89.1461 148.352 88.765 147.895 88.4899 147.305C88.2148 146.711 88.0772 146.01 88.0772 145.202C88.0772 144.4 88.2148 143.704 88.4899 143.114C88.765 142.524 89.1478 142.068 89.6383 141.746C90.1288 141.425 90.6956 141.264 91.3386 141.264C91.8358 141.264 92.2285 141.347 92.5169 141.513C92.8085 141.675 93.0306 141.861 93.1831 142.07C93.3388 142.275 93.4598 142.444 93.546 142.577H93.6454V138.818H94.8187V149H93.6852V147.827H93.546C93.4598 147.966 93.3372 148.142 93.1781 148.354C93.019 148.562 92.792 148.75 92.497 148.915C92.202 149.078 91.8092 149.159 91.3187 149.159ZM91.4778 148.105C91.9484 148.105 92.3462 147.982 92.671 147.737C92.9958 147.489 93.2427 147.146 93.4118 146.708C93.5808 146.267 93.6653 145.759 93.6653 145.182C93.6653 144.612 93.5824 144.113 93.4167 143.685C93.251 143.254 93.0057 142.92 92.6809 142.681C92.3561 142.439 91.9551 142.318 91.4778 142.318C90.9806 142.318 90.5663 142.446 90.2349 142.701C89.9068 142.953 89.6599 143.296 89.4941 143.73C89.3317 144.161 89.2505 144.645 89.2505 145.182C89.2505 145.725 89.3334 146.219 89.4991 146.663C89.6681 147.104 89.9167 147.455 90.2449 147.717C90.5763 147.976 90.9873 148.105 91.4778 148.105ZM100.332 149.159C99.5964 149.159 98.9617 148.997 98.4281 148.672C97.8978 148.344 97.4885 147.886 97.2001 147.3C96.9151 146.71 96.7725 146.024 96.7725 145.241C96.7725 144.459 96.9151 143.77 97.2001 143.173C97.4885 142.573 97.8895 142.106 98.4032 141.771C98.9203 141.433 99.5235 141.264 100.213 141.264C100.611 141.264 101.003 141.33 101.391 141.463C101.779 141.596 102.132 141.811 102.45 142.109C102.768 142.404 103.022 142.795 103.211 143.283C103.4 143.77 103.494 144.37 103.494 145.082V145.58H97.6078V144.565H102.301C102.301 144.134 102.215 143.75 102.042 143.412C101.873 143.074 101.631 142.807 101.317 142.612C101.005 142.416 100.637 142.318 100.213 142.318C99.7456 142.318 99.3412 142.434 98.9998 142.666C98.6618 142.895 98.4016 143.193 98.2193 143.561C98.037 143.929 97.9458 144.323 97.9458 144.744V145.42C97.9458 145.997 98.0453 146.486 98.2441 146.887C98.4463 147.285 98.7264 147.588 99.0843 147.797C99.4423 148.002 99.8583 148.105 100.332 148.105C100.64 148.105 100.919 148.062 101.167 147.976C101.419 147.886 101.636 147.754 101.819 147.578C102.001 147.399 102.142 147.177 102.241 146.912L103.375 147.23C103.256 147.615 103.055 147.953 102.773 148.244C102.492 148.533 102.144 148.758 101.729 148.92C101.315 149.08 100.849 149.159 100.332 149.159ZM110.688 143.074L109.634 143.372C109.568 143.196 109.47 143.026 109.341 142.86C109.215 142.691 109.042 142.552 108.824 142.442C108.605 142.333 108.325 142.278 107.983 142.278C107.516 142.278 107.127 142.386 106.815 142.602C106.507 142.814 106.353 143.084 106.353 143.412C106.353 143.704 106.459 143.934 106.671 144.103C106.883 144.272 107.215 144.413 107.665 144.526L108.799 144.804C109.482 144.97 109.99 145.223 110.325 145.565C110.66 145.903 110.827 146.339 110.827 146.872C110.827 147.31 110.701 147.701 110.449 148.045C110.201 148.39 109.853 148.662 109.405 148.861C108.958 149.06 108.438 149.159 107.844 149.159C107.065 149.159 106.421 148.99 105.91 148.652C105.4 148.314 105.077 147.82 104.941 147.17L106.055 146.892C106.161 147.303 106.361 147.611 106.656 147.817C106.954 148.022 107.344 148.125 107.824 148.125C108.371 148.125 108.805 148.009 109.127 147.777C109.452 147.542 109.614 147.26 109.614 146.932C109.614 146.667 109.521 146.445 109.336 146.266C109.15 146.083 108.865 145.947 108.481 145.858L107.208 145.56C106.509 145.394 105.995 145.137 105.667 144.789C105.342 144.438 105.18 143.999 105.18 143.472C105.18 143.041 105.3 142.66 105.542 142.328C105.788 141.997 106.121 141.737 106.542 141.548C106.966 141.359 107.447 141.264 107.983 141.264C108.739 141.264 109.332 141.43 109.763 141.761C110.198 142.093 110.506 142.53 110.688 143.074ZM112.593 149V141.364H113.767V149H112.593ZM113.19 140.091C112.961 140.091 112.764 140.013 112.598 139.857C112.436 139.701 112.355 139.514 112.355 139.295C112.355 139.077 112.436 138.889 112.598 138.734C112.764 138.578 112.961 138.5 113.19 138.5C113.419 138.5 113.614 138.578 113.777 138.734C113.942 138.889 114.025 139.077 114.025 139.295C114.025 139.514 113.942 139.701 113.777 139.857C113.614 140.013 113.419 140.091 113.19 140.091ZM118.998 152.023C118.431 152.023 117.944 151.95 117.536 151.804C117.129 151.661 116.789 151.473 116.517 151.237C116.249 151.005 116.035 150.757 115.876 150.491L116.811 149.835C116.917 149.974 117.051 150.134 117.213 150.312C117.376 150.495 117.598 150.652 117.879 150.785C118.164 150.921 118.537 150.989 118.998 150.989C119.615 150.989 120.123 150.839 120.524 150.541C120.925 150.243 121.126 149.776 121.126 149.139V147.588H121.026C120.94 147.727 120.818 147.9 120.659 148.105C120.503 148.307 120.277 148.488 119.982 148.647C119.691 148.803 119.296 148.881 118.799 148.881C118.183 148.881 117.629 148.735 117.139 148.443C116.651 148.152 116.265 147.727 115.98 147.17C115.699 146.614 115.558 145.937 115.558 145.142C115.558 144.36 115.695 143.679 115.97 143.099C116.245 142.515 116.628 142.065 117.119 141.746C117.609 141.425 118.176 141.264 118.819 141.264C119.316 141.264 119.711 141.347 120.002 141.513C120.297 141.675 120.523 141.861 120.678 142.07C120.838 142.275 120.96 142.444 121.046 142.577H121.166V141.364H122.299V149.219C122.299 149.875 122.15 150.409 121.852 150.82C121.557 151.234 121.159 151.537 120.659 151.729C120.161 151.925 119.608 152.023 118.998 152.023ZM118.958 147.827C119.429 147.827 119.827 147.719 120.151 147.504C120.476 147.288 120.723 146.978 120.892 146.574C121.061 146.17 121.146 145.686 121.146 145.122C121.146 144.572 121.063 144.086 120.897 143.665C120.731 143.245 120.486 142.915 120.161 142.676C119.837 142.437 119.436 142.318 118.958 142.318C118.461 142.318 118.047 142.444 117.715 142.696C117.387 142.948 117.14 143.286 116.975 143.71C116.812 144.134 116.731 144.605 116.731 145.122C116.731 145.652 116.814 146.121 116.98 146.529C117.149 146.933 117.397 147.252 117.725 147.484C118.057 147.712 118.468 147.827 118.958 147.827ZM125.62 144.406V149H124.447V141.364H125.58V142.557H125.68C125.859 142.169 126.131 141.857 126.495 141.622C126.86 141.384 127.33 141.264 127.907 141.264C128.424 141.264 128.877 141.37 129.264 141.582C129.652 141.791 129.954 142.109 130.169 142.537C130.385 142.961 130.492 143.498 130.492 144.148V149H129.319V144.227C129.319 143.627 129.163 143.16 128.852 142.825C128.54 142.487 128.113 142.318 127.569 142.318C127.195 142.318 126.86 142.399 126.565 142.562C126.273 142.724 126.043 142.961 125.874 143.273C125.705 143.584 125.62 143.962 125.62 144.406ZM48.4574 169.159C47.821 169.159 47.2592 168.998 46.772 168.677C46.2848 168.352 45.9036 167.895 45.6286 167.305C45.3535 166.711 45.2159 166.01 45.2159 165.202C45.2159 164.4 45.3535 163.704 45.6286 163.114C45.9036 162.524 46.2865 162.068 46.777 161.746C47.2675 161.425 47.8343 161.264 48.4773 161.264C48.9744 161.264 49.3672 161.347 49.6555 161.513C49.9472 161.675 50.1693 161.861 50.3217 162.07C50.4775 162.275 50.5985 162.444 50.6847 162.577H50.7841V158.818H51.9574V169H50.8239V167.827H50.6847C50.5985 167.966 50.4759 168.142 50.3168 168.354C50.1577 168.562 49.9306 168.75 49.6357 168.915C49.3407 169.078 48.9479 169.159 48.4574 169.159ZM48.6165 168.105C49.0871 168.105 49.4848 167.982 49.8097 167.737C50.1345 167.489 50.3814 167.146 50.5504 166.708C50.7195 166.267 50.804 165.759 50.804 165.182C50.804 164.612 50.7211 164.113 50.5554 163.685C50.3897 163.254 50.1444 162.92 49.8196 162.681C49.4948 162.439 49.0938 162.318 48.6165 162.318C48.1193 162.318 47.705 162.446 47.3736 162.701C47.0455 162.953 46.7985 163.296 46.6328 163.73C46.4704 164.161 46.3892 164.645 46.3892 165.182C46.3892 165.725 46.4721 166.219 46.6378 166.663C46.8068 167.104 47.0554 167.455 47.3835 167.717C47.715 167.976 48.1259 168.105 48.6165 168.105ZM54.2692 169V161.364H55.4027V162.517H55.4822C55.6214 162.139 55.8733 161.833 56.2379 161.597C56.6025 161.362 57.0135 161.244 57.4709 161.244C57.5571 161.244 57.6648 161.246 57.794 161.249C57.9233 161.253 58.0211 161.258 58.0874 161.264V162.457C58.0476 162.447 57.9564 162.433 57.8139 162.413C57.6747 162.389 57.5272 162.378 57.3714 162.378C57.0002 162.378 56.6688 162.456 56.3771 162.612C56.0888 162.764 55.8601 162.976 55.6911 163.248C55.5253 163.516 55.4425 163.823 55.4425 164.168V169H54.2692ZM61.7253 169.179C61.2414 169.179 60.8023 169.088 60.4078 168.906C60.0134 168.72 59.7002 168.453 59.4682 168.105C59.2362 167.754 59.1202 167.33 59.1202 166.832C59.1202 166.395 59.2064 166.04 59.3787 165.768C59.5511 165.493 59.7814 165.278 60.0698 165.122C60.3581 164.966 60.6763 164.85 61.0243 164.774C61.3757 164.695 61.7286 164.632 62.0833 164.585C62.5473 164.526 62.9235 164.481 63.2118 164.451C63.5035 164.418 63.7156 164.363 63.8482 164.287C63.9841 164.211 64.052 164.078 64.052 163.889V163.849C64.052 163.359 63.9178 162.978 63.6493 162.706C63.3842 162.434 62.9815 162.298 62.4412 162.298C61.8811 162.298 61.4419 162.421 61.1238 162.666C60.8056 162.911 60.5819 163.173 60.4526 163.452L59.339 163.054C59.5378 162.59 59.803 162.229 60.1344 161.97C60.4692 161.708 60.8337 161.526 61.2282 161.423C61.6259 161.317 62.017 161.264 62.4015 161.264C62.6467 161.264 62.9284 161.294 63.2466 161.354C63.5681 161.41 63.878 161.528 64.1763 161.707C64.4779 161.886 64.7282 162.156 64.927 162.517C65.1259 162.878 65.2253 163.362 65.2253 163.969V169H64.052V167.966H63.9924C63.9128 168.132 63.7802 168.309 63.5946 168.498C63.409 168.687 63.1621 168.848 62.8539 168.98C62.5456 169.113 62.1694 169.179 61.7253 169.179ZM61.9043 168.125C62.3683 168.125 62.7594 168.034 63.0776 167.852C63.3991 167.669 63.641 167.434 63.8034 167.146C63.9692 166.857 64.052 166.554 64.052 166.236V165.162C64.0023 165.222 63.8929 165.276 63.7239 165.326C63.5582 165.372 63.3659 165.414 63.1472 165.45C62.9318 165.483 62.7213 165.513 62.5158 165.54C62.3136 165.563 62.1496 165.583 62.0236 165.599C61.7187 165.639 61.4337 165.704 61.1685 165.793C60.9067 165.879 60.6945 166.01 60.5321 166.186C60.373 166.358 60.2935 166.594 60.2935 166.892C60.2935 167.3 60.4443 167.608 60.7459 167.817C61.0508 168.022 61.437 168.125 61.9043 168.125ZM69.0969 169L66.7702 161.364H68.0032L69.6538 167.21H69.7333L71.364 161.364H72.6168L74.2276 167.19H74.3072L75.9577 161.364H77.1907L74.864 169H73.7106L72.0401 163.134H71.9208L70.2504 169H69.0969ZM78.7418 169V161.364H79.9151V169H78.7418ZM79.3384 160.091C79.1097 160.091 78.9125 160.013 78.7468 159.857C78.5844 159.701 78.5032 159.514 78.5032 159.295C78.5032 159.077 78.5844 158.889 78.7468 158.734C78.9125 158.578 79.1097 158.5 79.3384 158.5C79.5671 158.5 79.7627 158.578 79.9251 158.734C80.0908 158.889 80.1737 159.077 80.1737 159.295C80.1737 159.514 80.0908 159.701 79.9251 159.857C79.7627 160.013 79.5671 160.091 79.3384 160.091ZM83.2374 164.406V169H82.0641V161.364H83.1976V162.557H83.2971C83.476 162.169 83.7478 161.857 84.1124 161.622C84.477 161.384 84.9476 161.264 85.5243 161.264C86.0414 161.264 86.4938 161.37 86.8816 161.582C87.2694 161.791 87.571 162.109 87.7864 162.537C88.0018 162.961 88.1096 163.498 88.1096 164.148V169H86.9363V164.227C86.9363 163.627 86.7805 163.16 86.4689 162.825C86.1574 162.487 85.7298 162.318 85.1863 162.318C84.8117 162.318 84.477 162.399 84.182 162.562C83.8903 162.724 83.66 162.961 83.4909 163.273C83.3219 163.584 83.2374 163.962 83.2374 164.406ZM93.3359 172.023C92.7692 172.023 92.282 171.95 91.8743 171.804C91.4666 171.661 91.1269 171.473 90.8551 171.237C90.5866 171.005 90.3729 170.757 90.2138 170.491L91.1484 169.835C91.2545 169.974 91.3887 170.134 91.5511 170.312C91.7135 170.495 91.9356 170.652 92.2173 170.785C92.5024 170.921 92.8752 170.989 93.3359 170.989C93.9524 170.989 94.4612 170.839 94.8622 170.541C95.2633 170.243 95.4638 169.776 95.4638 169.139V167.588H95.3643C95.2782 167.727 95.1555 167.9 94.9964 168.105C94.8407 168.307 94.6153 168.488 94.3203 168.647C94.0286 168.803 93.6342 168.881 93.1371 168.881C92.5206 168.881 91.9671 168.735 91.4766 168.443C90.9893 168.152 90.6032 167.727 90.3182 167.17C90.0365 166.614 89.8956 165.937 89.8956 165.142C89.8956 164.36 90.0331 163.679 90.3082 163.099C90.5833 162.515 90.9661 162.065 91.4567 161.746C91.9472 161.425 92.514 161.264 93.157 161.264C93.6541 161.264 94.0485 161.347 94.3402 161.513C94.6352 161.675 94.8606 161.861 95.0163 162.07C95.1754 162.275 95.2981 162.444 95.3842 162.577H95.5036V161.364H96.6371V169.219C96.6371 169.875 96.4879 170.409 96.1896 170.82C95.8946 171.234 95.4969 171.537 94.9964 171.729C94.4993 171.925 93.9458 172.023 93.3359 172.023ZM93.2962 167.827C93.7668 167.827 94.1645 167.719 94.4893 167.504C94.8142 167.288 95.0611 166.978 95.2301 166.574C95.3991 166.17 95.4837 165.686 95.4837 165.122C95.4837 164.572 95.4008 164.086 95.2351 163.665C95.0694 163.245 94.8241 162.915 94.4993 162.676C94.1745 162.437 93.7734 162.318 93.2962 162.318C92.799 162.318 92.3847 162.444 92.0533 162.696C91.7251 162.948 91.4782 163.286 91.3125 163.71C91.1501 164.134 91.0689 164.605 91.0689 165.122C91.0689 165.652 91.1518 166.121 91.3175 166.529C91.4865 166.933 91.7351 167.252 92.0632 167.484C92.3946 167.712 92.8056 167.827 93.2962 167.827ZM110.815 157.156L111.235 157.576L98.6069 170.204L98.1869 169.784L110.815 157.156ZM112.785 171.864V161.364H113.918V162.577H114.058C114.144 162.444 114.263 162.275 114.415 162.07C114.571 161.861 114.793 161.675 115.082 161.513C115.373 161.347 115.768 161.264 116.265 161.264C116.908 161.264 117.475 161.425 117.965 161.746C118.456 162.068 118.839 162.524 119.114 163.114C119.389 163.704 119.526 164.4 119.526 165.202C119.526 166.01 119.389 166.711 119.114 167.305C118.839 167.895 118.457 168.352 117.97 168.677C117.483 168.998 116.921 169.159 116.285 169.159C115.794 169.159 115.402 169.078 115.107 168.915C114.812 168.75 114.585 168.562 114.425 168.354C114.266 168.142 114.144 167.966 114.058 167.827H113.958V171.864H112.785ZM113.938 165.182C113.938 165.759 114.023 166.267 114.192 166.708C114.361 167.146 114.608 167.489 114.933 167.737C115.257 167.982 115.655 168.105 116.126 168.105C116.616 168.105 117.026 167.976 117.354 167.717C117.685 167.455 117.934 167.104 118.099 166.663C118.268 166.219 118.353 165.725 118.353 165.182C118.353 164.645 118.27 164.161 118.104 163.73C117.942 163.296 117.695 162.953 117.364 162.701C117.036 162.446 116.623 162.318 116.126 162.318C115.648 162.318 115.247 162.439 114.923 162.681C114.598 162.92 114.353 163.254 114.187 163.685C114.021 164.113 113.938 164.612 113.938 165.182ZM124.518 169.159C123.782 169.159 123.147 168.997 122.614 168.672C122.083 168.344 121.674 167.886 121.386 167.3C121.101 166.71 120.958 166.024 120.958 165.241C120.958 164.459 121.101 163.77 121.386 163.173C121.674 162.573 122.075 162.106 122.589 161.771C123.106 161.433 123.709 161.264 124.398 161.264C124.796 161.264 125.189 161.33 125.577 161.463C125.964 161.596 126.317 161.811 126.636 162.109C126.954 162.404 127.207 162.795 127.396 163.283C127.585 163.77 127.68 164.37 127.68 165.082V165.58H121.793V164.565H126.487C126.487 164.134 126.4 163.75 126.228 163.412C126.059 163.074 125.817 162.807 125.502 162.612C125.191 162.416 124.823 162.318 124.398 162.318C123.931 162.318 123.527 162.434 123.185 162.666C122.847 162.895 122.587 163.193 122.405 163.561C122.223 163.929 122.131 164.323 122.131 164.744V165.42C122.131 165.997 122.231 166.486 122.43 166.887C122.632 167.285 122.912 167.588 123.27 167.797C123.628 168.002 124.044 168.105 124.518 168.105C124.826 168.105 125.104 168.062 125.353 167.976C125.605 167.886 125.822 167.754 126.004 167.578C126.187 167.399 126.327 167.177 126.427 166.912L127.56 167.23C127.441 167.615 127.241 167.953 126.959 168.244C126.677 168.533 126.329 168.758 125.915 168.92C125.5 169.08 125.035 169.159 124.518 169.159ZM129.464 169V161.364H130.598V162.517H130.678C130.817 162.139 131.069 161.833 131.433 161.597C131.798 161.362 132.209 161.244 132.666 161.244C132.752 161.244 132.86 161.246 132.989 161.249C133.119 161.253 133.216 161.258 133.283 161.264V162.457C133.243 162.447 133.152 162.433 133.009 162.413C132.87 162.389 132.723 162.378 132.567 162.378C132.196 162.378 131.864 162.456 131.572 162.612C131.284 162.764 131.055 162.976 130.886 163.248C130.721 163.516 130.638 163.823 130.638 164.168V169H129.464ZM140.083 163.074L139.029 163.372C138.962 163.196 138.865 163.026 138.735 162.86C138.609 162.691 138.437 162.552 138.218 162.442C137.999 162.333 137.719 162.278 137.378 162.278C136.911 162.278 136.521 162.386 136.21 162.602C135.901 162.814 135.747 163.084 135.747 163.412C135.747 163.704 135.853 163.934 136.066 164.103C136.278 164.272 136.609 164.413 137.06 164.526L138.193 164.804C138.876 164.97 139.385 165.223 139.72 165.565C140.054 165.903 140.222 166.339 140.222 166.872C140.222 167.31 140.096 167.701 139.844 168.045C139.595 168.39 139.247 168.662 138.8 168.861C138.352 169.06 137.832 169.159 137.239 169.159C136.46 169.159 135.815 168.99 135.305 168.652C134.794 168.314 134.471 167.82 134.335 167.17L135.449 166.892C135.555 167.303 135.756 167.611 136.051 167.817C136.349 168.022 136.738 168.125 137.219 168.125C137.766 168.125 138.2 168.009 138.521 167.777C138.846 167.542 139.009 167.26 139.009 166.932C139.009 166.667 138.916 166.445 138.73 166.266C138.545 166.083 138.26 165.947 137.875 165.858L136.602 165.56C135.903 165.394 135.389 165.137 135.061 164.789C134.736 164.438 134.574 163.999 134.574 163.472C134.574 163.041 134.695 162.66 134.937 162.328C135.182 161.997 135.515 161.737 135.936 161.548C136.36 161.359 136.841 161.264 137.378 161.264C138.134 161.264 138.727 161.43 139.158 161.761C139.592 162.093 139.9 162.53 140.083 163.074ZM141.988 171.864V161.364H143.121V162.577H143.261C143.347 162.444 143.466 162.275 143.619 162.07C143.774 161.861 143.996 161.675 144.285 161.513C144.576 161.347 144.971 161.264 145.468 161.264C146.111 161.264 146.678 161.425 147.168 161.746C147.659 162.068 148.042 162.524 148.317 163.114C148.592 163.704 148.729 164.4 148.729 165.202C148.729 166.01 148.592 166.711 148.317 167.305C148.042 167.895 147.661 168.352 147.173 168.677C146.686 168.998 146.124 169.159 145.488 169.159C144.997 169.159 144.605 169.078 144.31 168.915C144.015 168.75 143.788 168.562 143.629 168.354C143.469 168.142 143.347 167.966 143.261 167.827H143.161V171.864H141.988ZM143.141 165.182C143.141 165.759 143.226 166.267 143.395 166.708C143.564 167.146 143.811 167.489 144.136 167.737C144.46 167.982 144.858 168.105 145.329 168.105C145.819 168.105 146.229 167.976 146.557 167.717C146.888 167.455 147.137 167.104 147.303 166.663C147.472 166.219 147.556 165.725 147.556 165.182C147.556 164.645 147.473 164.161 147.308 163.73C147.145 163.296 146.898 162.953 146.567 162.701C146.239 162.446 145.826 162.318 145.329 162.318C144.852 162.318 144.451 162.439 144.126 162.681C143.801 162.92 143.556 163.254 143.39 163.685C143.224 164.113 143.141 164.612 143.141 165.182ZM153.721 169.159C152.985 169.159 152.35 168.997 151.817 168.672C151.286 168.344 150.877 167.886 150.589 167.3C150.304 166.71 150.161 166.024 150.161 165.241C150.161 164.459 150.304 163.77 150.589 163.173C150.877 162.573 151.278 162.106 151.792 161.771C152.309 161.433 152.912 161.264 153.602 161.264C153.999 161.264 154.392 161.33 154.78 161.463C155.168 161.596 155.521 161.811 155.839 162.109C156.157 162.404 156.411 162.795 156.599 163.283C156.788 163.77 156.883 164.37 156.883 165.082V165.58H150.996V164.565H155.69C155.69 164.134 155.603 163.75 155.431 163.412C155.262 163.074 155.02 162.807 154.705 162.612C154.394 162.416 154.026 162.318 153.602 162.318C153.134 162.318 152.73 162.434 152.388 162.666C152.05 162.895 151.79 163.193 151.608 163.561C151.426 163.929 151.335 164.323 151.335 164.744V165.42C151.335 165.997 151.434 166.486 151.633 166.887C151.835 167.285 152.115 167.588 152.473 167.797C152.831 168.002 153.247 168.105 153.721 168.105C154.029 168.105 154.308 168.062 154.556 167.976C154.808 167.886 155.025 167.754 155.207 167.578C155.39 167.399 155.531 167.177 155.63 166.912L156.763 167.23C156.644 167.615 156.444 167.953 156.162 168.244C155.88 168.533 155.532 168.758 155.118 168.92C154.704 169.08 154.238 169.159 153.721 169.159ZM161.77 169.159C161.054 169.159 160.438 168.99 159.92 168.652C159.403 168.314 159.006 167.848 158.727 167.255C158.449 166.662 158.31 165.984 158.31 165.222C158.31 164.446 158.452 163.762 158.737 163.168C159.026 162.572 159.427 162.106 159.94 161.771C160.457 161.433 161.061 161.264 161.75 161.264C162.287 161.264 162.771 161.364 163.202 161.562C163.633 161.761 163.986 162.04 164.261 162.398C164.536 162.756 164.706 163.173 164.773 163.651H163.599C163.51 163.303 163.311 162.994 163.003 162.726C162.698 162.454 162.287 162.318 161.77 162.318C161.313 162.318 160.911 162.437 160.567 162.676C160.225 162.911 159.959 163.245 159.766 163.675C159.577 164.103 159.483 164.605 159.483 165.182C159.483 165.772 159.576 166.286 159.761 166.723C159.95 167.161 160.215 167.5 160.557 167.742C160.902 167.984 161.306 168.105 161.77 168.105C162.075 168.105 162.352 168.052 162.6 167.946C162.849 167.84 163.059 167.688 163.232 167.489C163.404 167.29 163.527 167.051 163.599 166.773H164.773C164.706 167.223 164.542 167.629 164.281 167.991C164.022 168.349 163.679 168.634 163.251 168.846C162.827 169.055 162.333 169.159 161.77 169.159ZM169.809 161.364V162.358H165.852V161.364H169.809ZM167.005 159.534H168.178V166.812C168.178 167.144 168.226 167.393 168.322 167.558C168.422 167.721 168.548 167.83 168.7 167.886C168.856 167.939 169.02 167.966 169.192 167.966C169.322 167.966 169.428 167.959 169.511 167.946C169.594 167.929 169.66 167.916 169.71 167.906L169.948 168.96C169.869 168.99 169.758 169.02 169.615 169.05C169.473 169.083 169.292 169.099 169.073 169.099C168.742 169.099 168.417 169.028 168.099 168.886C167.784 168.743 167.522 168.526 167.313 168.234C167.108 167.943 167.005 167.575 167.005 167.131V159.534ZM171.574 169V161.364H172.747V169H171.574ZM172.17 160.091C171.942 160.091 171.745 160.013 171.579 159.857C171.416 159.701 171.335 159.514 171.335 159.295C171.335 159.077 171.416 158.889 171.579 158.734C171.745 158.578 171.942 158.5 172.17 158.5C172.399 158.5 172.595 158.578 172.757 158.734C172.923 158.889 173.006 159.077 173.006 159.295C173.006 159.514 172.923 159.701 172.757 159.857C172.595 160.013 172.399 160.091 172.17 160.091ZM181.14 161.364L178.317 169H177.123L174.3 161.364H175.572L177.68 167.449H177.76L179.868 161.364H181.14ZM185.617 169.159C184.882 169.159 184.247 168.997 183.713 168.672C183.183 168.344 182.774 167.886 182.485 167.3C182.2 166.71 182.058 166.024 182.058 165.241C182.058 164.459 182.2 163.77 182.485 163.173C182.774 162.573 183.175 162.106 183.688 161.771C184.205 161.433 184.809 161.264 185.498 161.264C185.896 161.264 186.289 161.33 186.676 161.463C187.064 161.596 187.417 161.811 187.735 162.109C188.053 162.404 188.307 162.795 188.496 163.283C188.685 163.77 188.779 164.37 188.779 165.082V165.58H182.893V164.565H187.586C187.586 164.134 187.5 163.75 187.328 163.412C187.159 163.074 186.917 162.807 186.602 162.612C186.29 162.416 185.922 162.318 185.498 162.318C185.031 162.318 184.626 162.434 184.285 162.666C183.947 162.895 183.687 163.193 183.504 163.561C183.322 163.929 183.231 164.323 183.231 164.744V165.42C183.231 165.997 183.33 166.486 183.529 166.887C183.731 167.285 184.012 167.588 184.369 167.797C184.727 168.002 185.143 168.105 185.617 168.105C185.926 168.105 186.204 168.062 186.453 167.976C186.704 167.886 186.922 167.754 187.104 167.578C187.286 167.399 187.427 167.177 187.526 166.912L188.66 167.23C188.541 167.615 188.34 167.953 188.058 168.244C187.777 168.533 187.429 168.758 187.014 168.92C186.6 169.08 186.134 169.159 185.617 169.159ZM47.304 189L44.9773 181.364H46.2102L47.8608 187.21H47.9403L49.571 181.364H50.8239L52.4347 187.19H52.5142L54.1648 181.364H55.3977L53.071 189H51.9176L50.2472 183.134H50.1278L48.4574 189H47.304ZM59.8908 189.159C59.155 189.159 58.5203 188.997 57.9867 188.672C57.4564 188.344 57.0471 187.886 56.7587 187.3C56.4737 186.71 56.3311 186.024 56.3311 185.241C56.3311 184.459 56.4737 183.77 56.7587 183.173C57.0471 182.573 57.4481 182.106 57.9618 181.771C58.4789 181.433 59.0821 181.264 59.7715 181.264C60.1692 181.264 60.562 181.33 60.9498 181.463C61.3375 181.596 61.6905 181.811 62.0087 182.109C62.3269 182.404 62.5804 182.795 62.7694 183.283C62.9583 183.77 63.0527 184.37 63.0527 185.082V185.58H57.1664V184.565H61.8596C61.8596 184.134 61.7734 183.75 61.601 183.412C61.432 183.074 61.19 182.807 60.8752 182.612C60.5636 182.416 60.1957 182.318 59.7715 182.318C59.3042 182.318 58.8998 182.434 58.5584 182.666C58.2203 182.895 57.9602 183.193 57.7779 183.561C57.5956 183.929 57.5044 184.323 57.5044 184.744V185.42C57.5044 185.997 57.6039 186.486 57.8027 186.887C58.0049 187.285 58.285 187.588 58.6429 187.797C59.0009 188.002 59.4168 188.105 59.8908 188.105C60.199 188.105 60.4775 188.062 60.726 187.976C60.9779 187.886 61.195 187.754 61.3773 187.578C61.5596 187.399 61.7005 187.177 61.7999 186.912L62.9334 187.23C62.8141 187.615 62.6136 187.953 62.3319 188.244C62.0501 188.533 61.7021 188.758 61.2878 188.92C60.8735 189.08 60.4078 189.159 59.8908 189.159ZM64.9966 189V178.818H66.1699V182.577H66.2694C66.3555 182.444 66.4748 182.275 66.6273 182.07C66.7831 181.861 67.0051 181.675 67.2935 181.513C67.5852 181.347 67.9796 181.264 68.4767 181.264C69.1197 181.264 69.6865 181.425 70.177 181.746C70.6676 182.068 71.0504 182.524 71.3255 183.114C71.6006 183.704 71.7381 184.4 71.7381 185.202C71.7381 186.01 71.6006 186.711 71.3255 187.305C71.0504 187.895 70.6692 188.352 70.182 188.677C69.6948 188.998 69.133 189.159 68.4966 189.159C68.0061 189.159 67.6133 189.078 67.3184 188.915C67.0234 188.75 66.7963 188.562 66.6373 188.354C66.4782 188.142 66.3555 187.966 66.2694 187.827H66.1301V189H64.9966ZM66.15 185.182C66.15 185.759 66.2346 186.267 66.4036 186.708C66.5726 187.146 66.8195 187.489 67.1444 187.737C67.4692 187.982 67.8669 188.105 68.3375 188.105C68.8281 188.105 69.2374 187.976 69.5655 187.717C69.897 187.455 70.1455 187.104 70.3113 186.663C70.4803 186.219 70.5648 185.725 70.5648 185.182C70.5648 184.645 70.4819 184.161 70.3162 183.73C70.1538 183.296 69.9069 182.953 69.5755 182.701C69.2473 182.446 68.8347 182.318 68.3375 182.318C67.8603 182.318 67.4592 182.439 67.1344 182.681C66.8096 182.92 66.5643 183.254 66.3986 183.685C66.2329 184.113 66.15 184.612 66.15 185.182ZM80.3539 189.159C79.7175 189.159 79.1557 188.998 78.6685 188.677C78.1813 188.352 77.8001 187.895 77.525 187.305C77.2499 186.711 77.1124 186.01 77.1124 185.202C77.1124 184.4 77.2499 183.704 77.525 183.114C77.8001 182.524 78.1829 182.068 78.6735 181.746C79.164 181.425 79.7308 181.264 80.3738 181.264C80.8709 181.264 81.2637 181.347 81.552 181.513C81.8437 181.675 82.0658 181.861 82.2182 182.07C82.374 182.275 82.495 182.444 82.5811 182.577H82.6806V178.818H83.8539V189H82.7203V187.827H82.5811C82.495 187.966 82.3723 188.142 82.2132 188.354C82.0542 188.562 81.8271 188.75 81.5321 188.915C81.2372 189.078 80.8444 189.159 80.3539 189.159ZM80.513 188.105C80.9836 188.105 81.3813 187.982 81.7061 187.737C82.031 187.489 82.2779 187.146 82.4469 186.708C82.6159 186.267 82.7005 185.759 82.7005 185.182C82.7005 184.612 82.6176 184.113 82.4519 183.685C82.2862 183.254 82.0409 182.92 81.7161 182.681C81.3913 182.439 80.9902 182.318 80.513 182.318C80.0158 182.318 79.6015 182.446 79.2701 182.701C78.9419 182.953 78.695 183.296 78.5293 183.73C78.3669 184.161 78.2857 184.645 78.2857 185.182C78.2857 185.725 78.3685 186.219 78.5343 186.663C78.7033 187.104 78.9519 187.455 79.28 187.717C79.6114 187.976 80.0224 188.105 80.513 188.105ZM89.3674 189.159C88.6316 189.159 87.9969 188.997 87.4632 188.672C86.9329 188.344 86.5236 187.886 86.2353 187.3C85.9502 186.71 85.8077 186.024 85.8077 185.241C85.8077 184.459 85.9502 183.77 86.2353 183.173C86.5236 182.573 86.9247 182.106 87.4384 181.771C87.9554 181.433 88.5587 181.264 89.248 181.264C89.6458 181.264 90.0385 181.33 90.4263 181.463C90.8141 181.596 91.1671 181.811 91.4853 182.109C91.8034 182.404 92.057 182.795 92.2459 183.283C92.4348 183.77 92.5293 184.37 92.5293 185.082V185.58H86.6429V184.565H91.3361C91.3361 184.134 91.2499 183.75 91.0776 183.412C90.9086 183.074 90.6666 182.807 90.3517 182.612C90.0402 182.416 89.6723 182.318 89.248 182.318C88.7807 182.318 88.3764 182.434 88.035 182.666C87.6969 182.895 87.4367 183.193 87.2544 183.561C87.0721 183.929 86.981 184.323 86.981 184.744V185.42C86.981 185.997 87.0804 186.486 87.2793 186.887C87.4815 187.285 87.7615 187.588 88.1195 187.797C88.4775 188.002 88.8934 188.105 89.3674 188.105C89.6756 188.105 89.954 188.062 90.2026 187.976C90.4545 187.886 90.6716 187.754 90.8539 187.578C91.0362 187.399 91.177 187.177 91.2765 186.912L92.41 187.23C92.2907 187.615 92.0901 187.953 91.8084 188.244C91.5267 188.533 91.1787 188.758 90.7644 188.92C90.3501 189.08 89.8844 189.159 89.3674 189.159ZM99.7232 183.074L98.6692 183.372C98.6029 183.196 98.5051 183.026 98.3759 182.86C98.2499 182.691 98.0776 182.552 97.8588 182.442C97.6401 182.333 97.36 182.278 97.0186 182.278C96.5513 182.278 96.1619 182.386 95.8503 182.602C95.5421 182.814 95.388 183.084 95.388 183.412C95.388 183.704 95.494 183.934 95.7061 184.103C95.9183 184.272 96.2497 184.413 96.7005 184.526L97.834 184.804C98.5167 184.97 99.0255 185.223 99.3603 185.565C99.695 185.903 99.8624 186.339 99.8624 186.872C99.8624 187.31 99.7364 187.701 99.4846 188.045C99.236 188.39 98.888 188.662 98.4405 188.861C97.9931 189.06 97.4727 189.159 96.8794 189.159C96.1006 189.159 95.4559 188.99 94.9455 188.652C94.4351 188.314 94.1119 187.82 93.976 187.17L95.0897 186.892C95.1957 187.303 95.3962 187.611 95.6912 187.817C95.9895 188.022 96.379 188.125 96.8596 188.125C97.4064 188.125 97.8406 188.009 98.1621 187.777C98.4869 187.542 98.6493 187.26 98.6493 186.932C98.6493 186.667 98.5565 186.445 98.3709 186.266C98.1853 186.083 97.9003 185.947 97.5158 185.858L96.2431 185.56C95.5437 185.394 95.03 185.137 94.7019 184.789C94.3771 184.438 94.2147 183.999 94.2147 183.472C94.2147 183.041 94.3356 182.66 94.5776 182.328C94.8229 181.997 95.156 181.737 95.5769 181.548C96.0011 181.359 96.4817 181.264 97.0186 181.264C97.7743 181.264 98.3676 181.43 98.7985 181.761C99.2327 182.093 99.5409 182.53 99.7232 183.074ZM101.629 189V181.364H102.802V189H101.629ZM102.225 180.091C101.996 180.091 101.799 180.013 101.634 179.857C101.471 179.701 101.39 179.514 101.39 179.295C101.39 179.077 101.471 178.889 101.634 178.734C101.799 178.578 101.996 178.5 102.225 178.5C102.454 178.5 102.649 178.578 102.812 178.734C102.978 178.889 103.06 179.077 103.06 179.295C103.06 179.514 102.978 179.701 102.812 179.857C102.649 180.013 102.454 180.091 102.225 180.091ZM108.033 192.023C107.466 192.023 106.979 191.95 106.572 191.804C106.164 191.661 105.824 191.473 105.552 191.237C105.284 191.005 105.07 190.757 104.911 190.491L105.846 189.835C105.952 189.974 106.086 190.134 106.248 190.312C106.411 190.495 106.633 190.652 106.915 190.785C107.2 190.921 107.573 190.989 108.033 190.989C108.65 190.989 109.158 190.839 109.559 190.541C109.961 190.243 110.161 189.776 110.161 189.139V187.588H110.062C109.975 187.727 109.853 187.9 109.694 188.105C109.538 188.307 109.313 188.488 109.018 188.647C108.726 188.803 108.331 188.881 107.834 188.881C107.218 188.881 106.664 188.735 106.174 188.443C105.687 188.152 105.3 187.727 105.015 187.17C104.734 186.614 104.593 185.937 104.593 185.142C104.593 184.36 104.73 183.679 105.006 183.099C105.281 182.515 105.663 182.065 106.154 181.746C106.644 181.425 107.211 181.264 107.854 181.264C108.351 181.264 108.746 181.347 109.037 181.513C109.332 181.675 109.558 181.861 109.714 182.07C109.873 182.275 109.995 182.444 110.081 182.577H110.201V181.364H111.334V189.219C111.334 189.875 111.185 190.409 110.887 190.82C110.592 191.234 110.194 191.537 109.694 191.729C109.197 191.925 108.643 192.023 108.033 192.023ZM107.993 187.827C108.464 187.827 108.862 187.719 109.187 187.504C109.511 187.288 109.758 186.978 109.927 186.574C110.096 186.17 110.181 185.686 110.181 185.122C110.181 184.572 110.098 184.086 109.932 183.665C109.767 183.245 109.521 182.915 109.197 182.676C108.872 182.437 108.471 182.318 107.993 182.318C107.496 182.318 107.082 182.444 106.751 182.696C106.422 182.948 106.175 183.286 106.01 183.71C105.847 184.134 105.766 184.605 105.766 185.122C105.766 185.652 105.849 186.121 106.015 186.529C106.184 186.933 106.432 187.252 106.76 187.484C107.092 187.712 107.503 187.827 107.993 187.827ZM114.655 184.406V189H113.482V181.364H114.616V182.557H114.715C114.894 182.169 115.166 181.857 115.53 181.622C115.895 181.384 116.366 181.264 116.942 181.264C117.459 181.264 117.912 181.37 118.3 181.582C118.687 181.791 118.989 182.109 119.204 182.537C119.42 182.961 119.528 183.498 119.528 184.148V189H118.354V184.227C118.354 183.627 118.198 183.16 117.887 182.825C117.575 182.487 117.148 182.318 116.604 182.318C116.23 182.318 115.895 182.399 115.6 182.562C115.308 182.724 115.078 182.961 114.909 183.273C114.74 183.584 114.655 183.962 114.655 184.406Z" fill="white"/>
    </g>
    <line y1="75.75" x2="267" y2="75.75" stroke="white" stroke-width="0.5"/>
    <line x1="23.75" y1="210.5" x2="23.75" y2="35" stroke="white" stroke-width="0.5"/>
    <defs>
        <filter id="filter0_d_2_126" x="41.8295" y="39.5" width="84.771" height="31.1136" filterUnits="userSpaceOnUse" color-interpolation-filters="sRGB">
            <feFlood flood-opacity="0" result="BackgroundImageFix"/>
            <feColorMatrix in="SourceAlpha" type="matrix" values="0 0 0 0 0 0 0 0 0 0 0 0 0 0 0 0 0 0 127 0" result="hardAlpha"/>
            <feOffset dy="3"/>
            <feGaussianBlur stdDeviation="1.5"/>
            <feComposite in2="hardAlpha" operator="out"/>
            <feColorMatrix type="matrix" values="0 0 0 0 0 0 0 0 0 0 0 0 0 0 0 0 0 0 0.160784 0"/>
            <feBlend mode="normal" in2="BackgroundImageFix" result="effect1_dropShadow_2_126"/>
            <feBlend mode="normal" in="SourceGraphic" in2="effect1_dropShadow_2_126" result="shape"/>
        </filter>
        <filter id="filter1_d_2_126" x="41.9773" y="98.5" width="149.802" height="99.5227" filterUnits="userSpaceOnUse" color-interpolation-filters="sRGB">
            <feFlood flood-opacity="0" result="BackgroundImageFix"/>
            <feColorMatrix in="SourceAlpha" type="matrix" values="0 0 0 0 0 0 0 0 0 0 0 0 0 0 0 0 0 0 127 0" result="hardAlpha"/>
            <feOffset dy="3"/>
            <feGaussianBlur stdDeviation="1.5"/>
            <feComposite in2="hardAlpha" operator="out"/>
            <feColorMatrix type="matrix" values="0 0 0 0 0 0 0 0 0 0 0 0 0 0 0 0 0 0 0.160784 0"/>
            <feBlend mode="normal" in2="BackgroundImageFix" result="effect1_dropShadow_2_126"/>
            <feBlend mode="normal" in="SourceGraphic" in2="effect1_dropShadow_2_126" result="shape"/>
        </filter>
    </defs>
</svg>