<svg width="267" height="211" viewBox="0 0 267 211" fill="none" xmlns="http://www.w3.org/2000/svg">
    <g filter="url(#filter0_d_2_132)">
        <path d="M47.4403 59.2955C46.0739 59.2955 44.8951 58.9938 43.9041 58.3906C42.9193 57.7812 42.1591 56.9318 41.6236 55.8423C41.0942 54.7467 40.8295 53.4725 40.8295 52.0199C40.8295 50.5672 41.0942 49.2869 41.6236 48.179C42.1591 47.0649 42.9039 46.197 43.858 45.5753C44.8182 44.9474 45.9384 44.6335 47.2188 44.6335C47.9574 44.6335 48.6868 44.7566 49.407 45.0028C50.1271 45.2491 50.7827 45.6491 51.3736 46.2031C51.9645 46.7509 52.4354 47.4773 52.7862 48.3821C53.1371 49.2869 53.3125 50.401 53.3125 51.7244V52.6477H42.3807V50.7642H51.0966C51.0966 49.964 50.9366 49.25 50.6165 48.6222C50.3026 47.9943 49.8532 47.4988 49.2685 47.1357C48.6899 46.7725 48.0066 46.5909 47.2188 46.5909C46.3509 46.5909 45.5999 46.8063 44.9659 47.2372C44.3381 47.6619 43.8549 48.2159 43.5163 48.8991C43.1778 49.5824 43.0085 50.3149 43.0085 51.0966V52.3523C43.0085 53.4233 43.1932 54.3312 43.5625 55.076C43.938 55.8146 44.4581 56.3778 45.1229 56.7656C45.7876 57.1473 46.5601 57.3381 47.4403 57.3381C48.0128 57.3381 48.5298 57.258 48.9915 57.098C49.4593 56.9318 49.8625 56.6856 50.201 56.3594C50.5395 56.027 50.8011 55.6146 50.9858 55.1222L53.0909 55.7131C52.8693 56.4271 52.4969 57.0549 51.9737 57.5966C51.4505 58.1321 50.8042 58.5507 50.0348 58.8523C49.2654 59.1477 48.4006 59.2955 47.4403 59.2955ZM67.7921 44.8182L62.5478 59H60.3319L55.0875 44.8182H57.4512L61.3659 56.1193H61.5137L65.4284 44.8182H67.7921ZM76.1064 59.2955C74.7399 59.2955 73.5611 58.9938 72.5701 58.3906C71.5853 57.7812 70.8251 56.9318 70.2896 55.8423C69.7602 54.7467 69.4956 53.4725 69.4956 52.0199C69.4956 50.5672 69.7602 49.2869 70.2896 48.179C70.8251 47.0649 71.5699 46.197 72.524 45.5753C73.4842 44.9474 74.6045 44.6335 75.8848 44.6335C76.6234 44.6335 77.3528 44.7566 78.073 45.0028C78.7931 45.2491 79.4487 45.6491 80.0396 46.2031C80.6305 46.7509 81.1014 47.4773 81.4522 48.3821C81.8031 49.2869 81.9785 50.401 81.9785 51.7244V52.6477H71.0467V50.7642H79.7626C79.7626 49.964 79.6026 49.25 79.2825 48.6222C78.9686 47.9943 78.5192 47.4988 77.9345 47.1357C77.3559 46.7725 76.6726 46.5909 75.8848 46.5909C75.0169 46.5909 74.2659 46.8063 73.6319 47.2372C73.0041 47.6619 72.5209 48.2159 72.1824 48.8991C71.8438 49.5824 71.6745 50.3149 71.6745 51.0966V52.3523C71.6745 53.4233 71.8592 54.3312 72.2285 55.076C72.604 55.8146 73.1241 56.3778 73.7889 56.7656C74.4537 57.1473 75.2261 57.3381 76.1064 57.3381C76.6788 57.3381 77.1958 57.258 77.6575 57.098C78.1253 56.9318 78.5285 56.6856 78.867 56.3594C79.2056 56.027 79.4672 55.6146 79.6518 55.1222L81.7569 55.7131C81.5353 56.4271 81.1629 57.0549 80.6397 57.5966C80.1165 58.1321 79.4702 58.5507 78.7008 58.8523C77.9314 59.1477 77.0666 59.2955 76.1064 59.2955ZM87.4721 50.4688V59H85.2931V44.8182H87.3983V47.0341H87.5829C87.9153 46.3139 88.42 45.7353 89.0971 45.2983C89.7742 44.8551 90.6483 44.6335 91.7193 44.6335C92.6795 44.6335 93.5197 44.8305 94.2399 45.2244C94.9601 45.6122 95.5202 46.2031 95.9203 46.9972C96.3204 47.785 96.5204 48.7822 96.5204 49.9886V59H94.3414V50.1364C94.3414 49.0223 94.0521 48.1544 93.4735 47.5327C92.8949 46.9048 92.1009 46.5909 91.0914 46.5909C90.3959 46.5909 89.7742 46.7417 89.2264 47.0433C88.6847 47.3449 88.2569 47.785 87.943 48.3636C87.6291 48.9422 87.4721 49.6439 87.4721 50.4688ZM106.67 44.8182V46.6648H99.3203V44.8182H106.67ZM101.462 41.4205H103.641V54.9375C103.641 55.553 103.731 56.0147 103.909 56.3224C104.094 56.6241 104.328 56.8272 104.611 56.9318C104.9 57.0303 105.205 57.0795 105.525 57.0795C105.765 57.0795 105.962 57.0672 106.116 57.0426C106.27 57.0118 106.393 56.9872 106.485 56.9688L106.928 58.9261C106.781 58.9815 106.574 59.0369 106.31 59.0923C106.045 59.1539 105.71 59.1847 105.303 59.1847C104.688 59.1847 104.085 59.0523 103.494 58.7876C102.909 58.523 102.423 58.1198 102.035 57.5781C101.653 57.0365 101.462 56.3532 101.462 55.5284V41.4205Z" fill="white"/>
    </g>
    <g filter="url(#filter1_d_2_132)">
        <path d="M41.5739 111.864V101.364H42.7074V102.577H42.8466C42.9328 102.444 43.0521 102.275 43.2045 102.07C43.3603 101.861 43.5824 101.675 43.8707 101.513C44.1624 101.347 44.5568 101.264 45.054 101.264C45.697 101.264 46.2637 101.425 46.7543 101.746C47.2448 102.068 47.6276 102.524 47.9027 103.114C48.1778 103.704 48.3153 104.4 48.3153 105.202C48.3153 106.01 48.1778 106.711 47.9027 107.305C47.6276 107.895 47.2464 108.352 46.7592 108.677C46.272 108.998 45.7102 109.159 45.0739 109.159C44.5833 109.159 44.1906 109.078 43.8956 108.915C43.6006 108.75 43.3736 108.562 43.2145 108.354C43.0554 108.142 42.9328 107.966 42.8466 107.827H42.7472V111.864H41.5739ZM42.7273 105.182C42.7273 105.759 42.8118 106.267 42.9808 106.708C43.1499 107.146 43.3968 107.489 43.7216 107.737C44.0464 107.982 44.4441 108.105 44.9148 108.105C45.4053 108.105 45.8146 107.976 46.1428 107.717C46.4742 107.455 46.7228 107.104 46.8885 106.663C47.0575 106.219 47.142 105.725 47.142 105.182C47.142 104.645 47.0592 104.161 46.8935 103.73C46.7311 103.296 46.4841 102.953 46.1527 102.701C45.8246 102.446 45.4119 102.318 44.9148 102.318C44.4375 102.318 44.0365 102.439 43.7116 102.681C43.3868 102.92 43.1416 103.254 42.9759 103.685C42.8101 104.113 42.7273 104.612 42.7273 105.182ZM50.1051 109V101.364H51.2386V102.517H51.3182C51.4574 102.139 51.7093 101.833 52.0739 101.597C52.4384 101.362 52.8494 101.244 53.3068 101.244C53.393 101.244 53.5007 101.246 53.63 101.249C53.7592 101.253 53.857 101.258 53.9233 101.264V102.457C53.8835 102.447 53.7924 102.433 53.6499 102.413C53.5107 102.389 53.3632 102.378 53.2074 102.378C52.8362 102.378 52.5047 102.456 52.2131 102.612C51.9247 102.764 51.696 102.976 51.527 103.248C51.3613 103.516 51.2784 103.823 51.2784 104.168V109H50.1051ZM58.1839 109.159C57.4946 109.159 56.8897 108.995 56.3693 108.667C55.8523 108.339 55.4479 107.88 55.1562 107.29C54.8679 106.7 54.7237 106.01 54.7237 105.222C54.7237 104.426 54.8679 103.732 55.1562 103.138C55.4479 102.545 55.8523 102.085 56.3693 101.756C56.8897 101.428 57.4946 101.264 58.1839 101.264C58.8733 101.264 59.4766 101.428 59.9936 101.756C60.514 102.085 60.9183 102.545 61.2067 103.138C61.4983 103.732 61.6442 104.426 61.6442 105.222C61.6442 106.01 61.4983 106.7 61.2067 107.29C60.9183 107.88 60.514 108.339 59.9936 108.667C59.4766 108.995 58.8733 109.159 58.1839 109.159ZM58.1839 108.105C58.7076 108.105 59.1385 107.971 59.4766 107.702C59.8146 107.434 60.0649 107.081 60.2273 106.643C60.3897 106.206 60.4709 105.732 60.4709 105.222C60.4709 104.711 60.3897 104.236 60.2273 103.795C60.0649 103.354 59.8146 102.998 59.4766 102.726C59.1385 102.454 58.7076 102.318 58.1839 102.318C57.6603 102.318 57.2294 102.454 56.8913 102.726C56.5533 102.998 56.303 103.354 56.1406 103.795C55.9782 104.236 55.897 104.711 55.897 105.222C55.897 105.732 55.9782 106.206 56.1406 106.643C56.303 107.081 56.5533 107.434 56.8913 107.702C57.2294 107.971 57.6603 108.105 58.1839 108.105ZM66.3187 109.159C65.6824 109.159 65.1206 108.998 64.6333 108.677C64.1461 108.352 63.765 107.895 63.4899 107.305C63.2148 106.711 63.0772 106.01 63.0772 105.202C63.0772 104.4 63.2148 103.704 63.4899 103.114C63.765 102.524 64.1478 102.068 64.6383 101.746C65.1288 101.425 65.6956 101.264 66.3386 101.264C66.8358 101.264 67.2285 101.347 67.5169 101.513C67.8085 101.675 68.0306 101.861 68.1831 102.07C68.3388 102.275 68.4598 102.444 68.546 102.577H68.6454V98.8182H69.8187V109H68.6852V107.827H68.546C68.4598 107.966 68.3372 108.142 68.1781 108.354C68.019 108.562 67.792 108.75 67.497 108.915C67.202 109.078 66.8092 109.159 66.3187 109.159ZM66.4778 108.105C66.9484 108.105 67.3462 107.982 67.671 107.737C67.9958 107.489 68.2427 107.146 68.4118 106.708C68.5808 106.267 68.6653 105.759 68.6653 105.182C68.6653 104.612 68.5824 104.113 68.4167 103.685C68.251 103.254 68.0057 102.92 67.6809 102.681C67.3561 102.439 66.9551 102.318 66.4778 102.318C65.9806 102.318 65.5663 102.446 65.2349 102.701C64.9068 102.953 64.6599 103.296 64.4941 103.73C64.3317 104.161 64.2505 104.645 64.2505 105.182C64.2505 105.725 64.3334 106.219 64.4991 106.663C64.6681 107.104 64.9167 107.455 65.2449 107.717C65.5763 107.976 65.9873 108.105 66.4778 108.105ZM76.943 105.878V101.364H78.1163V109H76.943V107.707H76.8635C76.6845 108.095 76.4061 108.425 76.0282 108.697C75.6504 108.965 75.1731 109.099 74.5964 109.099C74.1191 109.099 73.6949 108.995 73.3237 108.786C72.9525 108.574 72.6608 108.256 72.4487 107.832C72.2366 107.404 72.1305 106.866 72.1305 106.216V101.364H73.3038V106.136C73.3038 106.693 73.4596 107.137 73.7711 107.469C74.086 107.8 74.487 107.966 74.9743 107.966C75.2659 107.966 75.5626 107.891 75.8642 107.742C76.1691 107.593 76.4243 107.364 76.6298 107.056C76.8386 106.748 76.943 106.355 76.943 105.878ZM83.3675 109.159C82.6516 109.159 82.0352 108.99 81.5181 108.652C81.0011 108.314 80.6033 107.848 80.3249 107.255C80.0465 106.662 79.9073 105.984 79.9073 105.222C79.9073 104.446 80.0498 103.762 80.3349 103.168C80.6232 102.572 81.0243 102.106 81.538 101.771C82.055 101.433 82.6583 101.264 83.3477 101.264C83.8846 101.264 84.3685 101.364 84.7994 101.562C85.2302 101.761 85.5832 102.04 85.8583 102.398C86.1334 102.756 86.3041 103.173 86.3704 103.651H85.1971C85.1076 103.303 84.9087 102.994 84.6005 102.726C84.2956 102.454 83.8846 102.318 83.3675 102.318C82.9102 102.318 82.5091 102.437 82.1644 102.676C81.823 102.911 81.5562 103.245 81.364 103.675C81.1751 104.103 81.0806 104.605 81.0806 105.182C81.0806 105.772 81.1734 106.286 81.359 106.723C81.5479 107.161 81.8131 107.5 82.1545 107.742C82.4992 107.984 82.9035 108.105 83.3675 108.105C83.6725 108.105 83.9492 108.052 84.1978 107.946C84.4464 107.84 84.6568 107.688 84.8292 107.489C85.0015 107.29 85.1242 107.051 85.1971 106.773H86.3704C86.3041 107.223 86.14 107.629 85.8782 107.991C85.6197 108.349 85.2766 108.634 84.8491 108.846C84.4248 109.055 83.931 109.159 83.3675 109.159ZM91.2873 109.159C90.5515 109.159 89.9168 108.997 89.3832 108.672C88.8529 108.344 88.4435 107.886 88.1552 107.3C87.8701 106.71 87.7276 106.024 87.7276 105.241C87.7276 104.459 87.8701 103.77 88.1552 103.173C88.4435 102.573 88.8446 102.106 89.3583 101.771C89.8754 101.433 90.4786 101.264 91.168 101.264C91.5657 101.264 91.9585 101.33 92.3462 101.463C92.734 101.596 93.087 101.811 93.4052 102.109C93.7234 102.404 93.9769 102.795 94.1658 103.283C94.3548 103.77 94.4492 104.37 94.4492 105.082V105.58H88.5629V104.565H93.256C93.256 104.134 93.1699 103.75 92.9975 103.412C92.8285 103.074 92.5865 102.807 92.2717 102.612C91.9601 102.416 91.5922 102.318 91.168 102.318C90.7006 102.318 90.2963 102.434 89.9549 102.666C89.6168 102.895 89.3567 103.193 89.1744 103.561C88.9921 103.929 88.9009 104.323 88.9009 104.744V105.42C88.9009 105.997 89.0004 106.486 89.1992 106.887C89.4014 107.285 89.6815 107.588 90.0394 107.797C90.3974 108.002 90.8133 108.105 91.2873 108.105C91.5955 108.105 91.8739 108.062 92.1225 107.976C92.3744 107.886 92.5915 107.754 92.7738 107.578C92.9561 107.399 93.0969 107.177 93.1964 106.912L94.3299 107.23C94.2106 107.615 94.0101 107.953 93.7283 108.244C93.4466 108.533 93.0986 108.758 92.6843 108.92C92.27 109.08 91.8043 109.159 91.2873 109.159ZM44.4574 129.159C43.821 129.159 43.2592 128.998 42.772 128.677C42.2848 128.352 41.9036 127.895 41.6286 127.305C41.3535 126.711 41.2159 126.01 41.2159 125.202C41.2159 124.4 41.3535 123.704 41.6286 123.114C41.9036 122.524 42.2865 122.068 42.777 121.746C43.2675 121.425 43.8343 121.264 44.4773 121.264C44.9744 121.264 45.3672 121.347 45.6555 121.513C45.9472 121.675 46.1693 121.861 46.3217 122.07C46.4775 122.275 46.5985 122.444 46.6847 122.577H46.7841V118.818H47.9574V129H46.8239V127.827H46.6847C46.5985 127.966 46.4759 128.142 46.3168 128.354C46.1577 128.562 45.9306 128.75 45.6357 128.915C45.3407 129.078 44.9479 129.159 44.4574 129.159ZM44.6165 128.105C45.0871 128.105 45.4848 127.982 45.8097 127.737C46.1345 127.489 46.3814 127.146 46.5504 126.708C46.7195 126.267 46.804 125.759 46.804 125.182C46.804 124.612 46.7211 124.113 46.5554 123.685C46.3897 123.254 46.1444 122.92 45.8196 122.681C45.4948 122.439 45.0938 122.318 44.6165 122.318C44.1193 122.318 43.705 122.446 43.3736 122.701C43.0455 122.953 42.7985 123.296 42.6328 123.73C42.4704 124.161 42.3892 124.645 42.3892 125.182C42.3892 125.725 42.4721 126.219 42.6378 126.663C42.8068 127.104 43.0554 127.455 43.3835 127.717C43.715 127.976 44.1259 128.105 44.6165 128.105ZM50.2692 129V121.364H51.4425V129H50.2692ZM50.8658 120.091C50.6371 120.091 50.4399 120.013 50.2741 119.857C50.1117 119.701 50.0305 119.514 50.0305 119.295C50.0305 119.077 50.1117 118.889 50.2741 118.734C50.4399 118.578 50.6371 118.5 50.8658 118.5C51.0945 118.5 51.29 118.578 51.4524 118.734C51.6181 118.889 51.701 119.077 51.701 119.295C51.701 119.514 51.6181 119.701 51.4524 119.857C51.29 120.013 51.0945 120.091 50.8658 120.091ZM53.5914 129V121.364H54.725V122.517H54.8045C54.9437 122.139 55.1956 121.833 55.5602 121.597C55.9248 121.362 56.3358 121.244 56.7931 121.244C56.8793 121.244 56.987 121.246 57.1163 121.249C57.2456 121.253 57.3433 121.258 57.4096 121.264V122.457C57.3699 122.447 57.2787 122.433 57.1362 122.413C56.997 122.389 56.8495 122.378 56.6937 122.378C56.3225 122.378 55.9911 122.456 55.6994 122.612C55.411 122.764 55.1824 122.976 55.0133 123.248C54.8476 123.516 54.7647 123.823 54.7647 124.168V129H53.5914ZM61.7697 129.159C61.0339 129.159 60.3992 128.997 59.8656 128.672C59.3353 128.344 58.926 127.886 58.6376 127.3C58.3526 126.71 58.21 126.024 58.21 125.241C58.21 124.459 58.3526 123.77 58.6376 123.173C58.926 122.573 59.327 122.106 59.8407 121.771C60.3578 121.433 60.961 121.264 61.6504 121.264C62.0481 121.264 62.4409 121.33 62.8287 121.463C63.2164 121.596 63.5694 121.811 63.8876 122.109C64.2058 122.404 64.4593 122.795 64.6483 123.283C64.8372 123.77 64.9316 124.37 64.9316 125.082V125.58H59.0453V124.565H63.7385C63.7385 124.134 63.6523 123.75 63.4799 123.412C63.3109 123.074 63.069 122.807 62.7541 122.612C62.4425 122.416 62.0746 122.318 61.6504 122.318C61.1831 122.318 60.7787 122.434 60.4373 122.666C60.0993 122.895 59.8391 123.193 59.6568 123.561C59.4745 123.929 59.3833 124.323 59.3833 124.744V125.42C59.3833 125.997 59.4828 126.486 59.6816 126.887C59.8838 127.285 60.1639 127.588 60.5218 127.797C60.8798 128.002 61.2958 128.105 61.7697 128.105C62.0779 128.105 62.3564 128.062 62.6049 127.976C62.8568 127.886 63.0739 127.754 63.2562 127.578C63.4385 127.399 63.5794 127.177 63.6788 126.912L64.8123 127.23C64.693 127.615 64.4925 127.953 64.2108 128.244C63.929 128.533 63.581 128.758 63.1667 128.92C62.7524 129.08 62.2868 129.159 61.7697 129.159ZM69.8187 129.159C69.1028 129.159 68.4863 128.99 67.9693 128.652C67.4522 128.314 67.0545 127.848 66.7761 127.255C66.4977 126.662 66.3585 125.984 66.3585 125.222C66.3585 124.446 66.501 123.762 66.786 123.168C67.0744 122.572 67.4754 122.106 67.9892 121.771C68.5062 121.433 69.1094 121.264 69.7988 121.264C70.3358 121.264 70.8197 121.364 71.2505 121.562C71.6814 121.761 72.0344 122.04 72.3095 122.398C72.5846 122.756 72.7553 123.173 72.8216 123.651H71.6483C71.5588 123.303 71.3599 122.994 71.0517 122.726C70.7467 122.454 70.3358 122.318 69.8187 122.318C69.3613 122.318 68.9603 122.437 68.6156 122.676C68.2742 122.911 68.0074 123.245 67.8152 123.675C67.6262 124.103 67.5318 124.605 67.5318 125.182C67.5318 125.772 67.6246 126.286 67.8102 126.723C67.9991 127.161 68.2643 127.5 68.6056 127.742C68.9503 127.984 69.3547 128.105 69.8187 128.105C70.1236 128.105 70.4004 128.052 70.649 127.946C70.8975 127.84 71.108 127.688 71.2804 127.489C71.4527 127.29 71.5753 127.051 71.6483 126.773H72.8216C72.7553 127.223 72.5912 127.629 72.3294 127.991C72.0708 128.349 71.7278 128.634 71.3002 128.846C70.876 129.055 70.3822 129.159 69.8187 129.159ZM77.8578 121.364V122.358H73.9004V121.364H77.8578ZM75.0538 119.534H76.2271V126.812C76.2271 127.144 76.2752 127.393 76.3713 127.558C76.4707 127.721 76.5967 127.83 76.7491 127.886C76.9049 127.939 77.069 127.966 77.2413 127.966C77.3706 127.966 77.4766 127.959 77.5595 127.946C77.6423 127.929 77.7086 127.916 77.7583 127.906L77.997 128.96C77.9174 128.99 77.8064 129.02 77.6639 129.05C77.5214 129.083 77.3407 129.099 77.122 129.099C76.7905 129.099 76.4657 129.028 76.1475 128.886C75.8327 128.743 75.5708 128.526 75.362 128.234C75.1565 127.943 75.0538 127.575 75.0538 127.131V119.534ZM79.6227 129V121.364H80.796V129H79.6227ZM80.2193 120.091C79.9906 120.091 79.7934 120.013 79.6277 119.857C79.4653 119.701 79.3841 119.514 79.3841 119.295C79.3841 119.077 79.4653 118.889 79.6277 118.734C79.7934 118.578 79.9906 118.5 80.2193 118.5C80.448 118.5 80.6435 118.578 80.8059 118.734C80.9717 118.889 81.0545 119.077 81.0545 119.295C81.0545 119.514 80.9717 119.701 80.8059 119.857C80.6435 120.013 80.448 120.091 80.2193 120.091ZM86.0472 129.159C85.3578 129.159 84.753 128.995 84.2326 128.667C83.7156 128.339 83.3112 127.88 83.0195 127.29C82.7312 126.7 82.587 126.01 82.587 125.222C82.587 124.426 82.7312 123.732 83.0195 123.138C83.3112 122.545 83.7156 122.085 84.2326 121.756C84.753 121.428 85.3578 121.264 86.0472 121.264C86.7366 121.264 87.3398 121.428 87.8569 121.756C88.3772 122.085 88.7816 122.545 89.07 123.138C89.3616 123.732 89.5075 124.426 89.5075 125.222C89.5075 126.01 89.3616 126.7 89.07 127.29C88.7816 127.88 88.3772 128.339 87.8569 128.667C87.3398 128.995 86.7366 129.159 86.0472 129.159ZM86.0472 128.105C86.5709 128.105 87.0018 127.971 87.3398 127.702C87.6779 127.434 87.9281 127.081 88.0906 126.643C88.253 126.206 88.3342 125.732 88.3342 125.222C88.3342 124.711 88.253 124.236 88.0906 123.795C87.9281 123.354 87.6779 122.998 87.3398 122.726C87.0018 122.454 86.5709 122.318 86.0472 122.318C85.5236 122.318 85.0927 122.454 84.7546 122.726C84.4165 122.998 84.1663 123.354 84.0039 123.795C83.8415 124.236 83.7603 124.711 83.7603 125.222C83.7603 125.732 83.8415 126.206 84.0039 126.643C84.1663 127.081 84.4165 127.434 84.7546 127.702C85.0927 127.971 85.5236 128.105 86.0472 128.105ZM92.4718 124.406V129H91.2985V121.364H92.432V122.557H92.5314C92.7104 122.169 92.9822 121.857 93.3468 121.622C93.7114 121.384 94.182 121.264 94.7587 121.264C95.2757 121.264 95.7282 121.37 96.1159 121.582C96.5037 121.791 96.8053 122.109 97.0208 122.537C97.2362 122.961 97.3439 123.498 97.3439 124.148V129H96.1706V124.227C96.1706 123.627 96.0149 123.16 95.7033 122.825C95.3917 122.487 94.9642 122.318 94.4206 122.318C94.0461 122.318 93.7114 122.399 93.4164 122.562C93.1247 122.724 92.8944 122.961 92.7253 123.273C92.5563 123.584 92.4718 123.962 92.4718 124.406ZM41.5739 151.864V141.364H42.7074V142.577H42.8466C42.9328 142.444 43.0521 142.275 43.2045 142.07C43.3603 141.861 43.5824 141.675 43.8707 141.513C44.1624 141.347 44.5568 141.264 45.054 141.264C45.697 141.264 46.2637 141.425 46.7543 141.746C47.2448 142.068 47.6276 142.524 47.9027 143.114C48.1778 143.704 48.3153 144.4 48.3153 145.202C48.3153 146.01 48.1778 146.711 47.9027 147.305C47.6276 147.895 47.2464 148.352 46.7592 148.677C46.272 148.998 45.7102 149.159 45.0739 149.159C44.5833 149.159 44.1906 149.078 43.8956 148.915C43.6006 148.75 43.3736 148.562 43.2145 148.354C43.0554 148.142 42.9328 147.966 42.8466 147.827H42.7472V151.864H41.5739ZM42.7273 145.182C42.7273 145.759 42.8118 146.267 42.9808 146.708C43.1499 147.146 43.3968 147.489 43.7216 147.737C44.0464 147.982 44.4441 148.105 44.9148 148.105C45.4053 148.105 45.8146 147.976 46.1428 147.717C46.4742 147.455 46.7228 147.104 46.8885 146.663C47.0575 146.219 47.142 145.725 47.142 145.182C47.142 144.645 47.0592 144.161 46.8935 143.73C46.7311 143.296 46.4841 142.953 46.1527 142.701C45.8246 142.446 45.4119 142.318 44.9148 142.318C44.4375 142.318 44.0365 142.439 43.7116 142.681C43.3868 142.92 43.1416 143.254 42.9759 143.685C42.8101 144.113 42.7273 144.612 42.7273 145.182ZM50.1051 149V141.364H51.2386V142.517H51.3182C51.4574 142.139 51.7093 141.833 52.0739 141.597C52.4384 141.362 52.8494 141.244 53.3068 141.244C53.393 141.244 53.5007 141.246 53.63 141.249C53.7592 141.253 53.857 141.258 53.9233 141.264V142.457C53.8835 142.447 53.7924 142.433 53.6499 142.413C53.5107 142.389 53.3632 142.378 53.2074 142.378C52.8362 142.378 52.5047 142.456 52.2131 142.612C51.9247 142.764 51.696 142.976 51.527 143.248C51.3613 143.516 51.2784 143.823 51.2784 144.168V149H50.1051ZM58.1839 149.159C57.4946 149.159 56.8897 148.995 56.3693 148.667C55.8523 148.339 55.4479 147.88 55.1562 147.29C54.8679 146.7 54.7237 146.01 54.7237 145.222C54.7237 144.426 54.8679 143.732 55.1562 143.138C55.4479 142.545 55.8523 142.085 56.3693 141.756C56.8897 141.428 57.4946 141.264 58.1839 141.264C58.8733 141.264 59.4766 141.428 59.9936 141.756C60.514 142.085 60.9183 142.545 61.2067 143.138C61.4983 143.732 61.6442 144.426 61.6442 145.222C61.6442 146.01 61.4983 146.7 61.2067 147.29C60.9183 147.88 60.514 148.339 59.9936 148.667C59.4766 148.995 58.8733 149.159 58.1839 149.159ZM58.1839 148.105C58.7076 148.105 59.1385 147.971 59.4766 147.702C59.8146 147.434 60.0649 147.081 60.2273 146.643C60.3897 146.206 60.4709 145.732 60.4709 145.222C60.4709 144.711 60.3897 144.236 60.2273 143.795C60.0649 143.354 59.8146 142.998 59.4766 142.726C59.1385 142.454 58.7076 142.318 58.1839 142.318C57.6603 142.318 57.2294 142.454 56.8913 142.726C56.5533 142.998 56.303 143.354 56.1406 143.795C55.9782 144.236 55.897 144.711 55.897 145.222C55.897 145.732 55.9782 146.206 56.1406 146.643C56.303 147.081 56.5533 147.434 56.8913 147.702C57.2294 147.971 57.6603 148.105 58.1839 148.105ZM66.3187 149.159C65.6824 149.159 65.1206 148.998 64.6333 148.677C64.1461 148.352 63.765 147.895 63.4899 147.305C63.2148 146.711 63.0772 146.01 63.0772 145.202C63.0772 144.4 63.2148 143.704 63.4899 143.114C63.765 142.524 64.1478 142.068 64.6383 141.746C65.1288 141.425 65.6956 141.264 66.3386 141.264C66.8358 141.264 67.2285 141.347 67.5169 141.513C67.8085 141.675 68.0306 141.861 68.1831 142.07C68.3388 142.275 68.4598 142.444 68.546 142.577H68.6454V138.818H69.8187V149H68.6852V147.827H68.546C68.4598 147.966 68.3372 148.142 68.1781 148.354C68.019 148.562 67.792 148.75 67.497 148.915C67.202 149.078 66.8092 149.159 66.3187 149.159ZM66.4778 148.105C66.9484 148.105 67.3462 147.982 67.671 147.737C67.9958 147.489 68.2427 147.146 68.4118 146.708C68.5808 146.267 68.6653 145.759 68.6653 145.182C68.6653 144.612 68.5824 144.113 68.4167 143.685C68.251 143.254 68.0057 142.92 67.6809 142.681C67.3561 142.439 66.9551 142.318 66.4778 142.318C65.9806 142.318 65.5663 142.446 65.2349 142.701C64.9068 142.953 64.6599 143.296 64.4941 143.73C64.3317 144.161 64.2505 144.645 64.2505 145.182C64.2505 145.725 64.3334 146.219 64.4991 146.663C64.6681 147.104 64.9167 147.455 65.2449 147.717C65.5763 147.976 65.9873 148.105 66.4778 148.105ZM76.943 145.878V141.364H78.1163V149H76.943V147.707H76.8635C76.6845 148.095 76.4061 148.425 76.0282 148.697C75.6504 148.965 75.1731 149.099 74.5964 149.099C74.1191 149.099 73.6949 148.995 73.3237 148.786C72.9525 148.574 72.6608 148.256 72.4487 147.832C72.2366 147.404 72.1305 146.866 72.1305 146.216V141.364H73.3038V146.136C73.3038 146.693 73.4596 147.137 73.7711 147.469C74.086 147.8 74.487 147.966 74.9743 147.966C75.2659 147.966 75.5626 147.891 75.8642 147.742C76.1691 147.593 76.4243 147.364 76.6298 147.056C76.8386 146.748 76.943 146.355 76.943 145.878ZM83.3675 149.159C82.6516 149.159 82.0352 148.99 81.5181 148.652C81.0011 148.314 80.6033 147.848 80.3249 147.255C80.0465 146.662 79.9073 145.984 79.9073 145.222C79.9073 144.446 80.0498 143.762 80.3349 143.168C80.6232 142.572 81.0243 142.106 81.538 141.771C82.055 141.433 82.6583 141.264 83.3477 141.264C83.8846 141.264 84.3685 141.364 84.7994 141.562C85.2302 141.761 85.5832 142.04 85.8583 142.398C86.1334 142.756 86.3041 143.173 86.3704 143.651H85.1971C85.1076 143.303 84.9087 142.994 84.6005 142.726C84.2956 142.454 83.8846 142.318 83.3675 142.318C82.9102 142.318 82.5091 142.437 82.1644 142.676C81.823 142.911 81.5562 143.245 81.364 143.675C81.1751 144.103 81.0806 144.605 81.0806 145.182C81.0806 145.772 81.1734 146.286 81.359 146.723C81.5479 147.161 81.8131 147.5 82.1545 147.742C82.4992 147.984 82.9035 148.105 83.3675 148.105C83.6725 148.105 83.9492 148.052 84.1978 147.946C84.4464 147.84 84.6568 147.688 84.8292 147.489C85.0015 147.29 85.1242 147.051 85.1971 146.773H86.3704C86.3041 147.223 86.14 147.629 85.8782 147.991C85.6197 148.349 85.2766 148.634 84.8491 148.846C84.4248 149.055 83.931 149.159 83.3675 149.159ZM91.4066 141.364V142.358H87.4492V141.364H91.4066ZM88.6026 139.534H89.7759V146.812C89.7759 147.144 89.824 147.393 89.9201 147.558C90.0195 147.721 90.1455 147.83 90.2979 147.886C90.4537 147.939 90.6178 147.966 90.7901 147.966C90.9194 147.966 91.0255 147.959 91.1083 147.946C91.1912 147.929 91.2575 147.916 91.3072 147.906L91.5458 148.96C91.4663 148.99 91.3552 149.02 91.2127 149.05C91.0702 149.083 90.8896 149.099 90.6708 149.099C90.3394 149.099 90.0146 149.028 89.6964 148.886C89.3815 148.743 89.1197 148.526 88.9109 148.234C88.7054 147.943 88.6026 147.575 88.6026 147.131V139.534ZM93.1715 149V141.364H94.3448V149H93.1715ZM93.7681 140.091C93.5394 140.091 93.3422 140.013 93.1765 139.857C93.0141 139.701 92.9329 139.514 92.9329 139.295C92.9329 139.077 93.0141 138.889 93.1765 138.734C93.3422 138.578 93.5394 138.5 93.7681 138.5C93.9968 138.5 94.1924 138.578 94.3548 138.734C94.5205 138.889 94.6033 139.077 94.6033 139.295C94.6033 139.514 94.5205 139.701 94.3548 139.857C94.1924 140.013 93.9968 140.091 93.7681 140.091ZM99.5961 149.159C98.9067 149.159 98.3018 148.995 97.7814 148.667C97.2644 148.339 96.86 147.88 96.5684 147.29C96.28 146.7 96.1358 146.01 96.1358 145.222C96.1358 144.426 96.28 143.732 96.5684 143.138C96.86 142.545 97.2644 142.085 97.7814 141.756C98.3018 141.428 98.9067 141.264 99.5961 141.264C100.285 141.264 100.889 141.428 101.406 141.756C101.926 142.085 102.33 142.545 102.619 143.138C102.91 143.732 103.056 144.426 103.056 145.222C103.056 146.01 102.91 146.7 102.619 147.29C102.33 147.88 101.926 148.339 101.406 148.667C100.889 148.995 100.285 149.159 99.5961 149.159ZM99.5961 148.105C100.12 148.105 100.551 147.971 100.889 147.702C101.227 147.434 101.477 147.081 101.639 146.643C101.802 146.206 101.883 145.732 101.883 145.222C101.883 144.711 101.802 144.236 101.639 143.795C101.477 143.354 101.227 142.998 100.889 142.726C100.551 142.454 100.12 142.318 99.5961 142.318C99.0724 142.318 98.6415 142.454 98.3034 142.726C97.9654 142.998 97.7151 143.354 97.5527 143.795C97.3903 144.236 97.3091 144.711 97.3091 145.222C97.3091 145.732 97.3903 146.206 97.5527 146.643C97.7151 147.081 97.9654 147.434 98.3034 147.702C98.6415 147.971 99.0724 148.105 99.5961 148.105ZM106.021 144.406V149H104.847V141.364H105.981V142.557H106.08C106.259 142.169 106.531 141.857 106.896 141.622C107.26 141.384 107.731 141.264 108.308 141.264C108.825 141.264 109.277 141.37 109.665 141.582C110.053 141.791 110.354 142.109 110.57 142.537C110.785 142.961 110.893 143.498 110.893 144.148V149H109.719V144.227C109.719 143.627 109.564 143.16 109.252 142.825C108.941 142.487 108.513 142.318 107.969 142.318C107.595 142.318 107.26 142.399 106.965 142.562C106.674 142.724 106.443 142.961 106.274 143.273C106.105 143.584 106.021 143.962 106.021 144.406ZM44.4574 169.159C43.821 169.159 43.2592 168.998 42.772 168.677C42.2848 168.352 41.9036 167.895 41.6286 167.305C41.3535 166.711 41.2159 166.01 41.2159 165.202C41.2159 164.4 41.3535 163.704 41.6286 163.114C41.9036 162.524 42.2865 162.068 42.777 161.746C43.2675 161.425 43.8343 161.264 44.4773 161.264C44.9744 161.264 45.3672 161.347 45.6555 161.513C45.9472 161.675 46.1693 161.861 46.3217 162.07C46.4775 162.275 46.5985 162.444 46.6847 162.577H46.7841V158.818H47.9574V169H46.8239V167.827H46.6847C46.5985 167.966 46.4759 168.142 46.3168 168.354C46.1577 168.562 45.9306 168.75 45.6357 168.915C45.3407 169.078 44.9479 169.159 44.4574 169.159ZM44.6165 168.105C45.0871 168.105 45.4848 167.982 45.8097 167.737C46.1345 167.489 46.3814 167.146 46.5504 166.708C46.7195 166.267 46.804 165.759 46.804 165.182C46.804 164.612 46.7211 164.113 46.5554 163.685C46.3897 163.254 46.1444 162.92 45.8196 162.681C45.4948 162.439 45.0938 162.318 44.6165 162.318C44.1193 162.318 43.705 162.446 43.3736 162.701C43.0455 162.953 42.7985 163.296 42.6328 163.73C42.4704 164.161 42.3892 164.645 42.3892 165.182C42.3892 165.725 42.4721 166.219 42.6378 166.663C42.8068 167.104 43.0554 167.455 43.3835 167.717C43.715 167.976 44.1259 168.105 44.6165 168.105ZM50.2692 169V161.364H51.4425V169H50.2692ZM50.8658 160.091C50.6371 160.091 50.4399 160.013 50.2741 159.857C50.1117 159.701 50.0305 159.514 50.0305 159.295C50.0305 159.077 50.1117 158.889 50.2741 158.734C50.4399 158.578 50.6371 158.5 50.8658 158.5C51.0945 158.5 51.29 158.578 51.4524 158.734C51.6181 158.889 51.701 159.077 51.701 159.295C51.701 159.514 51.6181 159.701 51.4524 159.857C51.29 160.013 51.0945 160.091 50.8658 160.091ZM59.0005 163.074L57.9466 163.372C57.8803 163.196 57.7825 163.026 57.6532 162.86C57.5273 162.691 57.3549 162.552 57.1362 162.442C56.9174 162.333 56.6374 162.278 56.296 162.278C55.8287 162.278 55.4392 162.386 55.1277 162.602C54.8194 162.814 54.6653 163.084 54.6653 163.412C54.6653 163.704 54.7714 163.934 54.9835 164.103C55.1956 164.272 55.527 164.413 55.9778 164.526L57.1113 164.804C57.7941 164.97 58.3029 165.223 58.6376 165.565C58.9724 165.903 59.1397 166.339 59.1397 166.872C59.1397 167.31 59.0138 167.701 58.7619 168.045C58.5133 168.39 58.1653 168.662 57.7179 168.861C57.2704 169.06 56.7501 169.159 56.1568 169.159C55.3779 169.159 54.7333 168.99 54.2228 168.652C53.7124 168.314 53.3893 167.82 53.2534 167.17L54.367 166.892C54.4731 167.303 54.6736 167.611 54.9686 167.817C55.2669 168.022 55.6563 168.125 56.1369 168.125C56.6838 168.125 57.118 168.009 57.4395 167.777C57.7643 167.542 57.9267 167.26 57.9267 166.932C57.9267 166.667 57.8339 166.445 57.6483 166.266C57.4627 166.083 57.1776 165.947 56.7931 165.858L55.5204 165.56C54.8211 165.394 54.3074 165.137 53.9792 164.789C53.6544 164.438 53.492 163.999 53.492 163.472C53.492 163.041 53.613 162.66 53.8549 162.328C54.1002 161.997 54.4333 161.737 54.8542 161.548C55.2785 161.359 55.7591 161.264 56.296 161.264C57.0517 161.264 57.6449 161.43 58.0758 161.761C58.51 162.093 58.8182 162.53 59.0005 163.074ZM60.9059 171.864V161.364H62.0394V162.577H62.1786C62.2648 162.444 62.3841 162.275 62.5366 162.07C62.6924 161.861 62.9144 161.675 63.2028 161.513C63.4944 161.347 63.8888 161.264 64.386 161.264C65.029 161.264 65.5958 161.425 66.0863 161.746C66.5768 162.068 66.9596 162.524 67.2347 163.114C67.5098 163.704 67.6474 164.4 67.6474 165.202C67.6474 166.01 67.5098 166.711 67.2347 167.305C66.9596 167.895 66.5785 168.352 66.0913 168.677C65.604 168.998 65.0423 169.159 64.4059 169.159C63.9154 169.159 63.5226 169.078 63.2276 168.915C62.9326 168.75 62.7056 168.562 62.5465 168.354C62.3874 168.142 62.2648 167.966 62.1786 167.827H62.0792V171.864H60.9059ZM62.0593 165.182C62.0593 165.759 62.1438 166.267 62.3129 166.708C62.4819 167.146 62.7288 167.489 63.0536 167.737C63.3784 167.982 63.7762 168.105 64.2468 168.105C64.7373 168.105 65.1467 167.976 65.4748 167.717C65.8062 167.455 66.0548 167.104 66.2205 166.663C66.3896 166.219 66.4741 165.725 66.4741 165.182C66.4741 164.645 66.3912 164.161 66.2255 163.73C66.0631 163.296 65.8162 162.953 65.4847 162.701C65.1566 162.446 64.744 162.318 64.2468 162.318C63.7695 162.318 63.3685 162.439 63.0437 162.681C62.7189 162.92 62.4736 163.254 62.3079 163.685C62.1422 164.113 62.0593 164.612 62.0593 165.182ZM70.6104 158.818V169H69.4371V158.818H70.6104ZM75.0066 169.179C74.5227 169.179 74.0835 169.088 73.6891 168.906C73.2947 168.72 72.9815 168.453 72.7495 168.105C72.5175 167.754 72.4015 167.33 72.4015 166.832C72.4015 166.395 72.4876 166.04 72.66 165.768C72.8323 165.493 73.0627 165.278 73.351 165.122C73.6394 164.966 73.9576 164.85 74.3056 164.774C74.6569 164.695 75.0099 164.632 75.3645 164.585C75.8285 164.526 76.2047 164.481 76.4931 164.451C76.7847 164.418 76.9969 164.363 77.1294 164.287C77.2653 164.211 77.3333 164.078 77.3333 163.889V163.849C77.3333 163.359 77.199 162.978 76.9306 162.706C76.6654 162.434 76.2627 162.298 75.7225 162.298C75.1623 162.298 74.7232 162.421 74.405 162.666C74.0868 162.911 73.8631 163.173 73.7338 163.452L72.6202 163.054C72.8191 162.59 73.0842 162.229 73.4157 161.97C73.7504 161.708 74.115 161.526 74.5094 161.423C74.9071 161.317 75.2982 161.264 75.6827 161.264C75.928 161.264 76.2097 161.294 76.5279 161.354C76.8494 161.41 77.1593 161.528 77.4576 161.707C77.7592 161.886 78.0094 162.156 78.2083 162.517C78.4071 162.878 78.5066 163.362 78.5066 163.969V169H77.3333V167.966H77.2736C77.1941 168.132 77.0615 168.309 76.8759 168.498C76.6903 168.687 76.4434 168.848 76.1351 168.98C75.8269 169.113 75.4507 169.179 75.0066 169.179ZM75.1855 168.125C75.6496 168.125 76.0407 168.034 76.3588 167.852C76.6803 167.669 76.9223 167.434 77.0847 167.146C77.2504 166.857 77.3333 166.554 77.3333 166.236V165.162C77.2836 165.222 77.1742 165.276 77.0051 165.326C76.8394 165.372 76.6472 165.414 76.4284 165.45C76.213 165.483 76.0025 165.513 75.7971 165.54C75.5949 165.563 75.4308 165.583 75.3049 165.599C74.9999 165.639 74.7149 165.704 74.4498 165.793C74.1879 165.879 73.9758 166.01 73.8134 166.186C73.6543 166.358 73.5748 166.594 73.5748 166.892C73.5748 167.3 73.7256 167.608 74.0272 167.817C74.3321 168.022 74.7182 168.125 75.1855 168.125ZM81.1303 171.864C80.9315 171.864 80.7541 171.847 80.5984 171.814C80.4426 171.784 80.3349 171.754 80.2752 171.724L80.5735 170.69C80.8585 170.763 81.1104 170.79 81.3292 170.77C81.5479 170.75 81.7418 170.652 81.9109 170.477C82.0832 170.304 82.2406 170.024 82.3832 169.636L82.6019 169.04L79.7781 161.364H81.0508L83.1587 167.449H83.2383L85.3462 161.364H86.619L83.3775 170.114C83.2317 170.508 83.051 170.835 82.8356 171.093C82.6201 171.355 82.3699 171.549 82.0849 171.675C81.8031 171.801 81.485 171.864 81.1303 171.864ZM100.198 157.156L100.618 157.576L87.9898 170.204L87.5698 169.784L100.198 157.156ZM104.415 169.179C103.931 169.179 103.492 169.088 103.097 168.906C102.703 168.72 102.39 168.453 102.158 168.105C101.926 167.754 101.81 167.33 101.81 166.832C101.81 166.395 101.896 166.04 102.068 165.768C102.241 165.493 102.471 165.278 102.759 165.122C103.048 164.966 103.366 164.85 103.714 164.774C104.065 164.695 104.418 164.632 104.773 164.585C105.237 164.526 105.613 164.481 105.901 164.451C106.193 164.418 106.405 164.363 106.538 164.287C106.674 164.211 106.741 164.078 106.741 163.889V163.849C106.741 163.359 106.607 162.978 106.339 162.706C106.074 162.434 105.671 162.298 105.131 162.298C104.571 162.298 104.131 162.421 103.813 162.666C103.495 162.911 103.271 163.173 103.142 163.452L102.028 163.054C102.227 162.59 102.492 162.229 102.824 161.97C103.159 161.708 103.523 161.526 103.918 161.423C104.315 161.317 104.706 161.264 105.091 161.264C105.336 161.264 105.618 161.294 105.936 161.354C106.258 161.41 106.567 161.528 106.866 161.707C107.167 161.886 107.418 162.156 107.616 162.517C107.815 162.878 107.915 163.362 107.915 163.969V169H106.741V167.966H106.682C106.602 168.132 106.47 168.309 106.284 168.498C106.098 168.687 105.852 168.848 105.543 168.98C105.235 169.113 104.859 169.179 104.415 169.179ZM104.594 168.125C105.058 168.125 105.449 168.034 105.767 167.852C106.089 167.669 106.33 167.434 106.493 167.146C106.659 166.857 106.741 166.554 106.741 166.236V165.162C106.692 165.222 106.582 165.276 106.413 165.326C106.248 165.372 106.055 165.414 105.837 165.45C105.621 165.483 105.411 165.513 105.205 165.54C105.003 165.563 104.839 165.583 104.713 165.599C104.408 165.639 104.123 165.704 103.858 165.793C103.596 165.879 103.384 166.01 103.222 166.186C103.063 166.358 102.983 166.594 102.983 166.892C102.983 167.3 103.134 167.608 103.435 167.817C103.74 168.022 104.126 168.125 104.594 168.125ZM110.056 169V161.364H111.19V162.517H111.269C111.409 162.139 111.66 161.833 112.025 161.597C112.39 161.362 112.801 161.244 113.258 161.244C113.344 161.244 113.452 161.246 113.581 161.249C113.71 161.253 113.808 161.258 113.874 161.264V162.457C113.835 162.447 113.744 162.433 113.601 162.413C113.462 162.389 113.314 162.378 113.159 162.378C112.787 162.378 112.456 162.456 112.164 162.612C111.876 162.764 111.647 162.976 111.478 163.248C111.312 163.516 111.23 163.823 111.23 164.168V169H110.056ZM119.065 161.364V162.358H115.107V161.364H119.065ZM116.261 159.534H117.434V166.812C117.434 167.144 117.482 167.393 117.578 167.558C117.678 167.721 117.804 167.83 117.956 167.886C118.112 167.939 118.276 167.966 118.448 167.966C118.578 167.966 118.684 167.959 118.767 167.946C118.849 167.929 118.916 167.916 118.965 167.906L119.204 168.96C119.124 168.99 119.013 169.02 118.871 169.05C118.728 169.083 118.548 169.099 118.329 169.099C117.998 169.099 117.673 169.028 117.355 168.886C117.04 168.743 116.778 168.526 116.569 168.234C116.364 167.943 116.261 167.575 116.261 167.131V159.534ZM128.168 161.364V162.358H124.051V161.364H128.168ZM125.284 169V160.31C125.284 159.872 125.387 159.508 125.593 159.216C125.798 158.924 126.065 158.705 126.393 158.56C126.721 158.414 127.067 158.341 127.432 158.341C127.72 158.341 127.956 158.364 128.138 158.411C128.32 158.457 128.456 158.5 128.546 158.54L128.208 159.554C128.148 159.534 128.065 159.509 127.959 159.479C127.856 159.45 127.72 159.435 127.551 159.435C127.164 159.435 126.883 159.532 126.711 159.728C126.542 159.924 126.458 160.21 126.458 160.588V169H125.284ZM129.812 169V161.364H130.985V169H129.812ZM130.409 160.091C130.18 160.091 129.983 160.013 129.817 159.857C129.655 159.701 129.574 159.514 129.574 159.295C129.574 159.077 129.655 158.889 129.817 158.734C129.983 158.578 130.18 158.5 130.409 158.5C130.637 158.5 130.833 158.578 130.995 158.734C131.161 158.889 131.244 159.077 131.244 159.295C131.244 159.514 131.161 159.701 130.995 159.857C130.833 160.013 130.637 160.091 130.409 160.091ZM134.009 161.364L135.839 164.486L137.669 161.364H139.021L136.555 165.182L139.021 169H137.669L135.839 166.037L134.009 169H132.657L135.083 165.182L132.657 161.364H134.009ZM144.016 161.364V162.358H140.059V161.364H144.016ZM141.212 159.534H142.385V166.812C142.385 167.144 142.433 167.393 142.529 167.558C142.629 167.721 142.755 167.83 142.907 167.886C143.063 167.939 143.227 167.966 143.4 167.966C143.529 167.966 143.635 167.959 143.718 167.946C143.801 167.929 143.867 167.916 143.917 167.906L144.155 168.96C144.076 168.99 143.965 169.02 143.822 169.05C143.68 169.083 143.499 169.099 143.28 169.099C142.949 169.099 142.624 169.028 142.306 168.886C141.991 168.743 141.729 168.526 141.52 168.234C141.315 167.943 141.212 167.575 141.212 167.131V159.534ZM150.593 165.878V161.364H151.767V169H150.593V167.707H150.514C150.335 168.095 150.056 168.425 149.679 168.697C149.301 168.965 148.824 169.099 148.247 169.099C147.77 169.099 147.345 168.995 146.974 168.786C146.603 168.574 146.311 168.256 146.099 167.832C145.887 167.404 145.781 166.866 145.781 166.216V161.364H146.954V166.136C146.954 166.693 147.11 167.137 147.422 167.469C147.736 167.8 148.137 167.966 148.625 167.966C148.916 167.966 149.213 167.891 149.515 167.742C149.819 167.593 150.075 167.364 150.28 167.056C150.489 166.748 150.593 166.355 150.593 165.878ZM153.916 169V161.364H155.049V162.517H155.129C155.268 162.139 155.52 161.833 155.884 161.597C156.249 161.362 156.66 161.244 157.117 161.244C157.204 161.244 157.311 161.246 157.441 161.249C157.57 161.253 157.668 161.258 157.734 161.264V162.457C157.694 162.447 157.603 162.433 157.46 162.413C157.321 162.389 157.174 162.378 157.018 162.378C156.647 162.378 156.315 162.456 156.024 162.612C155.735 162.764 155.507 162.976 155.338 163.248C155.172 163.516 155.089 163.823 155.089 164.168V169H153.916ZM162.094 169.159C161.358 169.159 160.723 168.997 160.19 168.672C159.66 168.344 159.25 167.886 158.962 167.3C158.677 166.71 158.534 166.024 158.534 165.241C158.534 164.459 158.677 163.77 158.962 163.173C159.25 162.573 159.651 162.106 160.165 161.771C160.682 161.433 161.285 161.264 161.975 161.264C162.372 161.264 162.765 161.33 163.153 161.463C163.541 161.596 163.894 161.811 164.212 162.109C164.53 162.404 164.784 162.795 164.972 163.283C165.161 163.77 165.256 164.37 165.256 165.082V165.58H159.369V164.565H164.063C164.063 164.134 163.977 163.75 163.804 163.412C163.635 163.074 163.393 162.807 163.078 162.612C162.767 162.416 162.399 162.318 161.975 162.318C161.507 162.318 161.103 162.434 160.762 162.666C160.423 162.895 160.163 163.193 159.981 163.561C159.799 163.929 159.708 164.323 159.708 164.744V165.42C159.708 165.997 159.807 166.486 160.006 166.887C160.208 167.285 160.488 167.588 160.846 167.797C161.204 168.002 161.62 168.105 162.094 168.105C162.402 168.105 162.681 168.062 162.929 167.976C163.181 167.886 163.398 167.754 163.58 167.578C163.763 167.399 163.904 167.177 164.003 166.912L165.137 167.23C165.017 167.615 164.817 167.953 164.535 168.244C164.253 168.533 163.905 168.758 163.491 168.92C163.077 169.08 162.611 169.159 162.094 169.159ZM172.45 163.074L171.396 163.372C171.329 163.196 171.232 163.026 171.102 162.86C170.977 162.691 170.804 162.552 170.585 162.442C170.367 162.333 170.087 162.278 169.745 162.278C169.278 162.278 168.888 162.386 168.577 162.602C168.269 162.814 168.115 163.084 168.115 163.412C168.115 163.704 168.221 163.934 168.433 164.103C168.645 164.272 168.976 164.413 169.427 164.526L170.561 164.804C171.243 164.97 171.752 165.223 172.087 165.565C172.422 165.903 172.589 166.339 172.589 166.872C172.589 167.31 172.463 167.701 172.211 168.045C171.963 168.39 171.615 168.662 171.167 168.861C170.72 169.06 170.199 169.159 169.606 169.159C168.827 169.159 168.182 168.99 167.672 168.652C167.162 168.314 166.838 167.82 166.703 167.17L167.816 166.892C167.922 167.303 168.123 167.611 168.418 167.817C168.716 168.022 169.106 168.125 169.586 168.125C170.133 168.125 170.567 168.009 170.889 167.777C171.213 167.542 171.376 167.26 171.376 166.932C171.376 166.667 171.283 166.445 171.097 166.266C170.912 166.083 170.627 165.947 170.242 165.858L168.97 165.56C168.27 165.394 167.757 165.137 167.428 164.789C167.104 164.438 166.941 163.999 166.941 163.472C166.941 163.041 167.062 162.66 167.304 162.328C167.549 161.997 167.883 161.737 168.303 161.548C168.728 161.359 169.208 161.264 169.745 161.264C170.501 161.264 171.094 161.43 171.525 161.761C171.959 162.093 172.267 162.53 172.45 163.074Z" fill="white"/>
    </g>
    <line y1="76.25" x2="267" y2="76.25" stroke="white" stroke-width="0.5"/>
    <line x1="23.75" y1="211" x2="23.75" y2="35.5" stroke="white" stroke-width="0.5"/>
    <defs>
        <filter id="filter0_d_2_132" x="37.8295" y="41.4204" width="72.0987" height="23.875" filterUnits="userSpaceOnUse" color-interpolation-filters="sRGB">
            <feFlood flood-opacity="0" result="BackgroundImageFix"/>
            <feColorMatrix in="SourceAlpha" type="matrix" values="0 0 0 0 0 0 0 0 0 0 0 0 0 0 0 0 0 0 127 0" result="hardAlpha"/>
            <feOffset dy="3"/>
            <feGaussianBlur stdDeviation="1.5"/>
            <feComposite in2="hardAlpha" operator="out"/>
            <feColorMatrix type="matrix" values="0 0 0 0 0 0 0 0 0 0 0 0 0 0 0 0 0 0 0.160784 0"/>
            <feBlend mode="normal" in2="BackgroundImageFix" result="effect1_dropShadow_2_132"/>
            <feBlend mode="normal" in="SourceGraphic" in2="effect1_dropShadow_2_132" result="shape"/>
        </filter>
        <filter id="filter1_d_2_132" x="38.2159" y="98.8182" width="137.373" height="79.0454" filterUnits="userSpaceOnUse" color-interpolation-filters="sRGB">
            <feFlood flood-opacity="0" result="BackgroundImageFix"/>
            <feColorMatrix in="SourceAlpha" type="matrix" values="0 0 0 0 0 0 0 0 0 0 0 0 0 0 0 0 0 0 127 0" result="hardAlpha"/>
            <feOffset dy="3"/>
            <feGaussianBlur stdDeviation="1.5"/>
            <feComposite in2="hardAlpha" operator="out"/>
            <feColorMatrix type="matrix" values="0 0 0 0 0 0 0 0 0 0 0 0 0 0 0 0 0 0 0.160784 0"/>
            <feBlend mode="normal" in2="BackgroundImageFix" result="effect1_dropShadow_2_132"/>
            <feBlend mode="normal" in="SourceGraphic" in2="effect1_dropShadow_2_132" result="shape"/>
        </filter>
    </defs>
</svg>
