<svg width="267" height="211" viewBox="0 0 267 211" fill="none" xmlns="http://www.w3.org/2000/svg">
    <g filter="url(#filter0_d_2_128)">
        <path d="M51.5398 47.9943L49.5824 48.5483C49.4593 48.2221 49.2777 47.9051 49.0376 47.5973C48.8037 47.2834 48.4837 47.0249 48.0774 46.8217C47.6712 46.6186 47.151 46.517 46.517 46.517C45.6491 46.517 44.9259 46.7171 44.3473 47.1172C43.7749 47.5111 43.4886 48.0128 43.4886 48.6222C43.4886 49.1638 43.6856 49.5916 44.0795 49.9055C44.4735 50.2195 45.089 50.4811 45.9261 50.6903L48.0312 51.2074C49.2992 51.5152 50.2441 51.986 50.8658 52.62C51.4875 53.2479 51.7983 54.0573 51.7983 55.0483C51.7983 55.8608 51.5644 56.5871 51.0966 57.2273C50.6349 57.8674 49.9886 58.3722 49.1577 58.7415C48.3267 59.1108 47.3603 59.2955 46.2585 59.2955C44.812 59.2955 43.6148 58.9815 42.6669 58.3537C41.719 57.7259 41.1188 56.8087 40.8665 55.6023L42.9347 55.0852C43.1316 55.8485 43.504 56.4209 44.0518 56.8026C44.6058 57.1842 45.3291 57.375 46.2216 57.375C47.2372 57.375 48.0436 57.1596 48.6406 56.7287C49.2438 56.2917 49.5455 55.7685 49.5455 55.1591C49.5455 54.6667 49.3731 54.2543 49.0284 53.9219C48.6837 53.5833 48.1544 53.331 47.4403 53.1648L45.0767 52.6108C43.7779 52.303 42.8239 51.826 42.2145 51.1797C41.6113 50.5272 41.3097 49.7116 41.3097 48.733C41.3097 47.9328 41.5343 47.2249 41.9837 46.6094C42.4392 45.9938 43.0578 45.5107 43.8395 45.1598C44.6274 44.8089 45.5199 44.6335 46.517 44.6335C47.9205 44.6335 49.0223 44.9413 49.8224 45.5568C50.6288 46.1723 51.2012 46.9848 51.5398 47.9943ZM59.2516 59.3324C58.3529 59.3324 57.5373 59.1631 56.8049 58.8246C56.0724 58.4799 55.4907 57.9844 55.0598 57.3381C54.629 56.6856 54.4135 55.8977 54.4135 54.9744C54.4135 54.1619 54.5736 53.5033 54.8936 52.9986C55.2137 52.4877 55.6415 52.0876 56.177 51.7983C56.7125 51.509 57.3034 51.2936 57.9498 51.152C58.6022 51.0043 59.2578 50.8873 59.9164 50.8011C60.7781 50.6903 61.4767 50.6072 62.0123 50.5518C62.5539 50.4903 62.9479 50.3887 63.1941 50.2472C63.4464 50.1056 63.5726 49.8594 63.5726 49.5085V49.4347C63.5726 48.5237 63.3233 47.8158 62.8248 47.3111C62.3323 46.8063 61.5845 46.554 60.5811 46.554C59.5409 46.554 58.7253 46.7817 58.1344 47.2372C57.5435 47.6927 57.128 48.179 56.888 48.696L54.8198 47.9574C55.1891 47.0956 55.6815 46.4247 56.2971 45.9446C56.9187 45.4583 57.5958 45.1198 58.3283 44.929C59.0669 44.732 59.7933 44.6335 60.5073 44.6335C60.9628 44.6335 61.486 44.6889 62.0769 44.7997C62.6739 44.9044 63.2495 45.1229 63.8034 45.4553C64.3636 45.7876 64.8283 46.2893 65.1976 46.9602C65.5669 47.6312 65.7516 48.5298 65.7516 49.6562V59H63.5726V57.0795H63.4618C63.3141 57.3873 63.0679 57.7166 62.7232 58.0675C62.3785 58.4183 61.9199 58.7169 61.3475 58.9631C60.775 59.2093 60.0764 59.3324 59.2516 59.3324ZM59.584 57.375C60.4457 57.375 61.1721 57.2057 61.763 56.8672C62.36 56.5286 62.8094 56.0916 63.111 55.5561C63.4187 55.0206 63.5726 54.4574 63.5726 53.8665V51.8722C63.4803 51.983 63.2772 52.0845 62.9632 52.1768C62.6555 52.263 62.2985 52.34 61.8922 52.4077C61.4921 52.4692 61.1013 52.5246 60.7196 52.5739C60.3442 52.617 60.0395 52.6539 59.8056 52.6847C59.2393 52.7585 58.7099 52.8786 58.2175 53.0447C57.7312 53.2048 57.3373 53.4479 57.0357 53.7741C56.7402 54.0942 56.5925 54.5312 56.5925 55.0852C56.5925 55.8423 56.8726 56.4148 57.4327 56.8026C57.999 57.1842 58.7161 57.375 59.584 57.375ZM71.9077 40.0909V59H69.7287V40.0909H71.9077ZM81.8446 59.2955C80.4782 59.2955 79.2994 58.9938 78.3084 58.3906C77.3236 57.7812 76.5634 56.9318 76.0279 55.8423C75.4985 54.7467 75.2338 53.4725 75.2338 52.0199C75.2338 50.5672 75.4985 49.2869 76.0279 48.179C76.5634 47.0649 77.3082 46.197 78.2623 45.5753C79.2225 44.9474 80.3427 44.6335 81.623 44.6335C82.3617 44.6335 83.0911 44.7566 83.8113 45.0028C84.5314 45.2491 85.187 45.6491 85.7779 46.2031C86.3688 46.7509 86.8397 47.4773 87.1905 48.3821C87.5414 49.2869 87.7168 50.401 87.7168 51.7244V52.6477H76.785V50.7642H85.5009C85.5009 49.964 85.3409 49.25 85.0208 48.6222C84.7069 47.9943 84.2575 47.4988 83.6728 47.1357C83.0942 46.7725 82.4109 46.5909 81.623 46.5909C80.7551 46.5909 80.0042 46.8063 79.3702 47.2372C78.7424 47.6619 78.2592 48.2159 77.9206 48.8991C77.5821 49.5824 77.4128 50.3149 77.4128 51.0966V52.3523C77.4128 53.4233 77.5975 54.3312 77.9668 55.076C78.3423 55.8146 78.8624 56.3778 79.5272 56.7656C80.1919 57.1473 80.9644 57.3381 81.8446 57.3381C82.4171 57.3381 82.9341 57.258 83.3958 57.098C83.8636 56.9318 84.2667 56.6856 84.6053 56.3594C84.9438 56.027 85.2054 55.6146 85.3901 55.1222L87.4952 55.7131C87.2736 56.4271 86.9012 57.0549 86.378 57.5966C85.8548 58.1321 85.2085 58.5507 84.4391 58.8523C83.6697 59.1477 82.8049 59.2955 81.8446 59.2955ZM101.077 47.9943L99.1195 48.5483C98.9964 48.2221 98.8148 47.9051 98.5748 47.5973C98.3409 47.2834 98.0208 47.0249 97.6145 46.8217C97.2083 46.6186 96.6882 46.517 96.0542 46.517C95.1863 46.517 94.463 46.7171 93.8844 47.1172C93.312 47.5111 93.0257 48.0128 93.0257 48.6222C93.0257 49.1638 93.2227 49.5916 93.6167 49.9055C94.0106 50.2195 94.6261 50.4811 95.4632 50.6903L97.5684 51.2074C98.8364 51.5152 99.7812 51.986 100.403 52.62C101.025 53.2479 101.335 54.0573 101.335 55.0483C101.335 55.8608 101.102 56.5871 100.634 57.2273C100.172 57.8674 99.5257 58.3722 98.6948 58.7415C97.8638 59.1108 96.8974 59.2955 95.7956 59.2955C94.3491 59.2955 93.1519 58.9815 92.204 58.3537C91.2561 57.7259 90.656 56.8087 90.4036 55.6023L92.4718 55.0852C92.6687 55.8485 93.0411 56.4209 93.589 56.8026C94.1429 57.1842 94.8662 57.375 95.7587 57.375C96.7743 57.375 97.5807 57.1596 98.1777 56.7287C98.781 56.2917 99.0826 55.7685 99.0826 55.1591C99.0826 54.6667 98.9102 54.2543 98.5655 53.9219C98.2208 53.5833 97.6915 53.331 96.9775 53.1648L94.6138 52.6108C93.315 52.303 92.361 51.826 91.7516 51.1797C91.1484 50.5272 90.8468 49.7116 90.8468 48.733C90.8468 47.9328 91.0714 47.2249 91.5208 46.6094C91.9763 45.9938 92.5949 45.5107 93.3766 45.1598C94.1645 44.8089 95.057 44.6335 96.0542 44.6335C97.4576 44.6335 98.5594 44.9413 99.3596 45.5568C100.166 46.1723 100.738 46.9848 101.077 47.9943ZM111.928 64.3182V44.8182H114.033V47.071H114.292C114.452 46.8248 114.673 46.5109 114.956 46.1293C115.246 45.7415 115.658 45.3968 116.194 45.0952C116.735 44.7874 117.468 44.6335 118.391 44.6335C119.585 44.6335 120.638 44.9321 121.549 45.5291C122.46 46.1262 123.171 46.9725 123.681 48.0682C124.192 49.1638 124.448 50.4564 124.448 51.946C124.448 53.4479 124.192 54.7498 123.681 55.8516C123.171 56.9472 122.463 57.7966 121.558 58.3999C120.653 58.9969 119.61 59.2955 118.428 59.2955C117.517 59.2955 116.788 59.1446 116.24 58.843C115.692 58.5353 115.27 58.1875 114.975 57.7997C114.679 57.4058 114.452 57.0795 114.292 56.821H114.107V64.3182H111.928ZM114.07 51.9091C114.07 52.9801 114.227 53.925 114.541 54.7436C114.855 55.5561 115.313 56.1932 115.917 56.6548C116.52 57.1103 117.258 57.3381 118.132 57.3381C119.043 57.3381 119.804 57.098 120.413 56.6179C121.029 56.1316 121.49 55.4792 121.798 54.6605C122.112 53.8357 122.269 52.9186 122.269 51.9091C122.269 50.9119 122.115 50.0133 121.807 49.2131C121.506 48.4067 121.047 47.7696 120.431 47.3018C119.822 46.8279 119.056 46.5909 118.132 46.5909C117.246 46.5909 116.501 46.8156 115.898 47.2649C115.295 47.7081 114.839 48.3298 114.532 49.13C114.224 49.924 114.07 50.8504 114.07 51.9091ZM127.772 59V44.8182H129.877V46.9602H130.025C130.283 46.2585 130.751 45.6892 131.428 45.2521C132.105 44.8151 132.868 44.5966 133.718 44.5966C133.878 44.5966 134.078 44.5997 134.318 44.6058C134.558 44.612 134.739 44.6212 134.863 44.6335V46.8494C134.789 46.831 134.619 46.8033 134.355 46.7663C134.096 46.7232 133.822 46.7017 133.533 46.7017C132.844 46.7017 132.228 46.8464 131.686 47.1357C131.151 47.4188 130.726 47.8127 130.412 48.3175C130.105 48.8161 129.951 49.3854 129.951 50.0256V59H127.772ZM142.775 59.2955C141.495 59.2955 140.372 58.9908 139.405 58.3814C138.445 57.772 137.694 56.9195 137.152 55.8239C136.617 54.7282 136.349 53.4479 136.349 51.983C136.349 50.5057 136.617 49.2161 137.152 48.1143C137.694 47.0125 138.445 46.157 139.405 45.5476C140.372 44.9382 141.495 44.6335 142.775 44.6335C144.056 44.6335 145.176 44.9382 146.136 45.5476C147.102 46.157 147.853 47.0125 148.389 48.1143C148.931 49.2161 149.201 50.5057 149.201 51.983C149.201 53.4479 148.931 54.7282 148.389 55.8239C147.853 56.9195 147.102 57.772 146.136 58.3814C145.176 58.9908 144.056 59.2955 142.775 59.2955ZM142.775 57.3381C143.748 57.3381 144.548 57.0888 145.176 56.5902C145.804 56.0916 146.268 55.4361 146.57 54.6236C146.872 53.8111 147.022 52.9309 147.022 51.983C147.022 51.035 146.872 50.1518 146.57 49.3331C146.268 48.5144 145.804 47.8527 145.176 47.348C144.548 46.8433 143.748 46.5909 142.775 46.5909C141.803 46.5909 141.002 46.8433 140.375 47.348C139.747 47.8527 139.282 48.5144 138.98 49.3331C138.679 50.1518 138.528 51.035 138.528 51.983C138.528 52.9309 138.679 53.8111 138.98 54.6236C139.282 55.4361 139.747 56.0916 140.375 56.5902C141.002 57.0888 141.803 57.3381 142.775 57.3381ZM152.528 59V44.8182H154.633V47.0341H154.817C155.113 46.277 155.59 45.6892 156.248 45.2706C156.907 44.8459 157.698 44.6335 158.621 44.6335C159.557 44.6335 160.336 44.8459 160.957 45.2706C161.585 45.6892 162.074 46.277 162.425 47.0341H162.573C162.936 46.3016 163.481 45.7199 164.207 45.2891C164.934 44.852 165.805 44.6335 166.82 44.6335C168.088 44.6335 169.125 45.0305 169.932 45.8246C170.738 46.6125 171.141 47.8404 171.141 49.5085V59H168.962V49.5085C168.962 48.4621 168.676 47.7143 168.104 47.2649C167.531 46.8156 166.857 46.5909 166.081 46.5909C165.084 46.5909 164.312 46.8925 163.764 47.4957C163.216 48.0928 162.942 48.8499 162.942 49.767V59H160.726V49.2869C160.726 48.4806 160.465 47.8312 159.942 47.3388C159.418 46.8402 158.744 46.5909 157.92 46.5909C157.353 46.5909 156.824 46.7417 156.331 47.0433C155.845 47.3449 155.451 47.7635 155.15 48.299C154.854 48.8284 154.706 49.4408 154.706 50.1364V59H152.528ZM180.887 59.2955C179.606 59.2955 178.483 58.9908 177.517 58.3814C176.556 57.772 175.805 56.9195 175.264 55.8239C174.728 54.7282 174.46 53.4479 174.46 51.983C174.46 50.5057 174.728 49.2161 175.264 48.1143C175.805 47.0125 176.556 46.157 177.517 45.5476C178.483 44.9382 179.606 44.6335 180.887 44.6335C182.167 44.6335 183.287 44.9382 184.247 45.5476C185.214 46.157 185.965 47.0125 186.5 48.1143C187.042 49.2161 187.313 50.5057 187.313 51.983C187.313 53.4479 187.042 54.7282 186.5 55.8239C185.965 56.9195 185.214 57.772 184.247 58.3814C183.287 58.9908 182.167 59.2955 180.887 59.2955ZM180.887 57.3381C181.859 57.3381 182.659 57.0888 183.287 56.5902C183.915 56.0916 184.38 55.4361 184.681 54.6236C184.983 53.8111 185.134 52.9309 185.134 51.983C185.134 51.035 184.983 50.1518 184.681 49.3331C184.38 48.5144 183.915 47.8527 183.287 47.348C182.659 46.8433 181.859 46.5909 180.887 46.5909C179.914 46.5909 179.114 46.8433 178.486 47.348C177.858 47.8527 177.393 48.5144 177.092 49.3331C176.79 50.1518 176.639 51.035 176.639 51.983C176.639 52.9309 176.79 53.8111 177.092 54.6236C177.393 55.4361 177.858 56.0916 178.486 56.5902C179.114 57.0888 179.914 57.3381 180.887 57.3381ZM196.806 44.8182V46.6648H189.457V44.8182H196.806ZM191.599 41.4205H193.778V54.9375C193.778 55.553 193.867 56.0147 194.046 56.3224C194.23 56.6241 194.464 56.8272 194.748 56.9318C195.037 57.0303 195.342 57.0795 195.662 57.0795C195.902 57.0795 196.099 57.0672 196.252 57.0426C196.406 57.0118 196.529 56.9872 196.622 56.9688L197.065 58.9261C196.917 58.9815 196.711 59.0369 196.446 59.0923C196.182 59.1539 195.846 59.1847 195.44 59.1847C194.824 59.1847 194.221 59.0523 193.63 58.7876C193.046 58.523 192.559 58.1198 192.172 57.5781C191.79 57.0365 191.599 56.3532 191.599 55.5284V41.4205ZM200.084 59V44.8182H202.263V59H200.084ZM201.192 42.4545C200.767 42.4545 200.401 42.3099 200.093 42.0206C199.792 41.7313 199.641 41.3835 199.641 40.9773C199.641 40.571 199.792 40.2232 200.093 39.9339C200.401 39.6446 200.767 39.5 201.192 39.5C201.617 39.5 201.98 39.6446 202.282 39.9339C202.589 40.2232 202.743 40.571 202.743 40.9773C202.743 41.3835 202.589 41.7313 202.282 42.0206C201.98 42.3099 201.617 42.4545 201.192 42.4545ZM212.015 59.2955C210.735 59.2955 209.612 58.9908 208.645 58.3814C207.685 57.772 206.934 56.9195 206.393 55.8239C205.857 54.7282 205.589 53.4479 205.589 51.983C205.589 50.5057 205.857 49.2161 206.393 48.1143C206.934 47.0125 207.685 46.157 208.645 45.5476C209.612 44.9382 210.735 44.6335 212.015 44.6335C213.296 44.6335 214.416 44.9382 215.376 45.5476C216.343 46.157 217.094 47.0125 217.629 48.1143C218.171 49.2161 218.442 50.5057 218.442 51.983C218.442 53.4479 218.171 54.7282 217.629 55.8239C217.094 56.9195 216.343 57.772 215.376 58.3814C214.416 58.9908 213.296 59.2955 212.015 59.2955ZM212.015 57.3381C212.988 57.3381 213.788 57.0888 214.416 56.5902C215.044 56.0916 215.509 55.4361 215.81 54.6236C216.112 53.8111 216.263 52.9309 216.263 51.983C216.263 51.035 216.112 50.1518 215.81 49.3331C215.509 48.5144 215.044 47.8527 214.416 47.348C213.788 46.8433 212.988 46.5909 212.015 46.5909C211.043 46.5909 210.243 46.8433 209.615 47.348C208.987 47.8527 208.522 48.5144 208.221 49.3331C207.919 50.1518 207.768 51.035 207.768 51.983C207.768 52.9309 207.919 53.8111 208.221 54.6236C208.522 55.4361 208.987 56.0916 209.615 56.5902C210.243 57.0888 211.043 57.3381 212.015 57.3381ZM223.947 50.4688V59H221.768V44.8182H223.873V47.0341H224.058C224.39 46.3139 224.895 45.7353 225.572 45.2983C226.249 44.8551 227.123 44.6335 228.194 44.6335C229.154 44.6335 229.994 44.8305 230.714 45.2244C231.435 45.6122 231.995 46.2031 232.395 46.9972C232.795 47.785 232.995 48.7822 232.995 49.9886V59H230.816V50.1364C230.816 49.0223 230.527 48.1544 229.948 47.5327C229.37 46.9048 228.576 46.5909 227.566 46.5909C226.871 46.5909 226.249 46.7417 225.701 47.0433C225.159 47.3449 224.732 47.785 224.418 48.3636C224.104 48.9422 223.947 49.6439 223.947 50.4688Z" fill="white"/>
    </g>
    <g filter="url(#filter1_d_2_128)">
        <path d="M41.5739 111.864V101.364H42.7074V102.577H42.8466C42.9328 102.444 43.0521 102.275 43.2045 102.07C43.3603 101.861 43.5824 101.675 43.8707 101.513C44.1624 101.347 44.5568 101.264 45.054 101.264C45.697 101.264 46.2637 101.425 46.7543 101.746C47.2448 102.068 47.6276 102.524 47.9027 103.114C48.1778 103.704 48.3153 104.4 48.3153 105.202C48.3153 106.01 48.1778 106.711 47.9027 107.305C47.6276 107.895 47.2464 108.352 46.7592 108.677C46.272 108.998 45.7102 109.159 45.0739 109.159C44.5833 109.159 44.1906 109.078 43.8956 108.915C43.6006 108.75 43.3736 108.562 43.2145 108.354C43.0554 108.142 42.9328 107.966 42.8466 107.827H42.7472V111.864H41.5739ZM42.7273 105.182C42.7273 105.759 42.8118 106.267 42.9808 106.708C43.1499 107.146 43.3968 107.489 43.7216 107.737C44.0464 107.982 44.4441 108.105 44.9148 108.105C45.4053 108.105 45.8146 107.976 46.1428 107.717C46.4742 107.455 46.7228 107.104 46.8885 106.663C47.0575 106.219 47.142 105.725 47.142 105.182C47.142 104.645 47.0592 104.161 46.8935 103.73C46.7311 103.296 46.4841 102.953 46.1527 102.701C45.8246 102.446 45.4119 102.318 44.9148 102.318C44.4375 102.318 44.0365 102.439 43.7116 102.681C43.3868 102.92 43.1416 103.254 42.9759 103.685C42.8101 104.113 42.7273 104.612 42.7273 105.182ZM51.2784 98.8182V109H50.1051V98.8182H51.2784ZM55.6745 109.179C55.1906 109.179 54.7515 109.088 54.3571 108.906C53.9627 108.72 53.6494 108.453 53.4174 108.105C53.1854 107.754 53.0694 107.33 53.0694 106.832C53.0694 106.395 53.1556 106.04 53.3279 105.768C53.5003 105.493 53.7306 105.278 54.019 105.122C54.3074 104.966 54.6255 104.85 54.9735 104.774C55.3249 104.695 55.6779 104.632 56.0325 104.585C56.4965 104.526 56.8727 104.481 57.161 104.451C57.4527 104.418 57.6648 104.363 57.7974 104.287C57.9333 104.211 58.0012 104.078 58.0012 103.889V103.849C58.0012 103.359 57.867 102.978 57.5985 102.706C57.3334 102.434 56.9307 102.298 56.3904 102.298C55.8303 102.298 55.3912 102.421 55.073 102.666C54.7548 102.911 54.5311 103.173 54.4018 103.452L53.2882 103.054C53.487 102.59 53.7522 102.229 54.0836 101.97C54.4184 101.708 54.783 101.526 55.1774 101.423C55.5751 101.317 55.9662 101.264 56.3507 101.264C56.5959 101.264 56.8777 101.294 57.1958 101.354C57.5173 101.41 57.8272 101.528 58.1255 101.707C58.4271 101.886 58.6774 102.156 58.8762 102.517C59.0751 102.878 59.1745 103.362 59.1745 103.969V109H58.0012V107.966H57.9416C57.862 108.132 57.7295 108.309 57.5439 108.498C57.3583 108.687 57.1113 108.848 56.8031 108.98C56.4949 109.113 56.1187 109.179 55.6745 109.179ZM55.8535 108.125C56.3175 108.125 56.7086 108.034 57.0268 107.852C57.3483 107.669 57.5903 107.434 57.7527 107.146C57.9184 106.857 58.0012 106.554 58.0012 106.236V105.162C57.9515 105.222 57.8422 105.276 57.6731 105.326C57.5074 105.372 57.3152 105.414 57.0964 105.45C56.881 105.483 56.6705 105.513 56.465 105.54C56.2628 105.563 56.0988 105.583 55.9728 105.599C55.6679 105.639 55.3829 105.704 55.1177 105.793C54.8559 105.879 54.6438 106.01 54.4814 106.186C54.3223 106.358 54.2427 106.594 54.2427 106.892C54.2427 107.3 54.3935 107.608 54.6951 107.817C55.0001 108.022 55.3862 108.125 55.8535 108.125ZM62.4893 104.406V109H61.3161V101.364H62.4496V102.557H62.549C62.728 102.169 62.9998 101.857 63.3643 101.622C63.7289 101.384 64.1996 101.264 64.7763 101.264C65.2933 101.264 65.7457 101.37 66.1335 101.582C66.5213 101.791 66.8229 102.109 67.0384 102.537C67.2538 102.961 67.3615 103.498 67.3615 104.148V109H66.1882V104.227C66.1882 103.627 66.0324 103.16 65.7209 102.825C65.4093 102.487 64.9818 102.318 64.4382 102.318C64.0637 102.318 63.7289 102.399 63.4339 102.562C63.1423 102.724 62.9119 102.961 62.7429 103.273C62.5739 103.584 62.4893 103.962 62.4893 104.406ZM70.6788 104.406V109H69.5055V101.364H70.639V102.557H70.7385C70.9174 102.169 71.1892 101.857 71.5538 101.622C71.9184 101.384 72.389 101.264 72.9657 101.264C73.4828 101.264 73.9352 101.37 74.323 101.582C74.7108 101.791 75.0124 102.109 75.2278 102.537C75.4432 102.961 75.551 103.498 75.551 104.148V109H74.3777V104.227C74.3777 103.627 74.2219 103.16 73.9103 102.825C73.5988 102.487 73.1712 102.318 72.6277 102.318C72.2531 102.318 71.9184 102.399 71.6234 102.562C71.3317 102.724 71.1014 102.961 70.9324 103.273C70.7633 103.584 70.6788 103.962 70.6788 104.406ZM77.695 109V101.364H78.8683V109H77.695ZM78.2915 100.091C78.0629 100.091 77.8656 100.013 77.6999 99.8572C77.5375 99.7015 77.4563 99.5142 77.4563 99.2955C77.4563 99.0767 77.5375 98.8894 77.6999 98.7337C77.8656 98.5779 78.0629 98.5 78.2915 98.5C78.5202 98.5 78.7158 98.5779 78.8782 98.7337C79.0439 98.8894 79.1268 99.0767 79.1268 99.2955C79.1268 99.5142 79.0439 99.7015 78.8782 99.8572C78.7158 100.013 78.5202 100.091 78.2915 100.091ZM82.1905 104.406V109H81.0172V101.364H82.1507V102.557H82.2502C82.4292 102.169 82.7009 101.857 83.0655 101.622C83.4301 101.384 83.9007 101.264 84.4775 101.264C84.9945 101.264 85.4469 101.37 85.8347 101.582C86.2225 101.791 86.5241 102.109 86.7395 102.537C86.955 102.961 87.0627 103.498 87.0627 104.148V109H85.8894V104.227C85.8894 103.627 85.7336 103.16 85.4221 102.825C85.1105 102.487 84.6829 102.318 84.1394 102.318C83.7649 102.318 83.4301 102.399 83.1351 102.562C82.8435 102.724 82.6131 102.961 82.4441 103.273C82.275 103.584 82.1905 103.962 82.1905 104.406ZM92.2891 112.023C91.7223 112.023 91.2351 111.95 90.8274 111.804C90.4197 111.661 90.08 111.473 89.8082 111.237C89.5398 111.005 89.326 110.757 89.1669 110.491L90.1016 109.835C90.2076 109.974 90.3419 110.134 90.5043 110.312C90.6667 110.495 90.8887 110.652 91.1705 110.785C91.4555 110.921 91.8284 110.989 92.2891 110.989C92.9055 110.989 93.4143 110.839 93.8153 110.541C94.2164 110.243 94.4169 109.776 94.4169 109.139V107.588H94.3175C94.2313 107.727 94.1087 107.9 93.9496 108.105C93.7938 108.307 93.5684 108.488 93.2734 108.647C92.9818 108.803 92.5874 108.881 92.0902 108.881C91.4737 108.881 90.9202 108.735 90.4297 108.443C89.9425 108.152 89.5563 107.727 89.2713 107.17C88.9896 106.614 88.8487 105.937 88.8487 105.142C88.8487 104.36 88.9863 103.679 89.2614 103.099C89.5365 102.515 89.9193 102.065 90.4098 101.746C90.9003 101.425 91.4671 101.264 92.1101 101.264C92.6072 101.264 93.0017 101.347 93.2933 101.513C93.5883 101.675 93.8137 101.861 93.9695 102.07C94.1286 102.275 94.2512 102.444 94.3374 102.577H94.4567V101.364H95.5902V109.219C95.5902 109.875 95.4411 110.409 95.1428 110.82C94.8478 111.234 94.45 111.537 93.9496 111.729C93.4524 111.925 92.8989 112.023 92.2891 112.023ZM92.2493 107.827C92.7199 107.827 93.1177 107.719 93.4425 107.504C93.7673 107.288 94.0142 106.978 94.1832 106.574C94.3523 106.17 94.4368 105.686 94.4368 105.122C94.4368 104.572 94.3539 104.086 94.1882 103.665C94.0225 103.245 93.7772 102.915 93.4524 102.676C93.1276 102.437 92.7266 102.318 92.2493 102.318C91.7521 102.318 91.3378 102.444 91.0064 102.696C90.6783 102.948 90.4313 103.286 90.2656 103.71C90.1032 104.134 90.022 104.605 90.022 105.122C90.022 105.652 90.1049 106.121 90.2706 106.529C90.4396 106.933 90.6882 107.252 91.0163 107.484C91.3478 107.712 91.7588 107.827 92.2493 107.827ZM44.6761 129.159C43.9602 129.159 43.3438 128.99 42.8267 128.652C42.3097 128.314 41.9119 127.848 41.6335 127.255C41.3551 126.662 41.2159 125.984 41.2159 125.222C41.2159 124.446 41.3584 123.762 41.6435 123.168C41.9318 122.572 42.3329 122.106 42.8466 121.771C43.3636 121.433 43.9669 121.264 44.6562 121.264C45.1932 121.264 45.6771 121.364 46.108 121.562C46.5388 121.761 46.8918 122.04 47.1669 122.398C47.442 122.756 47.6127 123.173 47.679 123.651H46.5057C46.4162 123.303 46.2173 122.994 45.9091 122.726C45.6042 122.454 45.1932 122.318 44.6761 122.318C44.2188 122.318 43.8177 122.437 43.473 122.676C43.1316 122.911 42.8648 123.245 42.6726 123.675C42.4837 124.103 42.3892 124.605 42.3892 125.182C42.3892 125.772 42.482 126.286 42.6676 126.723C42.8565 127.161 43.1217 127.5 43.4631 127.742C43.8078 127.984 44.2121 128.105 44.6761 128.105C44.9811 128.105 45.2578 128.052 45.5064 127.946C45.755 127.84 45.9654 127.688 46.1378 127.489C46.3101 127.29 46.4328 127.051 46.5057 126.773H47.679C47.6127 127.223 47.4486 127.629 47.1868 127.991C46.9283 128.349 46.5852 128.634 46.1577 128.846C45.7334 129.055 45.2396 129.159 44.6761 129.159ZM49.3942 129V121.364H50.5277V122.517H50.6072C50.7464 122.139 50.9983 121.833 51.3629 121.597C51.7275 121.362 52.1385 121.244 52.5959 121.244C52.6821 121.244 52.7898 121.246 52.919 121.249C53.0483 121.253 53.1461 121.258 53.2124 121.264V122.457C53.1726 122.447 53.0814 122.433 52.9389 122.413C52.7997 122.389 52.6522 122.378 52.4964 122.378C52.1252 122.378 51.7938 122.456 51.5021 122.612C51.2138 122.764 50.9851 122.976 50.8161 123.248C50.6503 123.516 50.5675 123.823 50.5675 124.168V129H49.3942ZM57.5724 129.159C56.8366 129.159 56.2019 128.997 55.6683 128.672C55.138 128.344 54.7287 127.886 54.4403 127.3C54.1553 126.71 54.0128 126.024 54.0128 125.241C54.0128 124.459 54.1553 123.77 54.4403 123.173C54.7287 122.573 55.1297 122.106 55.6435 121.771C56.1605 121.433 56.7637 121.264 57.4531 121.264C57.8509 121.264 58.2436 121.33 58.6314 121.463C59.0192 121.596 59.3722 121.811 59.6903 122.109C60.0085 122.404 60.2621 122.795 60.451 123.283C60.6399 123.77 60.7344 124.37 60.7344 125.082V125.58H54.848V124.565H59.5412C59.5412 124.134 59.455 123.75 59.2827 123.412C59.1136 123.074 58.8717 122.807 58.5568 122.612C58.2453 122.416 57.8774 122.318 57.4531 122.318C56.9858 122.318 56.5814 122.434 56.2401 122.666C55.902 122.895 55.6418 123.193 55.4595 123.561C55.2772 123.929 55.1861 124.323 55.1861 124.744V125.42C55.1861 125.997 55.2855 126.486 55.4844 126.887C55.6866 127.285 55.9666 127.588 56.3246 127.797C56.6825 128.002 57.0985 128.105 57.5724 128.105C57.8807 128.105 58.1591 128.062 58.4077 127.976C58.6596 127.886 58.8767 127.754 59.0589 127.578C59.2412 127.399 59.3821 127.177 59.4815 126.912L60.6151 127.23C60.4957 127.615 60.2952 127.953 60.0135 128.244C59.7318 128.533 59.3838 128.758 58.9695 128.92C58.5552 129.08 58.0895 129.159 57.5724 129.159ZM64.7663 129.179C64.2824 129.179 63.8433 129.088 63.4489 128.906C63.0545 128.72 62.7412 128.453 62.5092 128.105C62.2772 127.754 62.1612 127.33 62.1612 126.832C62.1612 126.395 62.2474 126.04 62.4197 125.768C62.5921 125.493 62.8224 125.278 63.1108 125.122C63.3991 124.966 63.7173 124.85 64.0653 124.774C64.4167 124.695 64.7696 124.632 65.1243 124.585C65.5883 124.526 65.9645 124.481 66.2528 124.451C66.5445 124.418 66.7566 124.363 66.8892 124.287C67.0251 124.211 67.093 124.078 67.093 123.889V123.849C67.093 123.359 66.9588 122.978 66.6903 122.706C66.4252 122.434 66.0225 122.298 65.4822 122.298C64.9221 122.298 64.483 122.421 64.1648 122.666C63.8466 122.911 63.6229 123.173 63.4936 123.452L62.38 123.054C62.5788 122.59 62.844 122.229 63.1754 121.97C63.5102 121.708 63.8748 121.526 64.2692 121.423C64.6669 121.317 65.058 121.264 65.4425 121.264C65.6877 121.264 65.9695 121.294 66.2876 121.354C66.6091 121.41 66.919 121.528 67.2173 121.707C67.5189 121.886 67.7692 122.156 67.968 122.517C68.1669 122.878 68.2663 123.362 68.2663 123.969V129H67.093V127.966H67.0334C66.9538 128.132 66.8213 128.309 66.6357 128.498C66.45 128.687 66.2031 128.848 65.8949 128.98C65.5866 129.113 65.2105 129.179 64.7663 129.179ZM64.9453 128.125C65.4093 128.125 65.8004 128.034 66.1186 127.852C66.4401 127.669 66.6821 127.434 66.8445 127.146C67.0102 126.857 67.093 126.554 67.093 126.236V125.162C67.0433 125.222 66.9339 125.276 66.7649 125.326C66.5992 125.372 66.407 125.414 66.1882 125.45C65.9728 125.483 65.7623 125.513 65.5568 125.54C65.3546 125.563 65.1906 125.583 65.0646 125.599C64.7597 125.639 64.4747 125.704 64.2095 125.793C63.9477 125.879 63.7356 126.01 63.5732 126.186C63.4141 126.358 63.3345 126.594 63.3345 126.892C63.3345 127.3 63.4853 127.608 63.7869 127.817C64.0919 128.022 64.478 128.125 64.9453 128.125ZM73.7289 121.364V122.358H69.7715V121.364H73.7289ZM70.9249 119.534H72.0982V126.812C72.0982 127.144 72.1462 127.393 72.2424 127.558C72.3418 127.721 72.4677 127.83 72.6202 127.886C72.776 127.939 72.94 127.966 73.1124 127.966C73.2417 127.966 73.3477 127.959 73.4306 127.946C73.5134 127.929 73.5797 127.916 73.6294 127.906L73.8681 128.96C73.7885 128.99 73.6775 129.02 73.535 129.05C73.3925 129.083 73.2118 129.099 72.9931 129.099C72.6616 129.099 72.3368 129.028 72.0186 128.886C71.7038 128.743 71.4419 128.526 71.2331 128.234C71.0276 127.943 70.9249 127.575 70.9249 127.131V119.534ZM75.4938 129V121.364H76.6671V129H75.4938ZM76.0904 120.091C75.8617 120.091 75.6645 120.013 75.4988 119.857C75.3364 119.701 75.2551 119.514 75.2551 119.295C75.2551 119.077 75.3364 118.889 75.4988 118.734C75.6645 118.578 75.8617 118.5 76.0904 118.5C76.3191 118.5 76.5146 118.578 76.677 118.734C76.8427 118.889 76.9256 119.077 76.9256 119.295C76.9256 119.514 76.8427 119.701 76.677 119.857C76.5146 120.013 76.3191 120.091 76.0904 120.091ZM85.0604 121.364L82.2365 129H81.0433L78.2195 121.364H79.4922L81.6001 127.449H81.6797L83.7876 121.364H85.0604ZM89.5373 129.159C88.8015 129.159 88.1668 128.997 87.6332 128.672C87.1029 128.344 86.6935 127.886 86.4052 127.3C86.1201 126.71 85.9776 126.024 85.9776 125.241C85.9776 124.459 86.1201 123.77 86.4052 123.173C86.6935 122.573 87.0946 122.106 87.6083 121.771C88.1254 121.433 88.7286 121.264 89.418 121.264C89.8157 121.264 90.2085 121.33 90.5962 121.463C90.984 121.596 91.337 121.811 91.6552 122.109C91.9734 122.404 92.2269 122.795 92.4158 123.283C92.6048 123.77 92.6992 124.37 92.6992 125.082V125.58H86.8129V124.565H91.506C91.506 124.134 91.4199 123.75 91.2475 123.412C91.0785 123.074 90.8365 122.807 90.5217 122.612C90.2101 122.416 89.8422 122.318 89.418 122.318C88.9506 122.318 88.5463 122.434 88.2049 122.666C87.8668 122.895 87.6067 123.193 87.4244 123.561C87.2421 123.929 87.1509 124.323 87.1509 124.744V125.42C87.1509 125.997 87.2504 126.486 87.4492 126.887C87.6514 127.285 87.9315 127.588 88.2894 127.797C88.6474 128.002 89.0633 128.105 89.5373 128.105C89.8455 128.105 90.1239 128.062 90.3725 127.976C90.6244 127.886 90.8415 127.754 91.0238 127.578C91.2061 127.399 91.3469 127.177 91.4464 126.912L92.5799 127.23C92.4606 127.615 92.2601 127.953 91.9783 128.244C91.6966 128.533 91.3486 128.758 90.9343 128.92C90.52 129.08 90.0543 129.159 89.5373 129.159ZM43.821 149.179C43.3371 149.179 42.898 149.088 42.5036 148.906C42.1091 148.72 41.7959 148.453 41.5639 148.105C41.3319 147.754 41.2159 147.33 41.2159 146.832C41.2159 146.395 41.3021 146.04 41.4744 145.768C41.6468 145.493 41.8771 145.278 42.1655 145.122C42.4538 144.966 42.772 144.85 43.12 144.774C43.4714 144.695 43.8243 144.632 44.179 144.585C44.643 144.526 45.0192 144.481 45.3075 144.451C45.5992 144.418 45.8113 144.363 45.9439 144.287C46.0798 144.211 46.1477 144.078 46.1477 143.889V143.849C46.1477 143.359 46.0135 142.978 45.745 142.706C45.4799 142.434 45.0772 142.298 44.5369 142.298C43.9768 142.298 43.5376 142.421 43.2195 142.666C42.9013 142.911 42.6776 143.173 42.5483 143.452L41.4347 143.054C41.6335 142.59 41.8987 142.229 42.2301 141.97C42.5649 141.708 42.9295 141.526 43.3239 141.423C43.7216 141.317 44.1127 141.264 44.4972 141.264C44.7424 141.264 45.0241 141.294 45.3423 141.354C45.6638 141.41 45.9737 141.528 46.272 141.707C46.5736 141.886 46.8239 142.156 47.0227 142.517C47.2216 142.878 47.321 143.362 47.321 143.969V149H46.1477V147.966H46.0881C46.0085 148.132 45.8759 148.309 45.6903 148.498C45.5047 148.687 45.2578 148.848 44.9496 148.98C44.6413 149.113 44.2652 149.179 43.821 149.179ZM44 148.125C44.464 148.125 44.8551 148.034 45.1733 147.852C45.4948 147.669 45.7367 147.434 45.8991 147.146C46.0649 146.857 46.1477 146.554 46.1477 146.236V145.162C46.098 145.222 45.9886 145.276 45.8196 145.326C45.6539 145.372 45.4616 145.414 45.2429 145.45C45.0275 145.483 44.817 145.513 44.6115 145.54C44.4093 145.563 44.2453 145.583 44.1193 145.599C43.8144 145.639 43.5294 145.704 43.2642 145.793C43.0024 145.879 42.7902 146.01 42.6278 146.186C42.4688 146.358 42.3892 146.594 42.3892 146.892C42.3892 147.3 42.54 147.608 42.8416 147.817C43.1465 148.022 43.5327 148.125 44 148.125ZM52.3461 149.159C51.7097 149.159 51.1479 148.998 50.6607 148.677C50.1735 148.352 49.7923 147.895 49.5172 147.305C49.2421 146.711 49.1046 146.01 49.1046 145.202C49.1046 144.4 49.2421 143.704 49.5172 143.114C49.7923 142.524 50.1751 142.068 50.6657 141.746C51.1562 141.425 51.723 141.264 52.3659 141.264C52.8631 141.264 53.2559 141.347 53.5442 141.513C53.8359 141.675 54.0579 141.861 54.2104 142.07C54.3662 142.275 54.4872 142.444 54.5733 142.577H54.6728V138.818H55.8461V149H54.7125V147.827H54.5733C54.4872 147.966 54.3645 148.142 54.2054 148.354C54.0463 148.562 53.8193 148.75 53.5243 148.915C53.2293 149.078 52.8366 149.159 52.3461 149.159ZM52.5051 148.105C52.9758 148.105 53.3735 147.982 53.6983 147.737C54.0231 147.489 54.2701 147.146 54.4391 146.708C54.6081 146.267 54.6926 145.759 54.6926 145.182C54.6926 144.612 54.6098 144.113 54.4441 143.685C54.2784 143.254 54.0331 142.92 53.7083 142.681C53.3835 142.439 52.9824 142.318 52.5051 142.318C52.008 142.318 51.5937 142.446 51.2623 142.701C50.9341 142.953 50.6872 143.296 50.5215 143.73C50.3591 144.161 50.2779 144.645 50.2779 145.182C50.2779 145.725 50.3607 146.219 50.5265 146.663C50.6955 147.104 50.9441 147.455 51.2722 147.717C51.6036 147.976 52.0146 148.105 52.5051 148.105ZM64.4022 141.364L61.5783 149H60.3851L57.5613 141.364H58.834L60.9419 147.449H61.0215L63.1294 141.364H64.4022ZM68.8791 149.159C68.1433 149.159 67.5086 148.997 66.975 148.672C66.4447 148.344 66.0353 147.886 65.747 147.3C65.4619 146.71 65.3194 146.024 65.3194 145.241C65.3194 144.459 65.4619 143.77 65.747 143.173C66.0353 142.573 66.4364 142.106 66.9501 141.771C67.4672 141.433 68.0704 141.264 68.7598 141.264C69.1575 141.264 69.5502 141.33 69.938 141.463C70.3258 141.596 70.6788 141.811 70.997 142.109C71.3152 142.404 71.5687 142.795 71.7576 143.283C71.9466 143.77 72.041 144.37 72.041 145.082V145.58H66.1547V144.565H70.8478C70.8478 144.134 70.7617 143.75 70.5893 143.412C70.4203 143.074 70.1783 142.807 69.8635 142.612C69.5519 142.416 69.184 142.318 68.7598 142.318C68.2924 142.318 67.8881 142.434 67.5467 142.666C67.2086 142.895 66.9484 143.193 66.7662 143.561C66.5839 143.929 66.4927 144.323 66.4927 144.744V145.42C66.4927 145.997 66.5922 146.486 66.791 146.887C66.9932 147.285 67.2733 147.588 67.6312 147.797C67.9892 148.002 68.4051 148.105 68.8791 148.105C69.1873 148.105 69.4657 148.062 69.7143 147.976C69.9662 147.886 70.1833 147.754 70.3656 147.578C70.5479 147.399 70.6887 147.177 70.7882 146.912L71.9217 147.23C71.8024 147.615 71.6019 147.953 71.3201 148.244C71.0384 148.533 70.6904 148.758 70.2761 148.92C69.8618 149.08 69.3961 149.159 68.8791 149.159ZM73.8258 149V141.364H74.9593V142.517H75.0389C75.1781 142.139 75.43 141.833 75.7946 141.597C76.1592 141.362 76.5701 141.244 77.0275 141.244C77.1137 141.244 77.2214 141.246 77.3507 141.249C77.4799 141.253 77.5777 141.258 77.644 141.264V142.457C77.6042 142.447 77.5131 142.433 77.3706 142.413C77.2314 142.389 77.0839 142.378 76.9281 142.378C76.5569 142.378 76.2254 142.456 75.9338 142.612C75.6454 142.764 75.4167 142.976 75.2477 143.248C75.082 143.516 74.9991 143.823 74.9991 144.168V149H73.8258ZM82.8343 141.364V142.358H78.877V141.364H82.8343ZM80.0304 139.534H81.2037V146.812C81.2037 147.144 81.2517 147.393 81.3478 147.558C81.4473 147.721 81.5732 147.83 81.7257 147.886C81.8815 147.939 82.0455 147.966 82.2179 147.966C82.3471 147.966 82.4532 147.959 82.536 147.946C82.6189 147.929 82.6852 147.916 82.7349 147.906L82.9735 148.96C82.894 148.99 82.783 149.02 82.6404 149.05C82.4979 149.083 82.3173 149.099 82.0985 149.099C81.7671 149.099 81.4423 149.028 81.1241 148.886C80.8092 148.743 80.5474 148.526 80.3386 148.234C80.1331 147.943 80.0304 147.575 80.0304 147.131V139.534ZM84.5993 149V141.364H85.7725V149H84.5993ZM85.1958 140.091C84.9672 140.091 84.7699 140.013 84.6042 139.857C84.4418 139.701 84.3606 139.514 84.3606 139.295C84.3606 139.077 84.4418 138.889 84.6042 138.734C84.7699 138.578 84.9672 138.5 85.1958 138.5C85.4245 138.5 85.6201 138.578 85.7825 138.734C85.9482 138.889 86.0311 139.077 86.0311 139.295C86.0311 139.514 85.9482 139.701 85.7825 139.857C85.6201 140.013 85.4245 140.091 85.1958 140.091ZM93.3306 143.074L92.2766 143.372C92.2103 143.196 92.1126 143.026 91.9833 142.86C91.8574 142.691 91.685 142.552 91.4663 142.442C91.2475 142.333 90.9674 142.278 90.6261 142.278C90.1587 142.278 89.7693 142.386 89.4577 142.602C89.1495 142.814 88.9954 143.084 88.9954 143.412C88.9954 143.704 89.1014 143.934 89.3136 144.103C89.5257 144.272 89.8571 144.413 90.3079 144.526L91.4414 144.804C92.1242 144.97 92.6329 145.223 92.9677 145.565C93.3024 145.903 93.4698 146.339 93.4698 146.872C93.4698 147.31 93.3439 147.701 93.092 148.045C92.8434 148.39 92.4954 148.662 92.0479 148.861C91.6005 149.06 91.0801 149.159 90.4869 149.159C89.708 149.159 89.0633 148.99 88.5529 148.652C88.0425 148.314 87.7193 147.82 87.5835 147.17L88.6971 146.892C88.8031 147.303 89.0037 147.611 89.2987 147.817C89.5969 148.022 89.9864 148.125 90.467 148.125C91.0138 148.125 91.448 148.009 91.7695 147.777C92.0943 147.542 92.2567 147.26 92.2567 146.932C92.2567 146.667 92.1639 146.445 91.9783 146.266C91.7927 146.083 91.5077 145.947 91.1232 145.858L89.8505 145.56C89.1512 145.394 88.6374 145.137 88.3093 144.789C87.9845 144.438 87.8221 143.999 87.8221 143.472C87.8221 143.041 87.9431 142.66 88.185 142.328C88.4303 141.997 88.7634 141.737 89.1843 141.548C89.6085 141.359 90.0891 141.264 90.6261 141.264C91.3817 141.264 91.975 141.43 92.4059 141.761C92.8401 142.093 93.1483 142.53 93.3306 143.074ZM98.4377 149.159C97.7019 149.159 97.0672 148.997 96.5336 148.672C96.0033 148.344 95.5939 147.886 95.3056 147.3C95.0205 146.71 94.878 146.024 94.878 145.241C94.878 144.459 95.0205 143.77 95.3056 143.173C95.5939 142.573 95.995 142.106 96.5087 141.771C97.0257 141.433 97.629 141.264 98.3184 141.264C98.7161 141.264 99.1088 141.33 99.4966 141.463C99.8844 141.596 100.237 141.811 100.556 142.109C100.874 142.404 101.127 142.795 101.316 143.283C101.505 143.77 101.6 144.37 101.6 145.082V145.58H95.7132V144.565H100.406C100.406 144.134 100.32 143.75 100.148 143.412C99.9789 143.074 99.7369 142.807 99.4221 142.612C99.1105 142.416 98.7426 142.318 98.3184 142.318C97.851 142.318 97.4467 142.434 97.1053 142.666C96.7672 142.895 96.507 143.193 96.3248 143.561C96.1425 143.929 96.0513 144.323 96.0513 144.744V145.42C96.0513 145.997 96.1507 146.486 96.3496 146.887C96.5518 147.285 96.8319 147.588 97.1898 147.797C97.5478 148.002 97.9637 148.105 98.4377 148.105C98.7459 148.105 99.0243 148.062 99.2729 147.976C99.5248 147.886 99.7419 147.754 99.9242 147.578C100.106 147.399 100.247 147.177 100.347 146.912L101.48 147.23C101.361 147.615 101.16 147.953 100.879 148.244C100.597 148.533 100.249 148.758 99.8347 148.92C99.4204 149.08 98.9547 149.159 98.4377 149.159ZM103.384 149V141.364H104.518V142.557H104.617C104.776 142.149 105.033 141.833 105.388 141.607C105.743 141.379 106.169 141.264 106.666 141.264C107.169 141.264 107.589 141.379 107.923 141.607C108.262 141.833 108.525 142.149 108.714 142.557H108.794C108.989 142.162 109.282 141.849 109.673 141.617C110.065 141.382 110.534 141.264 111.08 141.264C111.763 141.264 112.322 141.478 112.756 141.906C113.19 142.33 113.407 142.991 113.407 143.889V149H112.234V143.889C112.234 143.326 112.08 142.923 111.771 142.681C111.463 142.439 111.1 142.318 110.683 142.318C110.146 142.318 109.73 142.481 109.435 142.805C109.14 143.127 108.992 143.535 108.992 144.028V149H107.799V143.77C107.799 143.336 107.658 142.986 107.377 142.721C107.095 142.452 106.732 142.318 106.288 142.318C105.983 142.318 105.698 142.399 105.433 142.562C105.171 142.724 104.959 142.95 104.796 143.238C104.637 143.523 104.558 143.853 104.558 144.227V149H103.384ZM118.754 149.159C118.018 149.159 117.384 148.997 116.85 148.672C116.32 148.344 115.91 147.886 115.622 147.3C115.337 146.71 115.194 146.024 115.194 145.241C115.194 144.459 115.337 143.77 115.622 143.173C115.91 142.573 116.311 142.106 116.825 141.771C117.342 141.433 117.945 141.264 118.635 141.264C119.032 141.264 119.425 141.33 119.813 141.463C120.201 141.596 120.554 141.811 120.872 142.109C121.19 142.404 121.444 142.795 121.633 143.283C121.822 143.77 121.916 144.37 121.916 145.082V145.58H116.03V144.565H120.723C120.723 144.134 120.637 143.75 120.464 143.412C120.295 143.074 120.053 142.807 119.738 142.612C119.427 142.416 119.059 142.318 118.635 142.318C118.167 142.318 117.763 142.434 117.422 142.666C117.084 142.895 116.823 143.193 116.641 143.561C116.459 143.929 116.368 144.323 116.368 144.744V145.42C116.368 145.997 116.467 146.486 116.666 146.887C116.868 147.285 117.148 147.588 117.506 147.797C117.864 148.002 118.28 148.105 118.754 148.105C119.062 148.105 119.341 148.062 119.589 147.976C119.841 147.886 120.058 147.754 120.241 147.578C120.423 147.399 120.564 147.177 120.663 146.912L121.797 147.23C121.677 147.615 121.477 147.953 121.195 148.244C120.913 148.533 120.565 148.758 120.151 148.92C119.737 149.08 119.271 149.159 118.754 149.159ZM124.874 144.406V149H123.701V141.364H124.834V142.557H124.934C125.113 142.169 125.385 141.857 125.749 141.622C126.114 141.384 126.584 141.264 127.161 141.264C127.678 141.264 128.131 141.37 128.518 141.582C128.906 141.791 129.208 142.109 129.423 142.537C129.639 142.961 129.746 143.498 129.746 144.148V149H128.573V144.227C128.573 143.627 128.417 143.16 128.106 142.825C127.794 142.487 127.367 142.318 126.823 142.318C126.448 142.318 126.114 142.399 125.819 142.562C125.527 142.724 125.297 142.961 125.128 143.273C124.959 143.584 124.874 143.962 124.874 144.406ZM135.211 141.364V142.358H131.254V141.364H135.211ZM132.407 139.534H133.581V146.812C133.581 147.144 133.629 147.393 133.725 147.558C133.824 147.721 133.95 147.83 134.103 147.886C134.258 147.939 134.422 147.966 134.595 147.966C134.724 147.966 134.83 147.959 134.913 147.946C134.996 147.929 135.062 147.916 135.112 147.906L135.35 148.96C135.271 148.99 135.16 149.02 135.017 149.05C134.875 149.083 134.694 149.099 134.475 149.099C134.144 149.099 133.819 149.028 133.501 148.886C133.186 148.743 132.924 148.526 132.716 148.234C132.51 147.943 132.407 147.575 132.407 147.131V139.534Z" fill="white"/>
    </g>
    <line y1="76.25" x2="267" y2="76.25" stroke="white" stroke-width="0.5"/>
    <line x1="23.75" y1="211" x2="23.75" y2="35.5" stroke="white" stroke-width="0.5"/>
    <defs>
        <filter id="filter0_d_2_128" x="37.8665" y="39.5" width="198.129" height="30.8182" filterUnits="userSpaceOnUse" color-interpolation-filters="sRGB">
            <feFlood flood-opacity="0" result="BackgroundImageFix"/>
            <feColorMatrix in="SourceAlpha" type="matrix" values="0 0 0 0 0 0 0 0 0 0 0 0 0 0 0 0 0 0 127 0" result="hardAlpha"/>
            <feOffset dy="3"/>
            <feGaussianBlur stdDeviation="1.5"/>
            <feComposite in2="hardAlpha" operator="out"/>
            <feColorMatrix type="matrix" values="0 0 0 0 0 0 0 0 0 0 0 0 0 0 0 0 0 0 0.160784 0"/>
            <feBlend mode="normal" in2="BackgroundImageFix" result="effect1_dropShadow_2_128"/>
            <feBlend mode="normal" in="SourceGraphic" in2="effect1_dropShadow_2_128" result="shape"/>
        </filter>
        <filter id="filter1_d_2_128" x="38.2159" y="98.5" width="100.135" height="56.679" filterUnits="userSpaceOnUse" color-interpolation-filters="sRGB">
            <feFlood flood-opacity="0" result="BackgroundImageFix"/>
            <feColorMatrix in="SourceAlpha" type="matrix" values="0 0 0 0 0 0 0 0 0 0 0 0 0 0 0 0 0 0 127 0" result="hardAlpha"/>
            <feOffset dy="3"/>
            <feGaussianBlur stdDeviation="1.5"/>
            <feComposite in2="hardAlpha" operator="out"/>
            <feColorMatrix type="matrix" values="0 0 0 0 0 0 0 0 0 0 0 0 0 0 0 0 0 0 0.160784 0"/>
            <feBlend mode="normal" in2="BackgroundImageFix" result="effect1_dropShadow_2_128"/>
            <feBlend mode="normal" in="SourceGraphic" in2="effect1_dropShadow_2_128" result="shape"/>
        </filter>
    </defs>
</svg>