<svg width="120" height="18" viewBox="0 0 120 18" fill="none" xmlns="http://www.w3.org/2000/svg">
    <g clip-path="url(#clip0_2_107)">
        <path d="M41.767 6.97705C41.6967 6.76185 41.604 6.56903 41.489 6.39857C41.3761 6.22599 41.2408 6.07897 41.0831 5.95752C40.9276 5.83607 40.7507 5.74339 40.5526 5.67947C40.3544 5.61554 40.1371 5.58358 39.9006 5.58358C39.5128 5.58358 39.1602 5.68373 38.8427 5.88401C38.5252 6.0843 38.2727 6.37939 38.0852 6.76931C37.8977 7.15922 37.804 7.63756 37.804 8.20432C37.804 8.77108 37.8988 9.24942 38.0884 9.63934C38.2781 10.0293 38.5348 10.3244 38.8587 10.5246C39.1825 10.7249 39.5469 10.8251 39.9517 10.8251C40.3267 10.8251 40.657 10.7452 40.9425 10.5854C41.2301 10.4234 41.4538 10.1954 41.6136 9.90141C41.7756 9.60525 41.8565 9.25688 41.8565 8.85631L42.0994 8.90745H40.1307V8.20432H42.6236V8.90745C42.6236 9.44651 42.5085 9.91526 42.2784 10.3137C42.0504 10.7121 41.7351 11.0211 41.3324 11.2405C40.9318 11.4579 40.4716 11.5665 39.9517 11.5665C39.3722 11.5665 38.8629 11.4302 38.424 11.1574C37.9872 10.8847 37.6463 10.4969 37.4013 9.9941C37.1584 9.49126 37.0369 8.89466 37.0369 8.20432C37.0369 7.68657 37.1062 7.22101 37.2447 6.80766C37.3853 6.39218 37.5835 6.03849 37.8391 5.74658C38.0948 5.45468 38.3974 5.23096 38.7468 5.07542C39.0962 4.91988 39.4808 4.84211 39.9006 4.84211C40.2457 4.84211 40.5675 4.89431 40.8658 4.99871C41.1662 5.10099 41.4336 5.24694 41.668 5.43657C41.9045 5.62407 42.1016 5.84885 42.2592 6.11093C42.4169 6.37087 42.5256 6.65958 42.5852 6.97705H41.767ZM45.8731 11.5793C45.43 11.5793 45.0411 11.4739 44.7066 11.2629C44.3742 11.052 44.1143 10.7569 43.9268 10.3776C43.7414 9.99836 43.6487 9.55518 43.6487 9.04807C43.6487 8.53671 43.7414 8.09033 43.9268 7.70894C44.1143 7.32755 44.3742 7.03138 44.7066 6.82045C45.0411 6.60951 45.43 6.50404 45.8731 6.50404C46.3163 6.50404 46.7041 6.60951 47.0365 6.82045C47.371 7.03138 47.6309 7.32755 47.8163 7.70894C48.0038 8.09033 48.0976 8.53671 48.0976 9.04807C48.0976 9.55518 48.0038 9.99836 47.8163 10.3776C47.6309 10.7569 47.371 11.052 47.0365 11.2629C46.7041 11.4739 46.3163 11.5793 45.8731 11.5793ZM45.8731 10.9018C46.2098 10.9018 46.4868 10.8155 46.7041 10.6429C46.9214 10.4703 47.0823 10.2434 47.1867 9.96214C47.2911 9.68089 47.3433 9.3762 47.3433 9.04807C47.3433 8.71995 47.2911 8.4142 47.1867 8.13081C47.0823 7.84743 46.9214 7.61839 46.7041 7.44367C46.4868 7.26895 46.2098 7.1816 45.8731 7.1816C45.5365 7.1816 45.2595 7.26895 45.0422 7.44367C44.8248 7.61839 44.664 7.84743 44.5596 8.13081C44.4552 8.4142 44.403 8.71995 44.403 9.04807C44.403 9.3762 44.4552 9.68089 44.5596 9.96214C44.664 10.2434 44.8248 10.4703 45.0422 10.6429C45.2595 10.8155 45.5365 10.9018 45.8731 10.9018ZM51.2433 11.5793C50.8001 11.5793 50.4112 11.4739 50.0767 11.2629C49.7443 11.052 49.4844 10.7569 49.2969 10.3776C49.1115 9.99836 49.0188 9.55518 49.0188 9.04807C49.0188 8.53671 49.1115 8.09033 49.2969 7.70894C49.4844 7.32755 49.7443 7.03138 50.0767 6.82045C50.4112 6.60951 50.8001 6.50404 51.2433 6.50404C51.6864 6.50404 52.0742 6.60951 52.4066 6.82045C52.7411 7.03138 53.0011 7.32755 53.1864 7.70894C53.3739 8.09033 53.4677 8.53671 53.4677 9.04807C53.4677 9.55518 53.3739 9.99836 53.1864 10.3776C53.0011 10.7569 52.7411 11.052 52.4066 11.2629C52.0742 11.4739 51.6864 11.5793 51.2433 11.5793ZM51.2433 10.9018C51.5799 10.9018 51.8569 10.8155 52.0742 10.6429C52.2915 10.4703 52.4524 10.2434 52.5568 9.96214C52.6612 9.68089 52.7134 9.3762 52.7134 9.04807C52.7134 8.71995 52.6612 8.4142 52.5568 8.13081C52.4524 7.84743 52.2915 7.61839 52.0742 7.44367C51.8569 7.26895 51.5799 7.1816 51.2433 7.1816C50.9066 7.1816 50.6296 7.26895 50.4123 7.44367C50.195 7.61839 50.0341 7.84743 49.9297 8.13081C49.8253 8.4142 49.7731 8.71995 49.7731 9.04807C49.7731 9.3762 49.8253 9.68089 49.9297 9.96214C50.0341 10.2434 50.195 10.4703 50.4123 10.6429C50.6296 10.8155 50.9066 10.9018 51.2433 10.9018ZM56.6006 13.4202C56.2362 13.4202 55.923 13.3734 55.661 13.2796C55.3989 13.188 55.1805 13.0665 55.0058 12.9153C54.8332 12.7661 54.6958 12.6063 54.5935 12.4359L55.1943 12.014C55.2625 12.1035 55.3488 12.2057 55.4532 12.3208C55.5576 12.438 55.7004 12.5392 55.8815 12.6244C56.0647 12.7118 56.3044 12.7555 56.6006 12.7555C56.9969 12.7555 57.324 12.6596 57.5818 12.4678C57.8396 12.2761 57.9685 11.9756 57.9685 11.5665V10.5694H57.9046C57.8492 10.6589 57.7703 10.7697 57.6681 10.9018C57.5679 11.0317 57.423 11.1479 57.2334 11.2501C57.0459 11.3503 56.7923 11.4003 56.4727 11.4003C56.0764 11.4003 55.7206 11.3066 55.4053 11.1191C55.0921 10.9316 54.8438 10.6589 54.6606 10.3009C54.4795 9.94296 54.3889 9.5083 54.3889 8.99694C54.3889 8.4941 54.4774 8.05624 54.6542 7.68337C54.8311 7.30837 55.0771 7.0186 55.3925 6.81405C55.7078 6.60738 56.0722 6.50404 56.4855 6.50404C56.8051 6.50404 57.0587 6.55731 57.2462 6.66384C57.4358 6.76824 57.5807 6.88756 57.6808 7.02179C57.7831 7.1539 57.8619 7.26256 57.9173 7.34779H57.9941V6.56796H58.7227V11.6177C58.7227 12.0396 58.6269 12.3826 58.4351 12.6468C58.2455 12.9131 57.9898 13.1081 57.6681 13.2317C57.3485 13.3574 56.9926 13.4202 56.6006 13.4202ZM56.575 10.7228C56.8776 10.7228 57.1333 10.6535 57.3421 10.515C57.5509 10.3766 57.7096 10.1773 57.8183 9.91739C57.9269 9.65745 57.9813 9.34637 57.9813 8.98415C57.9813 8.63046 57.928 8.31831 57.8215 8.04772C57.7149 7.77712 57.5573 7.56512 57.3485 7.41171C57.1396 7.2583 56.8818 7.1816 56.575 7.1816C56.2554 7.1816 55.9891 7.26256 55.776 7.42449C55.5651 7.58643 55.4063 7.80376 55.2998 8.07648C55.1954 8.34921 55.1432 8.65177 55.1432 8.98415C55.1432 9.32506 55.1965 9.62655 55.303 9.88863C55.4117 10.1486 55.5715 10.3531 55.7824 10.5023C55.9955 10.6493 56.2597 10.7228 56.575 10.7228ZM60.8577 4.9316V11.4771H60.1034V4.9316H60.8577ZM64.2974 11.5793C63.8244 11.5793 63.4164 11.4749 63.0733 11.2661C62.7324 11.0552 62.4693 10.7611 62.2839 10.384C62.1007 10.0047 62.0091 9.5637 62.0091 9.06086C62.0091 8.55802 62.1007 8.11483 62.2839 7.73131C62.4693 7.34566 62.7271 7.04523 63.0574 6.83003C63.3897 6.6127 63.7775 6.50404 64.2207 6.50404C64.4764 6.50404 64.7289 6.54665 64.9782 6.63188C65.2275 6.71711 65.4544 6.8556 65.6589 7.04736C65.8635 7.23699 66.0265 7.48841 66.1479 7.80162C66.2694 8.11483 66.3301 8.50049 66.3301 8.95858V9.27819H62.546V8.6262H65.563C65.563 8.34921 65.5076 8.10205 65.3968 7.88472C65.2882 7.66739 65.1326 7.49587 64.9302 7.37016C64.7299 7.24445 64.4934 7.1816 64.2207 7.1816C63.9203 7.1816 63.6603 7.25617 63.4409 7.40532C63.2235 7.55233 63.0563 7.7441 62.9391 7.9806C62.8219 8.21711 62.7633 8.47066 62.7633 8.74126V9.17591C62.7633 9.54665 62.8272 9.86093 62.9551 10.1187C63.085 10.3744 63.2651 10.5694 63.4952 10.7036C63.7253 10.8357 63.9927 10.9018 64.2974 10.9018C64.4956 10.9018 64.6745 10.8741 64.8343 10.8187C64.9963 10.7611 65.1358 10.6759 65.253 10.563C65.3702 10.4479 65.4608 10.3052 65.5247 10.1347L66.2534 10.3393C66.1767 10.5864 66.0478 10.8038 65.8667 10.9913C65.6855 11.1766 65.4618 11.3215 65.1955 11.4259C64.9292 11.5282 64.6298 11.5793 64.2974 11.5793ZM70.0087 11.4771V6.56796H70.7374V7.33501H70.8013C70.9036 7.07293 71.0687 6.86945 71.2967 6.72456C71.5247 6.57755 71.7985 6.50404 72.1181 6.50404C72.4419 6.50404 72.7115 6.57755 72.9267 6.72456C73.144 6.86945 73.3134 7.07293 73.4348 7.33501H73.486C73.6117 7.08145 73.8002 6.8801 74.0517 6.73096C74.3031 6.57968 74.6046 6.50404 74.9561 6.50404C75.3951 6.50404 75.7541 6.64147 76.0332 6.91633C76.3123 7.18905 76.4519 7.61412 76.4519 8.19154V11.4771H75.6976V8.19154C75.6976 7.82932 75.5985 7.57045 75.4004 7.41491C75.2022 7.25937 74.9689 7.1816 74.7005 7.1816C74.3553 7.1816 74.0879 7.286 73.8983 7.49481C73.7086 7.70148 73.6138 7.96356 73.6138 8.28103V11.4771H72.8468V8.11483C72.8468 7.83572 72.7562 7.61093 72.5751 7.44047C72.394 7.26789 72.1607 7.1816 71.8752 7.1816C71.6792 7.1816 71.4959 7.2338 71.3255 7.3382C71.1571 7.4426 71.0208 7.58749 70.9164 7.77286C70.8141 7.9561 70.763 8.1681 70.763 8.40887V11.4771H70.0087ZM79.2756 11.5921C78.9645 11.5921 78.6822 11.5335 78.4286 11.4163C78.1751 11.297 77.9737 11.1255 77.8246 10.9018C77.6754 10.6759 77.6009 10.4032 77.6009 10.0836C77.6009 9.80233 77.6563 9.57435 77.767 9.39964C77.8778 9.22279 78.0259 9.08429 78.2113 8.98415C78.3967 8.88401 78.6012 8.80944 78.8249 8.76043C79.0508 8.7093 79.2777 8.66881 79.5057 8.63898C79.804 8.60063 80.0458 8.57187 80.2312 8.55269C80.4187 8.53138 80.555 8.49623 80.6403 8.44722C80.7276 8.39822 80.7713 8.31299 80.7713 8.19154V8.16597C80.7713 7.85063 80.685 7.6056 80.5124 7.43089C80.342 7.25617 80.0831 7.16881 79.7358 7.16881C79.3757 7.16881 79.0934 7.24765 78.8888 7.40532C78.6843 7.56299 78.5405 7.73131 78.4574 7.91029L77.7415 7.65461C77.8693 7.35631 78.0398 7.12407 78.2528 6.95787C78.468 6.78955 78.7024 6.67236 78.956 6.60631C79.2116 6.53813 79.4631 6.50404 79.7102 6.50404C79.8679 6.50404 80.049 6.52322 80.2536 6.56157C80.4602 6.59779 80.6594 6.67343 80.8512 6.78849C81.0451 6.90354 81.206 7.07719 81.3338 7.30944C81.4616 7.54168 81.5256 7.85276 81.5256 8.24268V11.4771H80.7713V10.8123H80.733C80.6818 10.9188 80.5966 11.0328 80.4773 11.1543C80.358 11.2757 80.1992 11.379 80.0011 11.4643C79.8029 11.5495 79.5611 11.5921 79.2756 11.5921ZM79.3906 10.9146C79.6889 10.9146 79.9403 10.856 80.1449 10.7388C80.3516 10.6216 80.5071 10.4703 80.6115 10.2849C80.718 10.0996 80.7713 9.90461 80.7713 9.70006V9.00972C80.7393 9.04807 80.669 9.08323 80.5604 9.11519C80.4538 9.14502 80.3303 9.17165 80.1896 9.19509C80.0511 9.2164 79.9158 9.23557 79.7837 9.25262C79.6538 9.26753 79.5483 9.28032 79.4673 9.29097C79.2713 9.31654 79.0881 9.35809 78.9176 9.41562C78.7493 9.47101 78.6129 9.55518 78.5085 9.6681C78.4063 9.7789 78.3551 9.93018 78.3551 10.1219C78.3551 10.384 78.4521 10.5822 78.646 10.7164C78.842 10.8485 79.0902 10.9146 79.3906 10.9146ZM82.9023 13.318V6.56796H83.6309V7.34779H83.7204C83.7758 7.26256 83.8525 7.1539 83.9506 7.02179C84.0507 6.88756 84.1934 6.76824 84.3788 6.66384C84.5663 6.55731 84.8199 6.50404 85.1395 6.50404C85.5528 6.50404 85.9172 6.60738 86.2325 6.81405C86.5479 7.02073 86.7939 7.3137 86.9708 7.69296C87.1476 8.07222 87.2361 8.51966 87.2361 9.03529C87.2361 9.55518 87.1476 10.0058 86.9708 10.3872C86.7939 10.7665 86.5489 11.0605 86.2357 11.2693C85.9225 11.476 85.5613 11.5793 85.1523 11.5793C84.8369 11.5793 84.5844 11.5271 84.3948 11.4227C84.2052 11.3162 84.0592 11.1958 83.9569 11.0616C83.8547 10.9252 83.7758 10.8123 83.7204 10.7228H83.6565V13.318H82.9023ZM83.6437 9.02251C83.6437 9.39324 83.6981 9.7203 83.8067 10.0037C83.9154 10.2849 84.0741 10.5055 84.2829 10.6653C84.4917 10.8229 84.7474 10.9018 85.05 10.9018C85.3653 10.9018 85.6285 10.8187 85.8394 10.6525C86.0525 10.4842 86.2123 10.2583 86.3188 9.97492C86.4275 9.68941 86.4818 9.37194 86.4818 9.02251C86.4818 8.67733 86.4285 8.36626 86.322 8.08927C86.2176 7.81015 86.0589 7.58962 85.8458 7.42769C85.6349 7.26363 85.3696 7.1816 85.05 7.1816C84.7432 7.1816 84.4854 7.25937 84.2765 7.41491C84.0677 7.56831 83.9101 7.78351 83.8035 8.0605C83.697 8.33536 83.6437 8.65603 83.6437 9.02251Z" fill="white"/>
        <path d="M16.8869 11.6691H9.50274L9.45465 4.28491" stroke="white" stroke-width="0.873"/>
        <path d="M0 8.71152C0 3.90028 3.90028 0 8.71153 0H111.288C116.1 0 120 3.90029 120 8.71153V8.71153C120 13.5228 116.1 17.4231 111.288 17.4231H8.71154C3.90029 17.4231 0 13.5228 0 8.71152V8.71152Z" stroke="white" stroke-width="0.947"/>
    </g>
    <defs>
        <clipPath id="clip0_2_107">
            <rect width="120" height="17.4231" fill="white"/>
        </clipPath>
    </defs>
</svg>
