<svg width="120" height="18" viewBox="0 0 120 18" fill="none" xmlns="http://www.w3.org/2000/svg">
    <g clip-path="url(#clip0_2_118)">
        <path d="M56.7702 7.66739L56.0926 7.85915C56.05 7.74623 55.9871 7.6365 55.904 7.52996C55.8231 7.4213 55.7123 7.33181 55.5716 7.2615C55.431 7.19118 55.251 7.15603 55.0315 7.15603C54.7311 7.15603 54.4807 7.22528 54.2805 7.36377C54.0823 7.50013 53.9832 7.67378 53.9832 7.88472C53.9832 8.07222 54.0514 8.2203 54.1878 8.32897C54.3241 8.43763 54.5372 8.52819 54.827 8.60063L55.5557 8.77961C55.9946 8.88614 56.3216 9.04914 56.5368 9.2686C56.752 9.48593 56.8596 9.76611 56.8596 10.1092C56.8596 10.3904 56.7787 10.6418 56.6167 10.8634C56.4569 11.085 56.2332 11.2597 55.9456 11.3876C55.6579 11.5154 55.3234 11.5793 54.942 11.5793C54.4413 11.5793 54.0269 11.4707 53.6988 11.2533C53.3706 11.036 53.1629 10.7185 53.0756 10.3009L53.7915 10.1219C53.8596 10.3861 53.9885 10.5843 54.1782 10.7164C54.3699 10.8485 54.6203 10.9146 54.9292 10.9146C55.2808 10.9146 55.5599 10.84 55.7666 10.6908C55.9754 10.5396 56.0798 10.3584 56.0798 10.1475C56.0798 9.97705 56.0202 9.8343 55.9008 9.71924C55.7815 9.60205 55.5983 9.51469 55.3511 9.45716L54.5329 9.2654C54.0834 9.15887 53.7531 8.99374 53.5422 8.77002C53.3334 8.54417 53.229 8.26185 53.229 7.92307C53.229 7.64608 53.3067 7.40106 53.4623 7.18799C53.6199 6.97492 53.8341 6.80766 54.1047 6.68621C54.3774 6.56476 54.6863 6.50404 55.0315 6.50404C55.5173 6.50404 55.8987 6.61057 56.1757 6.82364C56.4548 7.03671 56.653 7.31796 56.7702 7.66739ZM60.0533 11.5793C59.5803 11.5793 59.1722 11.4749 58.8292 11.2661C58.4883 11.0552 58.2251 10.7611 58.0398 10.384C57.8565 10.0047 57.7649 9.5637 57.7649 9.06086C57.7649 8.55802 57.8565 8.11483 58.0398 7.73131C58.2251 7.34566 58.483 7.04523 58.8132 6.83003C59.1456 6.6127 59.5334 6.50404 59.9766 6.50404C60.2322 6.50404 60.4847 6.54665 60.734 6.63188C60.9833 6.71711 61.2102 6.8556 61.4148 7.04736C61.6193 7.23699 61.7823 7.48841 61.9038 7.80162C62.0252 8.11483 62.0859 8.50049 62.0859 8.95858V9.27819H58.3018V8.6262H61.3189C61.3189 8.34921 61.2635 8.10205 61.1527 7.88472C61.044 7.66739 60.8885 7.49587 60.6861 7.37016C60.4858 7.24445 60.2493 7.1816 59.9766 7.1816C59.6761 7.1816 59.4162 7.25617 59.1967 7.40532C58.9794 7.55233 58.8121 7.7441 58.695 7.9806C58.5778 8.21711 58.5192 8.47066 58.5192 8.74126V9.17591C58.5192 9.54665 58.5831 9.86093 58.7109 10.1187C58.8409 10.3744 59.021 10.5694 59.2511 10.7036C59.4812 10.8357 59.7486 10.9018 60.0533 10.9018C60.2514 10.9018 60.4304 10.8741 60.5902 10.8187C60.7521 10.7611 60.8917 10.6759 61.0089 10.563C61.1261 10.4479 61.2166 10.3052 61.2805 10.1347L62.0092 10.3393C61.9325 10.5864 61.8036 10.8038 61.6225 10.9913C61.4414 11.1766 61.2177 11.3215 60.9513 11.4259C60.685 11.5282 60.3857 11.5793 60.0533 11.5793ZM63.9876 8.52393V11.4771H63.2333V6.56796H63.962V7.33501H64.0259C64.141 7.08572 64.3157 6.88543 64.5501 6.73415C64.7844 6.58074 65.087 6.50404 65.4577 6.50404C65.7901 6.50404 66.081 6.57222 66.3303 6.70858C66.5795 6.84282 66.7734 7.04736 66.9119 7.32222C67.0504 7.59495 67.1197 7.94012 67.1197 8.35773V11.4771H66.3654V8.40887C66.3654 8.02322 66.2653 7.72279 66.065 7.50759C65.8647 7.29026 65.5898 7.1816 65.2404 7.1816C64.9996 7.1816 64.7844 7.2338 64.5948 7.3382C64.4073 7.4426 64.2592 7.59495 64.1506 7.79523C64.0419 7.99552 63.9876 8.23841 63.9876 8.52393ZM70.3517 11.5793C69.9426 11.5793 69.5814 11.476 69.2682 11.2693C68.955 11.0605 68.71 10.7665 68.5331 10.3872C68.3563 10.0058 68.2678 9.55518 68.2678 9.03529C68.2678 8.51966 68.3563 8.07222 68.5331 7.69296C68.71 7.3137 68.9561 7.02073 69.2714 6.81405C69.5867 6.60738 69.9511 6.50404 70.3644 6.50404C70.684 6.50404 70.9365 6.55731 71.1219 6.66384C71.3094 6.76824 71.4521 6.88756 71.5502 7.02179C71.6503 7.1539 71.7281 7.26256 71.7835 7.34779H71.8474V4.9316H72.6017V11.4771H71.873V10.7228H71.7835C71.7281 10.8123 71.6492 10.9252 71.547 11.0616C71.4447 11.1958 71.2987 11.3162 71.1091 11.4227C70.9195 11.5271 70.667 11.5793 70.3517 11.5793ZM70.4539 10.9018C70.7565 10.9018 71.0122 10.8229 71.221 10.6653C71.4298 10.5055 71.5885 10.2849 71.6972 10.0037C71.8058 9.7203 71.8602 9.39324 71.8602 9.02251C71.8602 8.65603 71.8069 8.33536 71.7004 8.0605C71.5938 7.78351 71.4362 7.56831 71.2274 7.41491C71.0186 7.25937 70.7607 7.1816 70.4539 7.1816C70.1343 7.1816 69.868 7.26363 69.6549 7.42769C69.444 7.58962 69.2852 7.81015 69.1787 8.08927C69.0743 8.36626 69.0221 8.67733 69.0221 9.02251C69.0221 9.37194 69.0754 9.68941 69.1819 9.97492C69.2906 10.2583 69.4504 10.4842 69.6613 10.6525C69.8744 10.8187 70.1386 10.9018 70.4539 10.9018Z" fill="white"/>
        <path d="M16.8869 11.6691H9.50274L9.45465 4.28491" stroke="white" stroke-width="0.873"/>
        <path d="M0 8.71152C0 3.90028 3.90028 0 8.71153 0H111.288C116.1 0 120 3.90029 120 8.71153V8.71153C120 13.5228 116.1 17.4231 111.288 17.4231H8.71154C3.90029 17.4231 0 13.5228 0 8.71152V8.71152Z" stroke="white" stroke-width="0.947"/>
    </g>
    <defs>
        <clipPath id="clip0_2_118">
            <rect width="120" height="17.4231" fill="white"/>
        </clipPath>
    </defs>
</svg>