<svg xmlns="http://www.w3.org/2000/svg" width="279.429" height="118.391" viewBox="0 0 279.429 118.391">
    <g id="グループ_3" data-name="グループ 3" transform="translate(42.486 75.905) rotate(-90)">
        <g id="グループ_54" data-name="グループ 54" transform="translate(0 0)">
            <rect id="長方形_38" data-name="長方形 38" width="3.744" height="19.74" transform="translate(19.74 144.998) rotate(90)" fill="#fff" style="mix-blend-mode: overlay;isolation: isolate"/>
            <rect id="長方形_39" data-name="長方形 39" width="3.744" height="10.318" transform="translate(33.419 144.998) rotate(90)" fill="#fff" style="mix-blend-mode: overlay;isolation: isolate"/>
            <rect id="長方形_40" data-name="長方形 40" width="11.52" height="3.666" transform="translate(17.806 86.013) rotate(90)" fill="#fff" style="mix-blend-mode: overlay;isolation: isolate"/>
            <path id="パス_47" data-name="パス 47" d="M0,3.666H20.361a.776.776,0,0,1,.593,1.277L0,29.713v3.666H26.643V29.713H6.281a.776.776,0,0,1-.593-1.277L26.643,3.666V0H0Z" transform="translate(33.379 104.961) rotate(90)" fill="#fff" style="mix-blend-mode: overlay;isolation: isolate"/>
            <path id="パス_48" data-name="パス 48" d="M3.745,0H0V33.417H3.745V5.071H26.262a1.946,1.946,0,0,1,1.946,1.946v26.4h3.745V5.071a3.744,3.744,0,0,0-3.745-3.745H3.745Z" transform="translate(33.418 44.251) rotate(90)" fill="#fff" style="mix-blend-mode: overlay;isolation: isolate"/>
            <path id="パス_49" data-name="パス 49" d="M3.745,0H0V33.417H3.745V5.071H26.262a1.946,1.946,0,0,1,1.946,1.946v26.4h3.745V5.071a3.744,3.744,0,0,0-3.745-3.745H3.745Z" transform="translate(33.418 162.503) rotate(90)" fill="#fff" style="mix-blend-mode: overlay;isolation: isolate"/>
            <path id="パス_50" data-name="パス 50" d="M3.745,0H1.512A1.512,1.512,0,0,0,0,1.512V31.906a1.512,1.512,0,0,0,1.512,1.512H31.691V29.674H4.474a.729.729,0,0,1-.729-.729V17.8a.729.729,0,0,1,.729-.729H30.268a1.423,1.423,0,0,0,1.423-1.422V1.422A1.423,1.423,0,0,0,30.268,0H3.745ZM27.217,13.329H4.474a.729.729,0,0,1-.729-.729V4.474a.729.729,0,0,1,.729-.729H27.217a.729.729,0,0,1,.729.729V12.6a.729.729,0,0,1-.729.729" transform="translate(33.418 0) rotate(90)" fill="#fff" style="mix-blend-mode: overlay;isolation: isolate"/>
        </g>
        <g id="グループ_53" data-name="グループ 53" transform="translate(0 0)" opacity="0.929" style="mix-blend-mode: hard-light;isolation: isolate">
            <rect id="長方形_38-2" data-name="長方形 38" width="3.744" height="19.74" transform="translate(19.74 144.998) rotate(90)" fill="#fff"/>
            <rect id="長方形_39-2" data-name="長方形 39" width="3.744" height="10.318" transform="translate(33.419 144.998) rotate(90)" fill="#fff"/>
            <rect id="長方形_40-2" data-name="長方形 40" width="11.52" height="3.666" transform="translate(17.806 86.013) rotate(90)" fill="#fff"/>
            <path id="パス_47-2" data-name="パス 47" d="M0,3.666H20.361a.776.776,0,0,1,.593,1.277L0,29.713v3.666H26.643V29.713H6.281a.776.776,0,0,1-.593-1.277L26.643,3.666V0H0Z" transform="translate(33.379 104.961) rotate(90)" fill="#fff"/>
            <path id="パス_48-2" data-name="パス 48" d="M3.745,0H0V33.417H3.745V5.071H26.262a1.946,1.946,0,0,1,1.946,1.946v26.4h3.745V5.071a3.744,3.744,0,0,0-3.745-3.745H3.745Z" transform="translate(33.418 44.251) rotate(90)" fill="#fff"/>
            <path id="パス_49-2" data-name="パス 49" d="M3.745,0H0V33.417H3.745V5.071H26.262a1.946,1.946,0,0,1,1.946,1.946v26.4h3.745V5.071a3.744,3.744,0,0,0-3.745-3.745H3.745Z" transform="translate(33.418 162.503) rotate(90)" fill="#fff"/>
            <path id="パス_50-2" data-name="パス 50" d="M3.745,0H1.512A1.512,1.512,0,0,0,0,1.512V31.906a1.512,1.512,0,0,0,1.512,1.512H31.691V29.674H4.474a.729.729,0,0,1-.729-.729V17.8a.729.729,0,0,1,.729-.729H30.268a1.423,1.423,0,0,0,1.423-1.422V1.422A1.423,1.423,0,0,0,30.268,0H3.745ZM27.217,13.329H4.474a.729.729,0,0,1-.729-.729V4.474a.729.729,0,0,1,.729-.729H27.217a.729.729,0,0,1,.729.729V12.6a.729.729,0,0,1-.729.729" transform="translate(33.418 0) rotate(90)" fill="#fff"/>
        </g>
    </g>
</svg>