<svg xmlns="http://www.w3.org/2000/svg" width="214.999" height="107.318" viewBox="0 0 214.999 107.318">
    <g id="グループ_55" data-name="グループ 55" transform="translate(-111.514 1292.264) rotate(-90)">
        <g id="グループ_54" data-name="グループ 54" transform="translate(1227.431 154)">
            <rect id="長方形_38" data-name="長方形 38" width="2.503" height="13.199" transform="translate(13.2 96.955) rotate(90)" fill="#fff" style="mix-blend-mode: overlay;isolation: isolate"/>
            <rect id="長方形_39" data-name="長方形 39" width="2.503" height="6.899" transform="translate(22.346 96.955) rotate(90)" fill="#fff" style="mix-blend-mode: overlay;isolation: isolate"/>
            <rect id="長方形_40" data-name="長方形 40" width="7.703" height="2.451" transform="translate(11.906 57.514) rotate(90)" fill="#fff" style="mix-blend-mode: overlay;isolation: isolate"/>
            <path id="パス_47" data-name="パス 47" d="M0,2.451H13.615a.519.519,0,0,1,.4.854L0,19.868v2.451H17.815V19.868H4.2a.519.519,0,0,1-.4-.854L17.815,2.451V0H0Z" transform="translate(22.319 70.184) rotate(90)" fill="#fff" style="mix-blend-mode: overlay;isolation: isolate"/>
            <path id="パス_48" data-name="パス 48" d="M2.5,0H0V22.345H2.5V3.391H17.561a1.3,1.3,0,0,1,1.3,1.3V22.345h2.5V3.391a2.5,2.5,0,0,0-2.5-2.5H2.5Z" transform="translate(22.346 29.589) rotate(90)" fill="#fff" style="mix-blend-mode: overlay;isolation: isolate"/>
            <path id="パス_49" data-name="パス 49" d="M2.5,0H0V22.345H2.5V3.391H17.561a1.3,1.3,0,0,1,1.3,1.3V22.345h2.5V3.391a2.5,2.5,0,0,0-2.5-2.5H2.5Z" transform="translate(22.346 108.66) rotate(90)" fill="#fff" style="mix-blend-mode: overlay;isolation: isolate"/>
            <path id="パス_50" data-name="パス 50" d="M2.5,0H1.011A1.011,1.011,0,0,0,0,1.011V21.334a1.011,1.011,0,0,0,1.011,1.011h20.18v-2.5H2.991a.487.487,0,0,1-.487-.487V11.9a.487.487,0,0,1,.487-.487H20.239a.951.951,0,0,0,.951-.951V.951A.951.951,0,0,0,20.239,0H2.5ZM18.2,8.913H2.991A.487.487,0,0,1,2.5,8.425V2.991A.487.487,0,0,1,2.991,2.5H18.2a.488.488,0,0,1,.487.487V8.425a.488.488,0,0,1-.487.487" transform="translate(22.346 0) rotate(90)" fill="#fff" style="mix-blend-mode: overlay;isolation: isolate"/>
        </g>
        <g id="グループ_53" data-name="グループ 53" transform="translate(1227.431 154)" opacity="0.929" style="mix-blend-mode: hard-light;isolation: isolate">
            <rect id="長方形_38-2" data-name="長方形 38" width="2.503" height="13.199" transform="translate(13.2 96.955) rotate(90)" fill="#fff"/>
            <rect id="長方形_39-2" data-name="長方形 39" width="2.503" height="6.899" transform="translate(22.346 96.955) rotate(90)" fill="#fff"/>
            <rect id="長方形_40-2" data-name="長方形 40" width="7.703" height="2.451" transform="translate(11.906 57.514) rotate(90)" fill="#fff"/>
            <path id="パス_47-2" data-name="パス 47" d="M0,2.451H13.615a.519.519,0,0,1,.4.854L0,19.868v2.451H17.815V19.868H4.2a.519.519,0,0,1-.4-.854L17.815,2.451V0H0Z" transform="translate(22.319 70.184) rotate(90)" fill="#fff"/>
            <path id="パス_48-2" data-name="パス 48" d="M2.5,0H0V22.345H2.5V3.391H17.561a1.3,1.3,0,0,1,1.3,1.3V22.345h2.5V3.391a2.5,2.5,0,0,0-2.5-2.5H2.5Z" transform="translate(22.346 29.589) rotate(90)" fill="#fff"/>
            <path id="パス_49-2" data-name="パス 49" d="M2.5,0H0V22.345H2.5V3.391H17.561a1.3,1.3,0,0,1,1.3,1.3V22.345h2.5V3.391a2.5,2.5,0,0,0-2.5-2.5H2.5Z" transform="translate(22.346 108.66) rotate(90)" fill="#fff"/>
            <path id="パス_50-2" data-name="パス 50" d="M2.5,0H1.011A1.011,1.011,0,0,0,0,1.011V21.334a1.011,1.011,0,0,0,1.011,1.011h20.18v-2.5H2.991a.487.487,0,0,1-.487-.487V11.9a.487.487,0,0,1,.487-.487H20.239a.951.951,0,0,0,.951-.951V.951A.951.951,0,0,0,20.239,0H2.5ZM18.2,8.913H2.991A.487.487,0,0,1,2.5,8.425V2.991A.487.487,0,0,1,2.991,2.5H18.2a.488.488,0,0,1,.487.487V8.425a.488.488,0,0,1-.487.487" transform="translate(22.346 0) rotate(90)" fill="#fff"/>
        </g>
    </g>
</svg>
